%TF.GenerationSoftware,KiCad,Pcbnew,10.0.1*%
%TF.CreationDate,2026-05-25T18:21:19+01:00*%
%TF.ProjectId,petal,70657461-6c2e-46b6-9963-61645f706362,rev?*%
%TF.SameCoordinates,Original*%
%TF.FileFunction,Soldermask,Top*%
%TF.FilePolarity,Negative*%
%FSLAX46Y46*%
G04 Gerber Fmt 4.6, Leading zero omitted, Abs format (unit mm)*
G04 Created by KiCad (PCBNEW 10.0.1) date 2026-05-25 18:21:19*
%MOMM*%
%LPD*%
G01*
G04 APERTURE LIST*
G04 APERTURE END LIST*
G36*
X154413640Y-115370316D02*
G01*
X154418901Y-115372769D01*
X154421418Y-115373136D01*
X154457193Y-115390625D01*
X154513968Y-115417100D01*
X154592246Y-115495378D01*
X154618731Y-115552175D01*
X154636209Y-115587927D01*
X154636575Y-115590442D01*
X154639030Y-115595706D01*
X154649891Y-115678205D01*
X154649891Y-116115705D01*
X154639030Y-116198204D01*
X154636575Y-116203468D01*
X154636209Y-116205982D01*
X154618741Y-116241713D01*
X154592246Y-116298532D01*
X154513968Y-116376810D01*
X154457149Y-116403305D01*
X154421418Y-116420773D01*
X154418904Y-116421139D01*
X154413640Y-116423594D01*
X154331141Y-116434455D01*
X153818641Y-116434455D01*
X153736142Y-116423594D01*
X153730878Y-116421139D01*
X153728363Y-116420773D01*
X153692611Y-116403295D01*
X153635814Y-116376810D01*
X153557536Y-116298532D01*
X153531061Y-116241757D01*
X153513572Y-116205982D01*
X153513205Y-116203465D01*
X153510752Y-116198204D01*
X153499891Y-116115705D01*
X153499891Y-115678205D01*
X153510752Y-115595706D01*
X153513205Y-115590445D01*
X153513572Y-115587927D01*
X153531071Y-115552130D01*
X153557536Y-115495378D01*
X153635814Y-115417100D01*
X153692566Y-115390635D01*
X153728363Y-115373136D01*
X153730881Y-115372769D01*
X153736142Y-115370316D01*
X153818641Y-115359455D01*
X154331141Y-115359455D01*
X154413640Y-115370316D01*
G37*
G36*
X157919397Y-114939031D02*
G01*
X157921942Y-114938956D01*
X157960250Y-114949978D01*
X158020719Y-114966181D01*
X158111401Y-115029677D01*
X158147358Y-115081028D01*
X158170767Y-115113187D01*
X158171564Y-115115598D01*
X158174896Y-115120357D01*
X158199918Y-115199717D01*
X158275889Y-115630570D01*
X158279519Y-115713702D01*
X158278015Y-115719314D01*
X158278091Y-115721852D01*
X158267091Y-115760081D01*
X158250867Y-115820629D01*
X158187371Y-115911311D01*
X158136000Y-115947281D01*
X158103860Y-115970678D01*
X158101449Y-115971474D01*
X158096692Y-115974806D01*
X158017332Y-115999828D01*
X157512618Y-116088823D01*
X157429486Y-116092452D01*
X157423877Y-116090949D01*
X157421335Y-116091025D01*
X157383063Y-116080013D01*
X157322559Y-116063801D01*
X157231877Y-116000305D01*
X157195926Y-115948962D01*
X157172510Y-115916794D01*
X157171712Y-115914381D01*
X157168382Y-115909625D01*
X157143360Y-115830265D01*
X157067389Y-115399412D01*
X157063759Y-115316280D01*
X157065261Y-115310671D01*
X157065186Y-115308129D01*
X157076204Y-115269835D01*
X157092411Y-115209353D01*
X157155907Y-115118671D01*
X157207214Y-115082744D01*
X157239417Y-115059303D01*
X157241832Y-115058504D01*
X157246586Y-115055176D01*
X157325946Y-115030154D01*
X157830660Y-114941159D01*
X157913792Y-114937530D01*
X157919397Y-114939031D01*
G37*
G36*
X161330341Y-113892917D02*
G01*
X161392709Y-113898374D01*
X161493039Y-113945158D01*
X161537367Y-113989486D01*
X161566004Y-114017090D01*
X161567207Y-114019326D01*
X161571316Y-114023435D01*
X161609738Y-114097244D01*
X161759372Y-114508359D01*
X161777382Y-114589598D01*
X161776876Y-114595377D01*
X161777393Y-114597870D01*
X161773192Y-114637483D01*
X161767734Y-114699876D01*
X161720949Y-114800206D01*
X161676612Y-114844543D01*
X161649018Y-114873171D01*
X161646781Y-114874374D01*
X161642673Y-114878483D01*
X161568864Y-114916905D01*
X161087272Y-115092190D01*
X161006033Y-115110201D01*
X161000248Y-115109694D01*
X160997759Y-115110211D01*
X160958170Y-115106013D01*
X160895755Y-115100552D01*
X160795425Y-115053768D01*
X160751095Y-115009438D01*
X160722459Y-114981835D01*
X160721255Y-114979598D01*
X160717148Y-114975491D01*
X160678726Y-114901682D01*
X160529092Y-114490567D01*
X160511082Y-114409328D01*
X160511587Y-114403551D01*
X160511070Y-114401055D01*
X160515276Y-114361382D01*
X160520730Y-114299050D01*
X160567515Y-114198720D01*
X160611797Y-114154437D01*
X160639445Y-114125754D01*
X160641686Y-114124547D01*
X160645791Y-114120443D01*
X160719600Y-114082021D01*
X161095628Y-113945158D01*
X161197792Y-113907973D01*
X161197795Y-113907972D01*
X161201192Y-113906736D01*
X161282431Y-113888725D01*
X161288211Y-113889230D01*
X161290704Y-113888714D01*
X161330341Y-113892917D01*
G37*
G36*
X154413640Y-113795316D02*
G01*
X154418901Y-113797769D01*
X154421418Y-113798136D01*
X154457193Y-113815625D01*
X154513968Y-113842100D01*
X154592246Y-113920378D01*
X154618731Y-113977175D01*
X154636209Y-114012927D01*
X154636575Y-114015442D01*
X154639030Y-114020706D01*
X154649891Y-114103205D01*
X154649891Y-114540705D01*
X154639030Y-114623204D01*
X154636575Y-114628468D01*
X154636209Y-114630982D01*
X154618741Y-114666713D01*
X154592246Y-114723532D01*
X154513968Y-114801810D01*
X154457149Y-114828305D01*
X154421418Y-114845773D01*
X154418904Y-114846139D01*
X154413640Y-114848594D01*
X154331141Y-114859455D01*
X153818641Y-114859455D01*
X153736142Y-114848594D01*
X153730878Y-114846139D01*
X153728363Y-114845773D01*
X153692611Y-114828295D01*
X153635814Y-114801810D01*
X153557536Y-114723532D01*
X153531061Y-114666757D01*
X153513572Y-114630982D01*
X153513205Y-114628465D01*
X153510752Y-114623204D01*
X153499891Y-114540705D01*
X153499891Y-114103205D01*
X153510752Y-114020706D01*
X153513205Y-114015445D01*
X153513572Y-114012927D01*
X153531071Y-113977130D01*
X153557536Y-113920378D01*
X153635814Y-113842100D01*
X153692566Y-113815635D01*
X153728363Y-113798136D01*
X153730881Y-113797769D01*
X153736142Y-113795316D01*
X153818641Y-113784455D01*
X154331141Y-113784455D01*
X154413640Y-113795316D01*
G37*
G36*
X157645901Y-113387959D02*
G01*
X157648446Y-113387884D01*
X157686754Y-113398906D01*
X157747223Y-113415109D01*
X157837905Y-113478605D01*
X157873862Y-113529956D01*
X157897271Y-113562115D01*
X157898068Y-113564526D01*
X157901400Y-113569285D01*
X157926422Y-113648645D01*
X158002393Y-114079498D01*
X158006023Y-114162630D01*
X158004519Y-114168242D01*
X158004595Y-114170780D01*
X157993595Y-114209009D01*
X157977371Y-114269557D01*
X157913875Y-114360239D01*
X157862504Y-114396209D01*
X157830364Y-114419606D01*
X157827953Y-114420402D01*
X157823196Y-114423734D01*
X157743836Y-114448756D01*
X157239122Y-114537751D01*
X157155990Y-114541380D01*
X157150381Y-114539877D01*
X157147839Y-114539953D01*
X157109567Y-114528941D01*
X157049063Y-114512729D01*
X156958381Y-114449233D01*
X156922430Y-114397890D01*
X156899014Y-114365722D01*
X156898216Y-114363309D01*
X156894886Y-114358553D01*
X156869864Y-114279193D01*
X156793893Y-113848340D01*
X156790263Y-113765208D01*
X156791765Y-113759599D01*
X156791690Y-113757057D01*
X156802708Y-113718763D01*
X156818915Y-113658281D01*
X156882411Y-113567599D01*
X156933718Y-113531672D01*
X156965921Y-113508231D01*
X156968336Y-113507432D01*
X156973090Y-113504104D01*
X157052450Y-113479082D01*
X157557164Y-113390087D01*
X157640296Y-113386458D01*
X157645901Y-113387959D01*
G37*
G36*
X160791659Y-112412901D02*
G01*
X160854027Y-112418358D01*
X160954357Y-112465142D01*
X160998685Y-112509470D01*
X161027322Y-112537074D01*
X161028525Y-112539310D01*
X161032634Y-112543419D01*
X161071056Y-112617228D01*
X161220690Y-113028343D01*
X161238700Y-113109582D01*
X161238194Y-113115361D01*
X161238711Y-113117854D01*
X161234510Y-113157467D01*
X161229052Y-113219860D01*
X161182267Y-113320190D01*
X161137930Y-113364527D01*
X161110336Y-113393155D01*
X161108099Y-113394358D01*
X161103991Y-113398467D01*
X161030182Y-113436889D01*
X160548590Y-113612174D01*
X160467351Y-113630185D01*
X160461566Y-113629678D01*
X160459077Y-113630195D01*
X160419488Y-113625997D01*
X160357073Y-113620536D01*
X160256743Y-113573752D01*
X160212413Y-113529422D01*
X160183777Y-113501819D01*
X160182573Y-113499582D01*
X160178466Y-113495475D01*
X160140044Y-113421666D01*
X159990410Y-113010551D01*
X159972400Y-112929312D01*
X159972905Y-112923535D01*
X159972388Y-112921039D01*
X159976594Y-112881366D01*
X159982048Y-112819034D01*
X160028833Y-112718704D01*
X160073115Y-112674421D01*
X160100763Y-112645738D01*
X160103004Y-112644531D01*
X160107109Y-112640427D01*
X160180918Y-112602005D01*
X160556946Y-112465142D01*
X160659110Y-112427957D01*
X160659113Y-112427956D01*
X160662510Y-112426720D01*
X160743749Y-112408709D01*
X160749529Y-112409214D01*
X160752022Y-112408698D01*
X160791659Y-112412901D01*
G37*
G36*
X164635895Y-112274997D02*
G01*
X164687228Y-112310940D01*
X164720243Y-112333165D01*
X164721818Y-112335160D01*
X164726575Y-112338491D01*
X164777231Y-112404507D01*
X164995981Y-112783393D01*
X165027824Y-112860270D01*
X165028330Y-112866054D01*
X165029270Y-112868415D01*
X165032009Y-112908109D01*
X165037472Y-112970548D01*
X165008820Y-113077478D01*
X164972850Y-113128848D01*
X164950651Y-113161826D01*
X164948657Y-113163399D01*
X164945326Y-113168158D01*
X164879310Y-113218814D01*
X164435472Y-113475064D01*
X164358595Y-113506907D01*
X164352809Y-113507413D01*
X164350449Y-113508353D01*
X164310758Y-113511092D01*
X164248317Y-113516555D01*
X164141387Y-113487903D01*
X164090041Y-113451950D01*
X164057038Y-113429734D01*
X164055463Y-113427739D01*
X164050707Y-113424409D01*
X164000051Y-113358393D01*
X163781301Y-112979507D01*
X163749458Y-112902630D01*
X163748952Y-112896847D01*
X163748011Y-112894484D01*
X163745268Y-112854739D01*
X163739810Y-112792352D01*
X163768462Y-112685422D01*
X163804388Y-112634113D01*
X163826630Y-112601073D01*
X163828626Y-112599496D01*
X163831956Y-112594742D01*
X163897972Y-112544086D01*
X164034707Y-112465142D01*
X164338674Y-112289646D01*
X164338677Y-112289644D01*
X164341810Y-112287836D01*
X164418687Y-112255993D01*
X164424467Y-112255487D01*
X164426832Y-112254546D01*
X164466581Y-112251802D01*
X164528965Y-112246345D01*
X164635895Y-112274997D01*
G37*
G36*
X163848395Y-110911007D02*
G01*
X163899728Y-110946950D01*
X163932743Y-110969175D01*
X163934318Y-110971170D01*
X163939075Y-110974501D01*
X163989731Y-111040517D01*
X164208481Y-111419403D01*
X164240324Y-111496280D01*
X164240830Y-111502064D01*
X164241770Y-111504425D01*
X164244509Y-111544119D01*
X164249972Y-111606558D01*
X164221320Y-111713488D01*
X164185350Y-111764858D01*
X164163151Y-111797836D01*
X164161157Y-111799409D01*
X164157826Y-111804168D01*
X164091810Y-111854824D01*
X163647972Y-112111074D01*
X163571095Y-112142917D01*
X163565309Y-112143423D01*
X163562949Y-112144363D01*
X163523258Y-112147102D01*
X163460817Y-112152565D01*
X163353887Y-112123913D01*
X163302541Y-112087960D01*
X163269538Y-112065744D01*
X163267963Y-112063749D01*
X163263207Y-112060419D01*
X163212551Y-111994403D01*
X162993801Y-111615517D01*
X162961958Y-111538640D01*
X162961452Y-111532857D01*
X162960511Y-111530494D01*
X162957768Y-111490749D01*
X162952310Y-111428362D01*
X162980962Y-111321432D01*
X163016888Y-111270123D01*
X163039130Y-111237083D01*
X163041126Y-111235506D01*
X163044456Y-111230752D01*
X163110472Y-111180096D01*
X163346791Y-111043657D01*
X163551174Y-110925656D01*
X163551177Y-110925654D01*
X163554310Y-110923846D01*
X163631187Y-110892003D01*
X163636967Y-110891497D01*
X163639332Y-110890556D01*
X163679081Y-110887812D01*
X163741465Y-110882355D01*
X163848395Y-110911007D01*
G37*
G36*
X167409274Y-110122540D02*
G01*
X167466003Y-110148993D01*
X167502441Y-110165176D01*
X167504341Y-110166870D01*
X167509602Y-110169323D01*
X167570952Y-110225540D01*
X167852171Y-110560684D01*
X167896881Y-110630864D01*
X167898383Y-110636470D01*
X167899720Y-110638634D01*
X167909310Y-110677250D01*
X167925532Y-110737791D01*
X167915883Y-110848072D01*
X167889388Y-110904890D01*
X167873245Y-110941239D01*
X167871555Y-110943135D01*
X167869100Y-110948400D01*
X167812883Y-111009750D01*
X167609872Y-111180096D01*
X167423060Y-111336850D01*
X167423057Y-111336851D01*
X167420285Y-111339178D01*
X167350106Y-111383888D01*
X167344493Y-111385391D01*
X167342336Y-111386725D01*
X167303786Y-111396299D01*
X167243178Y-111412539D01*
X167132898Y-111402890D01*
X167076142Y-111376425D01*
X167039730Y-111360253D01*
X167037830Y-111358560D01*
X167032570Y-111356107D01*
X166971220Y-111299890D01*
X166690001Y-110964746D01*
X166645291Y-110894566D01*
X166643789Y-110888960D01*
X166642451Y-110886795D01*
X166632851Y-110848141D01*
X166616640Y-110787639D01*
X166626289Y-110677358D01*
X166652753Y-110620604D01*
X166668926Y-110584190D01*
X166670619Y-110582290D01*
X166673072Y-110577030D01*
X166729289Y-110515680D01*
X166732063Y-110513352D01*
X166732066Y-110513349D01*
X167119111Y-110188579D01*
X167119121Y-110188572D01*
X167121887Y-110186252D01*
X167192066Y-110141542D01*
X167197673Y-110140039D01*
X167199835Y-110138704D01*
X167238449Y-110129113D01*
X167298994Y-110112891D01*
X167409274Y-110122540D01*
G37*
G36*
X166396884Y-108916020D02*
G01*
X166453613Y-108942473D01*
X166490051Y-108958656D01*
X166491951Y-108960350D01*
X166497212Y-108962803D01*
X166558562Y-109019020D01*
X166839781Y-109354164D01*
X166884491Y-109424344D01*
X166885993Y-109429950D01*
X166887330Y-109432114D01*
X166896920Y-109470730D01*
X166913142Y-109531271D01*
X166903493Y-109641552D01*
X166876998Y-109698370D01*
X166860855Y-109734719D01*
X166859165Y-109736615D01*
X166856710Y-109741880D01*
X166800493Y-109803230D01*
X166537826Y-110023633D01*
X166410670Y-110130330D01*
X166410667Y-110130331D01*
X166407895Y-110132658D01*
X166337716Y-110177368D01*
X166332103Y-110178871D01*
X166329946Y-110180205D01*
X166291396Y-110189779D01*
X166230788Y-110206019D01*
X166120508Y-110196370D01*
X166063752Y-110169905D01*
X166027340Y-110153733D01*
X166025440Y-110152040D01*
X166020180Y-110149587D01*
X165958830Y-110093370D01*
X165677611Y-109758226D01*
X165632901Y-109688046D01*
X165631399Y-109682440D01*
X165630061Y-109680275D01*
X165620461Y-109641621D01*
X165604250Y-109581119D01*
X165613899Y-109470838D01*
X165640363Y-109414084D01*
X165656536Y-109377670D01*
X165658229Y-109375770D01*
X165660682Y-109370510D01*
X165716899Y-109309160D01*
X165719673Y-109306832D01*
X165719676Y-109306829D01*
X166106721Y-108982059D01*
X166106731Y-108982052D01*
X166109497Y-108979732D01*
X166179676Y-108935022D01*
X166185283Y-108933519D01*
X166187445Y-108932184D01*
X166226059Y-108922593D01*
X166286604Y-108906371D01*
X166396884Y-108916020D01*
G37*
G36*
X169873569Y-107497413D02*
G01*
X169912232Y-107507015D01*
X169914398Y-107508353D01*
X169920002Y-107509855D01*
X169990182Y-107554565D01*
X170325326Y-107835784D01*
X170381543Y-107897134D01*
X170383997Y-107902396D01*
X170385688Y-107904294D01*
X170401848Y-107940678D01*
X170428326Y-107997462D01*
X170437975Y-108107742D01*
X170421739Y-108168334D01*
X170412162Y-108206898D01*
X170410827Y-108209057D01*
X170409324Y-108214670D01*
X170364614Y-108284849D01*
X170035186Y-108677447D01*
X169973836Y-108733664D01*
X169968573Y-108736118D01*
X169966676Y-108737809D01*
X169930313Y-108753958D01*
X169873508Y-108780447D01*
X169763227Y-108790096D01*
X169702694Y-108773876D01*
X169664069Y-108764284D01*
X169661904Y-108762946D01*
X169656300Y-108761445D01*
X169586120Y-108716735D01*
X169250976Y-108435516D01*
X169194759Y-108374166D01*
X169192305Y-108368903D01*
X169190613Y-108367005D01*
X169174442Y-108330595D01*
X169147976Y-108273838D01*
X169138327Y-108163558D01*
X169154545Y-108103029D01*
X169164139Y-108064401D01*
X169165475Y-108062238D01*
X169166978Y-108056630D01*
X169211688Y-107986451D01*
X169481369Y-107665057D01*
X169538789Y-107596626D01*
X169538789Y-107596625D01*
X169541116Y-107593853D01*
X169602466Y-107537636D01*
X169607724Y-107535184D01*
X169609625Y-107533490D01*
X169646053Y-107517311D01*
X169702794Y-107490853D01*
X169813075Y-107481204D01*
X169873569Y-107497413D01*
G37*
G36*
X168667049Y-106485023D02*
G01*
X168705712Y-106494625D01*
X168707878Y-106495963D01*
X168713482Y-106497465D01*
X168783662Y-106542175D01*
X169118806Y-106823394D01*
X169175023Y-106884744D01*
X169177477Y-106890006D01*
X169179168Y-106891904D01*
X169195328Y-106928288D01*
X169221806Y-106985072D01*
X169231455Y-107095352D01*
X169215219Y-107155944D01*
X169205642Y-107194508D01*
X169204307Y-107196667D01*
X169202804Y-107202280D01*
X169158094Y-107272459D01*
X168828666Y-107665057D01*
X168767316Y-107721274D01*
X168762053Y-107723728D01*
X168760156Y-107725419D01*
X168723793Y-107741568D01*
X168666988Y-107768057D01*
X168556707Y-107777706D01*
X168496174Y-107761486D01*
X168457549Y-107751894D01*
X168455384Y-107750556D01*
X168449780Y-107749055D01*
X168379600Y-107704345D01*
X168044456Y-107423126D01*
X167988239Y-107361776D01*
X167985785Y-107356513D01*
X167984093Y-107354615D01*
X167967922Y-107318205D01*
X167941456Y-107261448D01*
X167931807Y-107151168D01*
X167948025Y-107090639D01*
X167957619Y-107052011D01*
X167958955Y-107049848D01*
X167960458Y-107044240D01*
X168005168Y-106974061D01*
X168276843Y-106650291D01*
X168332269Y-106584236D01*
X168332269Y-106584235D01*
X168334596Y-106581463D01*
X168395946Y-106525246D01*
X168401204Y-106522794D01*
X168403105Y-106521100D01*
X168439533Y-106504921D01*
X168496274Y-106478463D01*
X168606555Y-106468814D01*
X168667049Y-106485023D01*
G37*
G36*
X154129323Y-105870021D02*
G01*
X154210624Y-105887747D01*
X154215659Y-105890631D01*
X154218137Y-105891207D01*
X154252329Y-105911632D01*
X154306685Y-105942762D01*
X154378139Y-106027316D01*
X154399785Y-106086148D01*
X154414204Y-106123222D01*
X154414358Y-106125758D01*
X154416363Y-106131206D01*
X154420283Y-106214325D01*
X154383674Y-106650291D01*
X154365948Y-106731591D01*
X154363061Y-106736631D01*
X154362486Y-106739106D01*
X154342078Y-106773268D01*
X154310932Y-106827653D01*
X154226379Y-106899106D01*
X154167492Y-106920772D01*
X154130471Y-106935171D01*
X154127938Y-106935325D01*
X154122488Y-106937331D01*
X154039369Y-106941250D01*
X153528667Y-106898365D01*
X153447366Y-106880639D01*
X153442328Y-106877753D01*
X153439852Y-106877178D01*
X153405677Y-106856763D01*
X153351305Y-106825624D01*
X153279851Y-106741070D01*
X153258215Y-106682266D01*
X153243785Y-106645163D01*
X153243630Y-106642624D01*
X153241627Y-106637180D01*
X153237707Y-106554061D01*
X153260347Y-106284447D01*
X153274012Y-106121705D01*
X153274013Y-106121699D01*
X153274316Y-106118095D01*
X153292042Y-106036795D01*
X153294926Y-106031758D01*
X153295503Y-106029279D01*
X153315948Y-105995053D01*
X153347058Y-105940733D01*
X153431611Y-105869280D01*
X153490431Y-105847637D01*
X153527518Y-105833214D01*
X153530054Y-105833059D01*
X153535502Y-105831055D01*
X153618621Y-105827136D01*
X154129323Y-105870021D01*
G37*
G36*
X157206127Y-105255490D02*
G01*
X157208665Y-105255326D01*
X157247297Y-105264995D01*
X157308336Y-105279088D01*
X157401178Y-105339380D01*
X157438878Y-105389409D01*
X157463423Y-105420766D01*
X157464305Y-105423152D01*
X157467799Y-105427789D01*
X157495575Y-105506227D01*
X157586537Y-105934167D01*
X157593065Y-106017121D01*
X157591759Y-106022775D01*
X157591924Y-106025313D01*
X157582264Y-106063903D01*
X157568163Y-106124983D01*
X157507871Y-106217826D01*
X157457814Y-106255546D01*
X157426484Y-106280071D01*
X157424099Y-106280952D01*
X157419462Y-106284447D01*
X157341024Y-106312223D01*
X156839723Y-106418778D01*
X156756769Y-106425307D01*
X156751110Y-106424000D01*
X156748576Y-106424165D01*
X156709983Y-106414505D01*
X156648906Y-106400404D01*
X156556064Y-106340112D01*
X156518369Y-106290089D01*
X156493818Y-106258725D01*
X156492935Y-106256337D01*
X156489443Y-106251703D01*
X156461667Y-106173265D01*
X156460913Y-106169720D01*
X156460912Y-106169716D01*
X156371458Y-105748871D01*
X156371457Y-105748866D01*
X156370705Y-105745325D01*
X156364177Y-105662371D01*
X156365481Y-105656719D01*
X156365317Y-105654178D01*
X156374992Y-105615523D01*
X156389079Y-105554509D01*
X156449371Y-105461666D01*
X156499366Y-105423991D01*
X156530757Y-105399420D01*
X156533146Y-105398536D01*
X156537780Y-105395045D01*
X156616218Y-105367269D01*
X156619760Y-105366515D01*
X156619766Y-105366514D01*
X157113972Y-105261467D01*
X157113978Y-105261466D01*
X157117519Y-105260714D01*
X157200473Y-105254185D01*
X157206127Y-105255490D01*
G37*
G36*
X171740177Y-104479832D02*
G01*
X171779919Y-104482575D01*
X171782282Y-104483516D01*
X171788066Y-104484022D01*
X171864943Y-104515865D01*
X171944383Y-104561730D01*
X172240692Y-104732803D01*
X172240696Y-104732806D01*
X172243829Y-104734615D01*
X172309845Y-104785271D01*
X172313174Y-104790026D01*
X172315168Y-104791600D01*
X172337376Y-104824590D01*
X172373339Y-104875951D01*
X172401991Y-104982881D01*
X172396527Y-105045325D01*
X172393789Y-105085012D01*
X172392849Y-105087372D01*
X172392343Y-105093159D01*
X172360500Y-105170036D01*
X172104250Y-105613874D01*
X172053594Y-105679890D01*
X172048836Y-105683221D01*
X172047264Y-105685213D01*
X172014299Y-105707403D01*
X171962914Y-105743384D01*
X171855984Y-105772036D01*
X171793543Y-105766573D01*
X171753852Y-105763834D01*
X171751491Y-105762894D01*
X171745706Y-105762388D01*
X171668829Y-105730545D01*
X171359741Y-105552093D01*
X171293079Y-105513606D01*
X171293076Y-105513604D01*
X171289943Y-105511795D01*
X171223927Y-105461139D01*
X171220597Y-105456383D01*
X171218603Y-105454809D01*
X171196387Y-105421807D01*
X171160433Y-105370459D01*
X171131781Y-105263529D01*
X171137239Y-105201142D01*
X171139982Y-105161397D01*
X171140923Y-105159033D01*
X171141429Y-105153251D01*
X171173272Y-105076374D01*
X171226266Y-104984585D01*
X171427710Y-104635672D01*
X171427715Y-104635665D01*
X171429522Y-104632536D01*
X171480178Y-104566520D01*
X171484931Y-104563191D01*
X171486507Y-104561196D01*
X171519534Y-104538962D01*
X171570858Y-104503026D01*
X171677788Y-104474374D01*
X171740177Y-104479832D01*
G37*
G36*
X154261115Y-104300545D02*
G01*
X154342416Y-104318271D01*
X154347451Y-104321155D01*
X154349929Y-104321731D01*
X154384121Y-104342156D01*
X154438477Y-104373286D01*
X154509931Y-104457840D01*
X154531577Y-104516672D01*
X154545996Y-104553746D01*
X154546150Y-104556282D01*
X154548155Y-104561730D01*
X154552075Y-104644849D01*
X154515466Y-105080815D01*
X154497740Y-105162115D01*
X154494853Y-105167155D01*
X154494278Y-105169630D01*
X154473870Y-105203792D01*
X154442724Y-105258177D01*
X154358171Y-105329630D01*
X154299284Y-105351296D01*
X154262263Y-105365695D01*
X154259730Y-105365849D01*
X154254280Y-105367855D01*
X154171161Y-105371774D01*
X153660459Y-105328889D01*
X153579158Y-105311163D01*
X153574120Y-105308277D01*
X153571644Y-105307702D01*
X153537469Y-105287287D01*
X153483097Y-105256148D01*
X153411643Y-105171594D01*
X153390007Y-105112790D01*
X153375577Y-105075687D01*
X153375422Y-105073148D01*
X153373419Y-105067704D01*
X153369499Y-104984585D01*
X153390101Y-104739232D01*
X153405804Y-104552229D01*
X153405805Y-104552223D01*
X153406108Y-104548619D01*
X153423834Y-104467319D01*
X153426718Y-104462282D01*
X153427295Y-104459803D01*
X153447740Y-104425577D01*
X153478850Y-104371257D01*
X153563403Y-104299804D01*
X153622223Y-104278161D01*
X153659310Y-104263738D01*
X153661846Y-104263583D01*
X153667294Y-104261579D01*
X153750413Y-104257660D01*
X154261115Y-104300545D01*
G37*
G36*
X160074172Y-103878405D02*
G01*
X160124731Y-103915407D01*
X160157286Y-103938328D01*
X160158819Y-103940356D01*
X160163503Y-103943784D01*
X160212765Y-104010847D01*
X160423532Y-104394231D01*
X160453759Y-104471757D01*
X160454143Y-104477552D01*
X160455033Y-104479929D01*
X160456938Y-104519629D01*
X160461095Y-104582214D01*
X160430210Y-104688520D01*
X160393153Y-104739151D01*
X160370286Y-104771631D01*
X160368262Y-104773160D01*
X160364830Y-104777851D01*
X160297768Y-104827112D01*
X159848661Y-105074011D01*
X159771134Y-105104238D01*
X159765341Y-105104622D01*
X159762962Y-105105513D01*
X159723229Y-105107419D01*
X159660678Y-105111574D01*
X159554372Y-105080689D01*
X159503802Y-105043678D01*
X159471257Y-105020765D01*
X159469724Y-105018737D01*
X159465041Y-105015310D01*
X159415779Y-104948247D01*
X159205012Y-104564863D01*
X159174785Y-104487337D01*
X159174400Y-104481543D01*
X159173510Y-104479164D01*
X159171602Y-104439413D01*
X159167449Y-104376880D01*
X159198334Y-104270574D01*
X159235345Y-104220003D01*
X159258257Y-104187462D01*
X159260283Y-104185929D01*
X159263714Y-104181243D01*
X159330776Y-104131982D01*
X159333951Y-104130236D01*
X159333957Y-104130232D01*
X159776706Y-103886828D01*
X159776714Y-103886824D01*
X159779883Y-103885083D01*
X159857410Y-103854856D01*
X159863197Y-103854471D01*
X159865581Y-103853580D01*
X159905371Y-103851670D01*
X159967866Y-103847520D01*
X160074172Y-103878405D01*
G37*
G36*
X170376187Y-103692332D02*
G01*
X170415929Y-103695075D01*
X170418292Y-103696016D01*
X170424076Y-103696522D01*
X170500953Y-103728365D01*
X170588690Y-103779020D01*
X170876702Y-103945303D01*
X170876706Y-103945306D01*
X170879839Y-103947115D01*
X170945855Y-103997771D01*
X170949184Y-104002526D01*
X170951178Y-104004100D01*
X170973386Y-104037090D01*
X171009349Y-104088451D01*
X171038001Y-104195381D01*
X171032537Y-104257825D01*
X171029799Y-104297512D01*
X171028859Y-104299872D01*
X171028353Y-104305659D01*
X170996510Y-104382536D01*
X170740260Y-104826374D01*
X170689604Y-104892390D01*
X170684846Y-104895721D01*
X170683274Y-104897713D01*
X170650309Y-104919903D01*
X170598924Y-104955884D01*
X170491994Y-104984536D01*
X170429553Y-104979073D01*
X170389862Y-104976334D01*
X170387501Y-104975394D01*
X170381716Y-104974888D01*
X170304839Y-104943045D01*
X170018715Y-104777851D01*
X169929089Y-104726106D01*
X169929086Y-104726104D01*
X169925953Y-104724295D01*
X169859937Y-104673639D01*
X169856607Y-104668883D01*
X169854613Y-104667309D01*
X169832397Y-104634307D01*
X169796443Y-104582959D01*
X169767791Y-104476029D01*
X169773249Y-104413642D01*
X169775992Y-104373897D01*
X169776933Y-104371533D01*
X169777439Y-104365751D01*
X169809282Y-104288874D01*
X169818154Y-104273507D01*
X170063720Y-103848172D01*
X170063725Y-103848165D01*
X170065532Y-103845036D01*
X170116188Y-103779020D01*
X170120941Y-103775691D01*
X170122517Y-103773696D01*
X170155544Y-103751462D01*
X170206868Y-103715526D01*
X170313798Y-103686874D01*
X170376187Y-103692332D01*
G37*
G36*
X156878667Y-103714908D02*
G01*
X156881205Y-103714744D01*
X156919837Y-103724413D01*
X156980876Y-103738506D01*
X157073718Y-103798798D01*
X157111418Y-103848827D01*
X157135963Y-103880184D01*
X157136845Y-103882570D01*
X157140339Y-103887207D01*
X157168115Y-103965645D01*
X157259077Y-104393585D01*
X157265605Y-104476539D01*
X157264299Y-104482193D01*
X157264464Y-104484731D01*
X157254804Y-104523321D01*
X157240703Y-104584401D01*
X157180411Y-104677244D01*
X157130354Y-104714964D01*
X157099024Y-104739489D01*
X157096639Y-104740370D01*
X157092002Y-104743865D01*
X157013564Y-104771641D01*
X156512263Y-104878196D01*
X156429309Y-104884725D01*
X156423650Y-104883418D01*
X156421116Y-104883583D01*
X156382523Y-104873923D01*
X156321446Y-104859822D01*
X156228604Y-104799530D01*
X156190909Y-104749507D01*
X156166358Y-104718143D01*
X156165475Y-104715755D01*
X156161983Y-104711121D01*
X156134207Y-104632683D01*
X156133453Y-104629138D01*
X156133452Y-104629134D01*
X156043998Y-104208289D01*
X156043997Y-104208284D01*
X156043245Y-104204743D01*
X156036717Y-104121789D01*
X156038021Y-104116137D01*
X156037857Y-104113596D01*
X156047532Y-104074941D01*
X156061619Y-104013927D01*
X156121911Y-103921084D01*
X156171906Y-103883409D01*
X156203297Y-103858838D01*
X156205686Y-103857954D01*
X156210320Y-103854463D01*
X156288758Y-103826687D01*
X156292300Y-103825933D01*
X156292306Y-103825932D01*
X156786512Y-103720885D01*
X156786518Y-103720884D01*
X156790059Y-103720132D01*
X156873013Y-103713603D01*
X156878667Y-103714908D01*
G37*
G36*
X159315410Y-102498221D02*
G01*
X159365969Y-102535223D01*
X159398524Y-102558144D01*
X159400057Y-102560172D01*
X159404741Y-102563600D01*
X159454003Y-102630663D01*
X159664770Y-103014047D01*
X159694997Y-103091573D01*
X159695381Y-103097368D01*
X159696271Y-103099745D01*
X159698176Y-103139445D01*
X159702333Y-103202030D01*
X159671448Y-103308336D01*
X159634391Y-103358967D01*
X159611524Y-103391447D01*
X159609500Y-103392976D01*
X159606068Y-103397667D01*
X159539006Y-103446928D01*
X159186753Y-103640581D01*
X159100808Y-103687830D01*
X159089899Y-103693827D01*
X159012372Y-103724054D01*
X159006579Y-103724438D01*
X159004200Y-103725329D01*
X158964467Y-103727235D01*
X158901916Y-103731390D01*
X158795610Y-103700505D01*
X158745040Y-103663494D01*
X158712495Y-103640581D01*
X158710962Y-103638553D01*
X158706279Y-103635126D01*
X158657017Y-103568063D01*
X158446250Y-103184679D01*
X158416023Y-103107153D01*
X158415638Y-103101359D01*
X158414748Y-103098980D01*
X158412840Y-103059229D01*
X158408687Y-102996696D01*
X158439572Y-102890390D01*
X158476583Y-102839819D01*
X158499495Y-102807278D01*
X158501521Y-102805745D01*
X158504952Y-102801059D01*
X158572014Y-102751798D01*
X158575189Y-102750052D01*
X158575195Y-102750048D01*
X159017944Y-102506644D01*
X159017952Y-102506640D01*
X159021121Y-102504899D01*
X159098648Y-102474672D01*
X159104435Y-102474287D01*
X159106819Y-102473396D01*
X159146609Y-102471486D01*
X159209104Y-102467336D01*
X159315410Y-102498221D01*
G37*
G36*
X162281685Y-101750643D02*
G01*
X162319479Y-101763177D01*
X162321534Y-101764676D01*
X162327011Y-101766605D01*
X162393554Y-101816567D01*
X162484630Y-101905756D01*
X162703547Y-102120135D01*
X162703548Y-102120137D01*
X162706135Y-102122670D01*
X162757480Y-102188151D01*
X162759521Y-102193583D01*
X162761064Y-102195607D01*
X162774392Y-102233147D01*
X162796428Y-102291773D01*
X162797587Y-102402468D01*
X162776770Y-102461580D01*
X162764244Y-102499351D01*
X162762746Y-102501403D01*
X162760817Y-102506883D01*
X162710856Y-102573425D01*
X162352278Y-102939593D01*
X162286797Y-102990937D01*
X162281362Y-102992979D01*
X162279340Y-102994521D01*
X162241817Y-103007843D01*
X162183175Y-103029885D01*
X162072479Y-103031045D01*
X162013357Y-103010225D01*
X161975596Y-102997702D01*
X161973542Y-102996203D01*
X161968065Y-102994275D01*
X161901522Y-102944313D01*
X161673347Y-102720867D01*
X161591528Y-102640744D01*
X161591526Y-102640741D01*
X161588941Y-102638210D01*
X161537596Y-102572729D01*
X161535554Y-102567297D01*
X161534011Y-102565272D01*
X161520671Y-102527701D01*
X161498648Y-102469107D01*
X161497489Y-102358412D01*
X161518282Y-102299364D01*
X161530831Y-102261528D01*
X161532331Y-102259471D01*
X161534259Y-102253997D01*
X161584220Y-102187455D01*
X161647662Y-102122670D01*
X161940263Y-101823875D01*
X161940265Y-101823873D01*
X161942798Y-101821287D01*
X162008279Y-101769943D01*
X162013708Y-101767902D01*
X162015735Y-101766358D01*
X162053323Y-101753012D01*
X162111901Y-101730995D01*
X162222597Y-101729835D01*
X162281685Y-101750643D01*
G37*
G36*
X137174007Y-101720529D02*
G01*
X137179338Y-101723015D01*
X137181952Y-101723396D01*
X137219092Y-101741552D01*
X137276303Y-101768231D01*
X137356115Y-101848043D01*
X137382803Y-101905276D01*
X137400949Y-101942393D01*
X137401329Y-101945004D01*
X137403817Y-101950339D01*
X137414891Y-102034455D01*
X137414891Y-102534455D01*
X137403817Y-102618571D01*
X137401329Y-102623905D01*
X137400949Y-102626516D01*
X137382813Y-102663612D01*
X137356115Y-102720867D01*
X137276303Y-102800679D01*
X137219048Y-102827377D01*
X137181952Y-102845513D01*
X137179341Y-102845893D01*
X137174007Y-102848381D01*
X137089891Y-102859455D01*
X136639891Y-102859455D01*
X136555775Y-102848381D01*
X136550440Y-102845893D01*
X136547829Y-102845513D01*
X136510712Y-102827367D01*
X136453479Y-102800679D01*
X136373667Y-102720867D01*
X136346988Y-102663656D01*
X136328832Y-102626516D01*
X136328451Y-102623902D01*
X136325965Y-102618571D01*
X136314891Y-102534455D01*
X136314891Y-102034455D01*
X136325965Y-101950339D01*
X136328451Y-101945007D01*
X136328832Y-101942393D01*
X136346999Y-101905231D01*
X136373667Y-101848043D01*
X136453479Y-101768231D01*
X136510667Y-101741563D01*
X136547829Y-101723396D01*
X136550443Y-101723015D01*
X136555775Y-101720529D01*
X136639891Y-101709455D01*
X137089891Y-101709455D01*
X137174007Y-101720529D01*
G37*
G36*
X138724007Y-101720529D02*
G01*
X138729338Y-101723015D01*
X138731952Y-101723396D01*
X138769092Y-101741552D01*
X138826303Y-101768231D01*
X138906115Y-101848043D01*
X138932803Y-101905276D01*
X138950949Y-101942393D01*
X138951329Y-101945004D01*
X138953817Y-101950339D01*
X138964891Y-102034455D01*
X138964891Y-102534455D01*
X138953817Y-102618571D01*
X138951329Y-102623905D01*
X138950949Y-102626516D01*
X138932813Y-102663612D01*
X138906115Y-102720867D01*
X138826303Y-102800679D01*
X138769048Y-102827377D01*
X138731952Y-102845513D01*
X138729341Y-102845893D01*
X138724007Y-102848381D01*
X138639891Y-102859455D01*
X138189891Y-102859455D01*
X138105775Y-102848381D01*
X138100440Y-102845893D01*
X138097829Y-102845513D01*
X138060712Y-102827367D01*
X138003479Y-102800679D01*
X137923667Y-102720867D01*
X137896988Y-102663656D01*
X137878832Y-102626516D01*
X137878451Y-102623902D01*
X137875965Y-102618571D01*
X137864891Y-102534455D01*
X137864891Y-102034455D01*
X137875965Y-101950339D01*
X137878451Y-101945007D01*
X137878832Y-101942393D01*
X137896999Y-101905231D01*
X137923667Y-101848043D01*
X138003479Y-101768231D01*
X138060667Y-101741563D01*
X138097829Y-101723396D01*
X138100443Y-101723015D01*
X138105775Y-101720529D01*
X138189891Y-101709455D01*
X138639891Y-101709455D01*
X138724007Y-101720529D01*
G37*
G36*
X173078986Y-101216151D02*
G01*
X173084764Y-101215646D01*
X173166003Y-101233656D01*
X173349649Y-101300498D01*
X173469197Y-101344010D01*
X173577118Y-101383290D01*
X173650927Y-101421712D01*
X173655032Y-101425817D01*
X173657269Y-101427021D01*
X173684873Y-101455658D01*
X173729204Y-101499989D01*
X173775988Y-101600319D01*
X173781449Y-101662734D01*
X173785647Y-101702323D01*
X173785130Y-101704812D01*
X173785637Y-101710597D01*
X173767626Y-101791836D01*
X173592341Y-102273428D01*
X173553919Y-102347237D01*
X173549812Y-102351343D01*
X173548608Y-102353581D01*
X173519979Y-102381175D01*
X173475642Y-102425513D01*
X173375312Y-102472298D01*
X173312923Y-102477756D01*
X173273307Y-102481957D01*
X173270814Y-102481440D01*
X173265034Y-102481946D01*
X173183795Y-102463936D01*
X172772680Y-102314302D01*
X172698871Y-102275880D01*
X172694764Y-102271773D01*
X172692528Y-102270570D01*
X172664923Y-102241932D01*
X172620594Y-102197603D01*
X172573810Y-102097273D01*
X172568353Y-102034905D01*
X172564150Y-101995268D01*
X172564666Y-101992775D01*
X172564161Y-101986995D01*
X172582172Y-101905756D01*
X172646202Y-101729835D01*
X172756219Y-101427564D01*
X172756220Y-101427561D01*
X172757457Y-101424164D01*
X172795879Y-101350355D01*
X172799982Y-101346251D01*
X172801189Y-101344010D01*
X172829872Y-101316361D01*
X172874156Y-101272079D01*
X172974486Y-101225294D01*
X173036815Y-101219840D01*
X173076490Y-101215634D01*
X173078986Y-101216151D01*
G37*
G36*
X171598970Y-100677469D02*
G01*
X171604748Y-100676964D01*
X171685987Y-100694974D01*
X171791553Y-100733397D01*
X171989181Y-100805328D01*
X172097102Y-100844608D01*
X172170911Y-100883030D01*
X172175016Y-100887135D01*
X172177253Y-100888339D01*
X172204857Y-100916976D01*
X172249188Y-100961307D01*
X172295972Y-101061637D01*
X172301433Y-101124052D01*
X172305631Y-101163641D01*
X172305114Y-101166130D01*
X172305621Y-101171915D01*
X172287610Y-101253154D01*
X172112325Y-101734746D01*
X172073903Y-101808555D01*
X172069796Y-101812661D01*
X172068592Y-101814899D01*
X172039963Y-101842493D01*
X171995626Y-101886831D01*
X171895296Y-101933616D01*
X171832907Y-101939074D01*
X171793291Y-101943275D01*
X171790798Y-101942758D01*
X171785018Y-101943264D01*
X171703779Y-101925254D01*
X171292664Y-101775620D01*
X171218855Y-101737198D01*
X171214748Y-101733091D01*
X171212512Y-101731888D01*
X171184907Y-101703250D01*
X171140578Y-101658921D01*
X171093794Y-101558591D01*
X171088337Y-101496223D01*
X171084134Y-101456586D01*
X171084650Y-101454093D01*
X171084145Y-101448313D01*
X171102156Y-101367074D01*
X171176199Y-101163641D01*
X171276203Y-100888882D01*
X171276204Y-100888879D01*
X171277441Y-100885482D01*
X171315863Y-100811673D01*
X171319966Y-100807569D01*
X171321173Y-100805328D01*
X171349856Y-100777679D01*
X171394140Y-100733397D01*
X171494470Y-100686612D01*
X171556799Y-100681158D01*
X171596474Y-100676952D01*
X171598970Y-100677469D01*
G37*
G36*
X161156391Y-100648673D02*
G01*
X161194185Y-100661207D01*
X161196240Y-100662706D01*
X161201717Y-100664635D01*
X161268260Y-100714597D01*
X161360911Y-100805328D01*
X161578253Y-101018165D01*
X161578254Y-101018167D01*
X161580841Y-101020700D01*
X161632186Y-101086181D01*
X161634227Y-101091613D01*
X161635770Y-101093637D01*
X161649098Y-101131177D01*
X161671134Y-101189803D01*
X161672293Y-101300498D01*
X161651476Y-101359610D01*
X161638950Y-101397381D01*
X161637452Y-101399433D01*
X161635523Y-101404913D01*
X161585562Y-101471455D01*
X161226984Y-101837623D01*
X161161503Y-101888967D01*
X161156068Y-101891009D01*
X161154046Y-101892551D01*
X161116523Y-101905873D01*
X161057881Y-101927915D01*
X160947185Y-101929075D01*
X160888063Y-101908255D01*
X160850302Y-101895732D01*
X160848248Y-101894233D01*
X160842771Y-101892305D01*
X160776228Y-101842343D01*
X160526387Y-101597680D01*
X160466234Y-101538774D01*
X160466232Y-101538771D01*
X160463647Y-101536240D01*
X160412302Y-101470759D01*
X160410260Y-101465327D01*
X160408717Y-101463302D01*
X160395377Y-101425731D01*
X160373354Y-101367137D01*
X160372195Y-101256442D01*
X160392988Y-101197394D01*
X160405537Y-101159558D01*
X160407037Y-101157501D01*
X160408965Y-101152027D01*
X160458926Y-101085485D01*
X160461463Y-101082894D01*
X160814969Y-100721905D01*
X160814971Y-100721903D01*
X160817504Y-100719317D01*
X160882985Y-100667973D01*
X160888414Y-100665932D01*
X160890441Y-100664388D01*
X160928029Y-100651042D01*
X160986607Y-100629025D01*
X161097303Y-100627865D01*
X161156391Y-100648673D01*
G37*
G36*
X154133640Y-99660316D02*
G01*
X154138901Y-99662769D01*
X154141418Y-99663136D01*
X154177193Y-99680625D01*
X154233968Y-99707100D01*
X154312246Y-99785378D01*
X154338731Y-99842175D01*
X154356209Y-99877927D01*
X154356575Y-99880442D01*
X154359030Y-99885706D01*
X154369891Y-99968205D01*
X154369891Y-100405705D01*
X154359030Y-100488204D01*
X154356575Y-100493468D01*
X154356209Y-100495982D01*
X154338741Y-100531713D01*
X154312246Y-100588532D01*
X154233968Y-100666810D01*
X154177149Y-100693305D01*
X154141418Y-100710773D01*
X154138904Y-100711139D01*
X154133640Y-100713594D01*
X154051141Y-100724455D01*
X153538641Y-100724455D01*
X153456142Y-100713594D01*
X153450878Y-100711139D01*
X153448363Y-100710773D01*
X153412611Y-100693295D01*
X153355814Y-100666810D01*
X153277536Y-100588532D01*
X153251061Y-100531757D01*
X153233572Y-100495982D01*
X153233205Y-100493465D01*
X153230752Y-100488204D01*
X153219891Y-100405705D01*
X153219891Y-99968205D01*
X153230752Y-99885706D01*
X153233205Y-99880445D01*
X153233572Y-99877927D01*
X153251071Y-99842130D01*
X153277536Y-99785378D01*
X153355814Y-99707100D01*
X153412566Y-99680635D01*
X153448363Y-99663136D01*
X153450881Y-99662769D01*
X153456142Y-99660316D01*
X153538641Y-99649455D01*
X154051141Y-99649455D01*
X154133640Y-99660316D01*
G37*
G36*
X163719144Y-99142610D02*
G01*
X163758973Y-99143687D01*
X163761375Y-99144528D01*
X163767171Y-99144792D01*
X163845314Y-99173388D01*
X163937164Y-99221406D01*
X164229812Y-99374398D01*
X164229815Y-99374400D01*
X164233028Y-99376080D01*
X164301107Y-99423926D01*
X164304634Y-99428540D01*
X164306695Y-99430031D01*
X164330292Y-99462099D01*
X164368343Y-99511868D01*
X164401448Y-99617504D01*
X164398604Y-99680117D01*
X164397530Y-99719891D01*
X164396689Y-99722289D01*
X164396426Y-99728090D01*
X164367830Y-99806233D01*
X164130391Y-100260412D01*
X164082544Y-100328491D01*
X164077929Y-100332019D01*
X164076439Y-100334079D01*
X164044397Y-100357656D01*
X163994603Y-100395728D01*
X163888966Y-100428832D01*
X163826354Y-100425988D01*
X163786578Y-100424914D01*
X163784178Y-100424073D01*
X163778381Y-100423810D01*
X163700238Y-100395214D01*
X163312524Y-100192522D01*
X163244445Y-100144676D01*
X163240916Y-100140061D01*
X163238856Y-100138570D01*
X163215252Y-100106493D01*
X163177209Y-100056734D01*
X163144104Y-99951098D01*
X163146944Y-99888539D01*
X163148021Y-99848710D01*
X163148862Y-99846307D01*
X163149126Y-99840512D01*
X163177722Y-99762369D01*
X163179402Y-99759155D01*
X163413479Y-99311405D01*
X163413483Y-99311398D01*
X163415161Y-99308190D01*
X163463008Y-99240111D01*
X163467618Y-99236585D01*
X163469112Y-99234522D01*
X163501215Y-99210899D01*
X163550949Y-99172874D01*
X163656586Y-99139770D01*
X163719144Y-99142610D01*
G37*
G36*
X162323374Y-98412918D02*
G01*
X162363203Y-98413995D01*
X162365605Y-98414836D01*
X162371401Y-98415100D01*
X162449544Y-98443696D01*
X162547544Y-98494929D01*
X162834042Y-98644706D01*
X162834045Y-98644708D01*
X162837258Y-98646388D01*
X162905337Y-98694234D01*
X162908864Y-98698848D01*
X162910925Y-98700339D01*
X162934522Y-98732407D01*
X162972573Y-98782176D01*
X163005678Y-98887812D01*
X163002834Y-98950425D01*
X163001760Y-98990199D01*
X163000919Y-98992597D01*
X163000656Y-98998398D01*
X162972060Y-99076541D01*
X162734621Y-99530720D01*
X162686774Y-99598799D01*
X162682159Y-99602327D01*
X162680669Y-99604387D01*
X162648627Y-99627964D01*
X162598833Y-99666036D01*
X162493196Y-99699140D01*
X162430584Y-99696296D01*
X162390808Y-99695222D01*
X162388408Y-99694381D01*
X162382611Y-99694118D01*
X162304468Y-99665522D01*
X161916754Y-99462830D01*
X161848675Y-99414984D01*
X161845146Y-99410369D01*
X161843086Y-99408878D01*
X161819482Y-99376801D01*
X161781439Y-99327042D01*
X161748334Y-99221406D01*
X161751174Y-99158847D01*
X161752251Y-99119018D01*
X161753092Y-99116615D01*
X161753356Y-99110820D01*
X161781952Y-99032677D01*
X161790922Y-99015519D01*
X162017709Y-98581713D01*
X162017713Y-98581706D01*
X162019391Y-98578498D01*
X162067238Y-98510419D01*
X162071848Y-98506893D01*
X162073342Y-98504830D01*
X162105445Y-98481207D01*
X162155179Y-98443182D01*
X162260816Y-98410078D01*
X162323374Y-98412918D01*
G37*
G36*
X157272494Y-98087952D02*
G01*
X157310136Y-98100875D01*
X157312173Y-98102394D01*
X157317629Y-98104380D01*
X157383645Y-98155036D01*
X157693004Y-98464395D01*
X157743660Y-98530411D01*
X157745646Y-98535868D01*
X157747165Y-98537905D01*
X157760083Y-98575534D01*
X157781521Y-98634435D01*
X157781521Y-98745136D01*
X157760073Y-98804062D01*
X157747164Y-98841667D01*
X157745646Y-98843702D01*
X157743660Y-98849160D01*
X157693004Y-98915176D01*
X157330612Y-99277568D01*
X157264596Y-99328224D01*
X157259136Y-99330210D01*
X157257101Y-99331729D01*
X157219482Y-99344643D01*
X157160572Y-99366085D01*
X157049871Y-99366085D01*
X156990961Y-99344644D01*
X156953339Y-99331728D01*
X156951302Y-99330209D01*
X156945847Y-99328224D01*
X156879831Y-99277568D01*
X156570472Y-98968209D01*
X156519816Y-98902193D01*
X156517830Y-98896736D01*
X156516310Y-98894698D01*
X156503387Y-98857055D01*
X156481955Y-98798169D01*
X156481955Y-98687468D01*
X156503385Y-98628588D01*
X156516311Y-98590936D01*
X156517831Y-98588897D01*
X156519816Y-98583444D01*
X156570472Y-98517428D01*
X156932864Y-98155036D01*
X156998880Y-98104380D01*
X157004334Y-98102394D01*
X157006374Y-98100874D01*
X157044033Y-98087945D01*
X157102904Y-98066519D01*
X157213605Y-98066519D01*
X157272494Y-98087952D01*
G37*
G36*
X154133640Y-98085316D02*
G01*
X154138901Y-98087769D01*
X154141418Y-98088136D01*
X154177193Y-98105625D01*
X154233968Y-98132100D01*
X154312246Y-98210378D01*
X154338731Y-98267175D01*
X154356209Y-98302927D01*
X154356575Y-98305442D01*
X154359030Y-98310706D01*
X154369891Y-98393205D01*
X154369891Y-98830705D01*
X154359030Y-98913204D01*
X154356575Y-98918468D01*
X154356209Y-98920982D01*
X154338741Y-98956713D01*
X154312246Y-99013532D01*
X154233968Y-99091810D01*
X154177149Y-99118305D01*
X154141418Y-99135773D01*
X154138904Y-99136139D01*
X154133640Y-99138594D01*
X154051141Y-99149455D01*
X153538641Y-99149455D01*
X153456142Y-99138594D01*
X153450878Y-99136139D01*
X153448363Y-99135773D01*
X153412611Y-99118295D01*
X153355814Y-99091810D01*
X153277536Y-99013532D01*
X153251061Y-98956757D01*
X153233572Y-98920982D01*
X153233205Y-98918465D01*
X153230752Y-98913204D01*
X153219891Y-98830705D01*
X153219891Y-98393205D01*
X153230752Y-98310706D01*
X153233205Y-98305445D01*
X153233572Y-98302927D01*
X153251071Y-98267130D01*
X153277536Y-98210378D01*
X153355814Y-98132100D01*
X153412566Y-98105635D01*
X153448363Y-98088136D01*
X153450881Y-98087769D01*
X153456142Y-98085316D01*
X153538641Y-98074455D01*
X154051141Y-98074455D01*
X154133640Y-98085316D01*
G37*
G36*
X132201547Y-91000805D02*
G01*
X132252908Y-91006764D01*
X132270454Y-91014511D01*
X132293171Y-91019030D01*
X132317491Y-91035280D01*
X132338293Y-91044465D01*
X132352500Y-91058672D01*
X132374277Y-91073223D01*
X132388827Y-91094999D01*
X132403034Y-91109206D01*
X132412218Y-91130006D01*
X132428470Y-91154329D01*
X132432989Y-91177048D01*
X132440735Y-91194591D01*
X132446692Y-91245940D01*
X132447500Y-91250000D01*
X132447500Y-91550000D01*
X132446692Y-91554059D01*
X132440735Y-91605408D01*
X132432989Y-91622950D01*
X132428470Y-91645671D01*
X132412216Y-91669995D01*
X132403034Y-91690793D01*
X132388829Y-91704997D01*
X132374277Y-91726777D01*
X132352497Y-91741329D01*
X132338292Y-91755535D01*
X132317494Y-91764717D01*
X132311374Y-91768807D01*
X132311374Y-91831192D01*
X132317493Y-91835281D01*
X132338292Y-91844464D01*
X132352500Y-91858672D01*
X132374277Y-91873223D01*
X132388827Y-91894999D01*
X132403034Y-91909206D01*
X132412218Y-91930006D01*
X132428470Y-91954329D01*
X132432989Y-91977048D01*
X132440735Y-91994591D01*
X132446692Y-92045940D01*
X132447500Y-92050000D01*
X132447500Y-92350000D01*
X132446692Y-92354059D01*
X132440735Y-92405408D01*
X132432989Y-92422950D01*
X132428470Y-92445671D01*
X132412216Y-92469995D01*
X132403034Y-92490793D01*
X132388829Y-92504997D01*
X132374277Y-92526777D01*
X132352497Y-92541329D01*
X132338292Y-92555535D01*
X132317494Y-92564717D01*
X132311374Y-92568807D01*
X132311374Y-92631192D01*
X132317493Y-92635281D01*
X132338292Y-92644464D01*
X132352500Y-92658672D01*
X132374277Y-92673223D01*
X132388827Y-92694999D01*
X132403034Y-92709206D01*
X132412218Y-92730006D01*
X132428470Y-92754329D01*
X132432989Y-92777048D01*
X132440735Y-92794591D01*
X132446692Y-92845940D01*
X132447500Y-92850000D01*
X132447500Y-93150000D01*
X132446692Y-93154059D01*
X132440735Y-93205408D01*
X132432989Y-93222950D01*
X132428470Y-93245671D01*
X132412216Y-93269995D01*
X132403034Y-93290793D01*
X132388829Y-93304997D01*
X132374277Y-93326777D01*
X132352497Y-93341329D01*
X132338292Y-93355535D01*
X132317494Y-93364717D01*
X132311374Y-93368807D01*
X132311374Y-93431192D01*
X132317493Y-93435281D01*
X132338292Y-93444464D01*
X132352500Y-93458672D01*
X132374277Y-93473223D01*
X132388827Y-93494999D01*
X132403034Y-93509206D01*
X132412218Y-93530006D01*
X132428470Y-93554329D01*
X132432989Y-93577048D01*
X132440735Y-93594591D01*
X132446692Y-93645940D01*
X132447500Y-93650000D01*
X132447500Y-93950000D01*
X132446692Y-93954059D01*
X132440735Y-94005408D01*
X132432989Y-94022950D01*
X132428470Y-94045671D01*
X132412216Y-94069995D01*
X132403034Y-94090793D01*
X132388829Y-94104997D01*
X132374277Y-94126777D01*
X132352497Y-94141329D01*
X132338292Y-94155535D01*
X132317494Y-94164717D01*
X132311374Y-94168807D01*
X132311374Y-94231192D01*
X132317493Y-94235281D01*
X132338292Y-94244464D01*
X132352500Y-94258672D01*
X132374277Y-94273223D01*
X132388827Y-94294999D01*
X132403034Y-94309206D01*
X132412218Y-94330006D01*
X132428470Y-94354329D01*
X132432989Y-94377048D01*
X132440735Y-94394591D01*
X132446692Y-94445940D01*
X132447500Y-94450000D01*
X132447500Y-94750000D01*
X132446692Y-94754059D01*
X132440735Y-94805408D01*
X132432989Y-94822950D01*
X132428470Y-94845671D01*
X132412216Y-94869995D01*
X132403034Y-94890793D01*
X132388829Y-94904997D01*
X132374277Y-94926777D01*
X132352497Y-94941329D01*
X132338292Y-94955535D01*
X132317494Y-94964717D01*
X132311374Y-94968807D01*
X132311374Y-95031192D01*
X132317493Y-95035281D01*
X132338292Y-95044464D01*
X132352500Y-95058672D01*
X132374277Y-95073223D01*
X132388827Y-95094999D01*
X132403034Y-95109206D01*
X132412218Y-95130006D01*
X132428470Y-95154329D01*
X132432989Y-95177048D01*
X132440735Y-95194591D01*
X132446692Y-95245940D01*
X132447500Y-95250000D01*
X132447500Y-95550000D01*
X132446692Y-95554059D01*
X132440735Y-95605408D01*
X132432989Y-95622950D01*
X132428470Y-95645671D01*
X132412216Y-95669995D01*
X132403034Y-95690793D01*
X132388829Y-95704997D01*
X132374277Y-95726777D01*
X132352497Y-95741329D01*
X132338292Y-95755535D01*
X132317494Y-95764717D01*
X132311374Y-95768807D01*
X132311374Y-95831192D01*
X132317493Y-95835281D01*
X132338292Y-95844464D01*
X132352500Y-95858672D01*
X132374277Y-95873223D01*
X132388827Y-95894999D01*
X132403034Y-95909206D01*
X132412218Y-95930006D01*
X132428470Y-95954329D01*
X132432989Y-95977048D01*
X132440735Y-95994591D01*
X132446692Y-96045940D01*
X132447500Y-96050000D01*
X132447500Y-96350000D01*
X132446692Y-96354059D01*
X132440735Y-96405408D01*
X132432989Y-96422950D01*
X132428470Y-96445671D01*
X132412216Y-96469995D01*
X132403034Y-96490793D01*
X132388829Y-96504997D01*
X132374277Y-96526777D01*
X132352497Y-96541329D01*
X132338292Y-96555535D01*
X132317494Y-96564717D01*
X132311374Y-96568807D01*
X132311374Y-96631192D01*
X132317493Y-96635281D01*
X132338292Y-96644464D01*
X132352500Y-96658672D01*
X132374277Y-96673223D01*
X132388827Y-96694999D01*
X132403034Y-96709206D01*
X132412218Y-96730006D01*
X132428470Y-96754329D01*
X132432989Y-96777048D01*
X132440735Y-96794591D01*
X132446692Y-96845940D01*
X132447500Y-96850000D01*
X132447500Y-97150000D01*
X132446692Y-97154059D01*
X132440735Y-97205408D01*
X132432989Y-97222950D01*
X132428470Y-97245671D01*
X132412216Y-97269995D01*
X132403034Y-97290793D01*
X132388829Y-97304997D01*
X132374277Y-97326777D01*
X132352497Y-97341329D01*
X132338292Y-97355535D01*
X132317494Y-97364717D01*
X132311374Y-97368807D01*
X132311374Y-97431192D01*
X132317493Y-97435281D01*
X132338292Y-97444464D01*
X132352500Y-97458672D01*
X132374277Y-97473223D01*
X132388827Y-97494999D01*
X132403034Y-97509206D01*
X132412218Y-97530006D01*
X132428470Y-97554329D01*
X132432989Y-97577048D01*
X132440735Y-97594591D01*
X132446692Y-97645940D01*
X132447500Y-97650000D01*
X132447500Y-97950000D01*
X132446692Y-97954059D01*
X132440735Y-98005408D01*
X132432989Y-98022950D01*
X132428470Y-98045671D01*
X132412216Y-98069995D01*
X132403034Y-98090793D01*
X132388829Y-98104997D01*
X132374277Y-98126777D01*
X132352497Y-98141329D01*
X132338292Y-98155535D01*
X132317494Y-98164717D01*
X132311374Y-98168807D01*
X132311374Y-98231192D01*
X132317493Y-98235281D01*
X132338292Y-98244464D01*
X132352500Y-98258672D01*
X132374277Y-98273223D01*
X132388827Y-98294999D01*
X132403034Y-98309206D01*
X132412218Y-98330006D01*
X132428470Y-98354329D01*
X132432989Y-98377048D01*
X132440735Y-98394591D01*
X132446692Y-98445940D01*
X132447500Y-98450000D01*
X132447500Y-98750000D01*
X132446692Y-98754059D01*
X132440735Y-98805408D01*
X132432989Y-98822950D01*
X132428470Y-98845671D01*
X132412216Y-98869995D01*
X132403034Y-98890793D01*
X132388829Y-98904997D01*
X132374277Y-98926777D01*
X132352497Y-98941329D01*
X132338293Y-98955534D01*
X132317495Y-98964716D01*
X132293171Y-98980970D01*
X132270450Y-98985489D01*
X132252908Y-98993235D01*
X132201561Y-98999192D01*
X132197500Y-99000000D01*
X128997500Y-99000000D01*
X128993441Y-98999192D01*
X128942091Y-98993235D01*
X128924548Y-98985489D01*
X128901829Y-98980970D01*
X128877506Y-98964718D01*
X128856706Y-98955534D01*
X128842499Y-98941327D01*
X128820723Y-98926777D01*
X128806172Y-98905000D01*
X128791965Y-98890793D01*
X128782780Y-98869991D01*
X128766530Y-98845671D01*
X128762011Y-98822954D01*
X128754264Y-98805408D01*
X128748305Y-98754049D01*
X128747500Y-98750000D01*
X128747500Y-98450000D01*
X128748304Y-98445953D01*
X128754264Y-98394591D01*
X128762011Y-98377043D01*
X128766530Y-98354329D01*
X128782778Y-98330010D01*
X128791965Y-98309206D01*
X128806174Y-98294996D01*
X128820723Y-98273223D01*
X128842496Y-98258674D01*
X128856706Y-98244465D01*
X128877510Y-98235278D01*
X128901829Y-98219030D01*
X128924543Y-98214511D01*
X128942091Y-98206764D01*
X128993452Y-98200805D01*
X128997500Y-98200000D01*
X129613871Y-98200000D01*
X129639112Y-98139064D01*
X129620723Y-98126777D01*
X129606173Y-98105001D01*
X129591965Y-98090793D01*
X129582780Y-98069991D01*
X129566530Y-98045671D01*
X129562011Y-98022954D01*
X129554264Y-98005408D01*
X129548305Y-97954049D01*
X129547500Y-97950000D01*
X129547500Y-97650000D01*
X129548304Y-97645953D01*
X129554264Y-97594591D01*
X129562011Y-97577043D01*
X129566530Y-97554329D01*
X129582778Y-97530010D01*
X129591965Y-97509206D01*
X129606174Y-97494996D01*
X129620723Y-97473223D01*
X129642496Y-97458674D01*
X129656707Y-97444464D01*
X129677515Y-97435275D01*
X129683625Y-97431193D01*
X129683625Y-97368806D01*
X129677514Y-97364723D01*
X129656707Y-97355535D01*
X129642499Y-97341327D01*
X129620723Y-97326777D01*
X129606172Y-97305000D01*
X129591965Y-97290793D01*
X129582780Y-97269991D01*
X129566530Y-97245671D01*
X129562011Y-97222954D01*
X129554264Y-97205408D01*
X129548305Y-97154049D01*
X129547500Y-97150000D01*
X129547500Y-96850000D01*
X129548304Y-96845953D01*
X129554264Y-96794591D01*
X129562011Y-96777044D01*
X129566530Y-96754329D01*
X129582779Y-96730010D01*
X129591966Y-96709204D01*
X129606176Y-96694993D01*
X129620723Y-96673223D01*
X129639112Y-96660935D01*
X129613871Y-96600000D01*
X128997500Y-96600000D01*
X128993441Y-96599192D01*
X128942091Y-96593235D01*
X128924548Y-96585489D01*
X128901829Y-96580970D01*
X128877506Y-96564718D01*
X128856706Y-96555534D01*
X128842499Y-96541327D01*
X128820723Y-96526777D01*
X128806172Y-96505000D01*
X128791965Y-96490793D01*
X128782780Y-96469991D01*
X128766530Y-96445671D01*
X128762011Y-96422954D01*
X128754264Y-96405408D01*
X128748305Y-96354049D01*
X128747500Y-96350000D01*
X128747500Y-96050000D01*
X128748304Y-96045953D01*
X128754264Y-95994591D01*
X128762011Y-95977043D01*
X128766530Y-95954329D01*
X128782778Y-95930010D01*
X128791965Y-95909206D01*
X128806174Y-95894996D01*
X128820723Y-95873223D01*
X128842496Y-95858674D01*
X128856706Y-95844465D01*
X128877510Y-95835278D01*
X128901829Y-95819030D01*
X128924543Y-95814511D01*
X128942091Y-95806764D01*
X128993452Y-95800805D01*
X128997500Y-95800000D01*
X129613871Y-95800000D01*
X129639112Y-95739064D01*
X129620723Y-95726777D01*
X129606173Y-95705001D01*
X129591965Y-95690793D01*
X129582780Y-95669991D01*
X129566530Y-95645671D01*
X129562011Y-95622954D01*
X129554264Y-95605408D01*
X129548305Y-95554049D01*
X129547500Y-95550000D01*
X129547500Y-95250000D01*
X129548304Y-95245953D01*
X129554264Y-95194591D01*
X129562011Y-95177043D01*
X129566530Y-95154329D01*
X129582778Y-95130010D01*
X129591965Y-95109206D01*
X129606174Y-95094996D01*
X129620723Y-95073223D01*
X129642496Y-95058674D01*
X129656707Y-95044464D01*
X129677515Y-95035275D01*
X129683625Y-95031193D01*
X129683625Y-94968806D01*
X129677514Y-94964723D01*
X129656707Y-94955535D01*
X129642499Y-94941327D01*
X129620723Y-94926777D01*
X129606172Y-94905000D01*
X129591965Y-94890793D01*
X129582780Y-94869991D01*
X129566530Y-94845671D01*
X129562011Y-94822954D01*
X129554264Y-94805408D01*
X129548305Y-94754049D01*
X129547500Y-94750000D01*
X129547500Y-94450000D01*
X129548304Y-94445953D01*
X129554264Y-94394591D01*
X129562011Y-94377044D01*
X129566530Y-94354329D01*
X129582779Y-94330010D01*
X129591966Y-94309204D01*
X129606176Y-94294993D01*
X129620723Y-94273223D01*
X129639112Y-94260935D01*
X129613871Y-94200000D01*
X128997500Y-94200000D01*
X128993441Y-94199192D01*
X128942091Y-94193235D01*
X128924548Y-94185489D01*
X128901829Y-94180970D01*
X128877506Y-94164718D01*
X128856706Y-94155534D01*
X128842499Y-94141327D01*
X128820723Y-94126777D01*
X128806172Y-94105000D01*
X128791965Y-94090793D01*
X128782780Y-94069991D01*
X128766530Y-94045671D01*
X128762011Y-94022954D01*
X128754264Y-94005408D01*
X128748305Y-93954049D01*
X128747500Y-93950000D01*
X128747500Y-93650000D01*
X128748304Y-93645953D01*
X128754264Y-93594591D01*
X128762011Y-93577043D01*
X128766530Y-93554329D01*
X128782778Y-93530010D01*
X128791965Y-93509206D01*
X128806174Y-93494996D01*
X128820723Y-93473223D01*
X128842496Y-93458674D01*
X128856706Y-93444465D01*
X128877510Y-93435278D01*
X128901829Y-93419030D01*
X128924543Y-93414511D01*
X128942091Y-93406764D01*
X128993452Y-93400805D01*
X128997500Y-93400000D01*
X129613871Y-93400000D01*
X129639112Y-93339064D01*
X129620723Y-93326777D01*
X129606173Y-93305001D01*
X129591965Y-93290793D01*
X129582780Y-93269991D01*
X129566530Y-93245671D01*
X129562011Y-93222954D01*
X129554264Y-93205408D01*
X129548305Y-93154049D01*
X129547500Y-93150000D01*
X129547500Y-92850000D01*
X129548304Y-92845953D01*
X129554264Y-92794591D01*
X129562011Y-92777043D01*
X129566530Y-92754329D01*
X129582778Y-92730010D01*
X129591965Y-92709206D01*
X129606174Y-92694996D01*
X129620723Y-92673223D01*
X129642496Y-92658674D01*
X129656707Y-92644464D01*
X129677515Y-92635275D01*
X129683625Y-92631193D01*
X129683625Y-92568806D01*
X129677514Y-92564723D01*
X129656707Y-92555535D01*
X129642499Y-92541327D01*
X129620723Y-92526777D01*
X129606172Y-92505000D01*
X129591965Y-92490793D01*
X129582780Y-92469991D01*
X129566530Y-92445671D01*
X129562011Y-92422954D01*
X129554264Y-92405408D01*
X129548305Y-92354049D01*
X129547500Y-92350000D01*
X129547500Y-92050000D01*
X129548304Y-92045953D01*
X129554264Y-91994591D01*
X129562011Y-91977044D01*
X129566530Y-91954329D01*
X129582779Y-91930010D01*
X129591966Y-91909204D01*
X129606176Y-91894993D01*
X129620723Y-91873223D01*
X129639112Y-91860935D01*
X129613871Y-91800000D01*
X128997500Y-91800000D01*
X128993441Y-91799192D01*
X128942091Y-91793235D01*
X128924548Y-91785489D01*
X128901829Y-91780970D01*
X128877506Y-91764718D01*
X128856706Y-91755534D01*
X128842499Y-91741327D01*
X128820723Y-91726777D01*
X128806172Y-91705000D01*
X128791965Y-91690793D01*
X128782780Y-91669991D01*
X128766530Y-91645671D01*
X128762011Y-91622954D01*
X128754264Y-91605408D01*
X128748305Y-91554049D01*
X128747500Y-91550000D01*
X128747500Y-91250000D01*
X128748304Y-91245953D01*
X128754264Y-91194591D01*
X128762011Y-91177043D01*
X128766530Y-91154329D01*
X128782778Y-91130010D01*
X128791965Y-91109206D01*
X128806174Y-91094996D01*
X128820723Y-91073223D01*
X128842496Y-91058674D01*
X128856706Y-91044465D01*
X128877510Y-91035278D01*
X128901829Y-91019030D01*
X128924543Y-91014511D01*
X128942091Y-91006764D01*
X128993452Y-91000805D01*
X128997500Y-91000000D01*
X132197500Y-91000000D01*
X132201547Y-91000805D01*
G37*
G36*
X173904848Y-97731953D02*
G01*
X173908420Y-97732582D01*
X173908421Y-97732583D01*
X174332131Y-97807294D01*
X174332134Y-97807295D01*
X174335701Y-97807924D01*
X174415061Y-97832946D01*
X174419817Y-97836276D01*
X174422230Y-97837074D01*
X174454398Y-97860490D01*
X174505741Y-97896441D01*
X174569237Y-97987123D01*
X174585446Y-98047618D01*
X174596461Y-98085898D01*
X174596385Y-98088440D01*
X174597888Y-98094050D01*
X174594259Y-98177182D01*
X174505264Y-98681896D01*
X174480242Y-98761256D01*
X174476909Y-98766015D01*
X174476113Y-98768425D01*
X174452721Y-98800558D01*
X174416747Y-98851935D01*
X174326065Y-98915431D01*
X174265526Y-98931652D01*
X174227289Y-98942655D01*
X174224750Y-98942579D01*
X174219138Y-98944083D01*
X174136006Y-98940453D01*
X173705153Y-98864482D01*
X173625793Y-98839460D01*
X173621034Y-98836128D01*
X173618623Y-98835331D01*
X173586464Y-98811922D01*
X173535113Y-98775965D01*
X173471617Y-98685283D01*
X173455417Y-98624823D01*
X173444392Y-98586507D01*
X173444468Y-98583961D01*
X173442966Y-98578356D01*
X173446595Y-98495224D01*
X173452031Y-98464395D01*
X173534960Y-97994080D01*
X173534961Y-97994076D01*
X173535590Y-97990510D01*
X173560612Y-97911150D01*
X173563942Y-97906394D01*
X173564740Y-97903980D01*
X173588176Y-97871784D01*
X173624107Y-97820471D01*
X173714789Y-97756975D01*
X173775262Y-97740770D01*
X173813564Y-97729750D01*
X173816107Y-97729825D01*
X173821716Y-97728323D01*
X173904848Y-97731953D01*
G37*
G36*
X172353776Y-97458457D02*
G01*
X172357348Y-97459086D01*
X172357349Y-97459087D01*
X172781059Y-97533798D01*
X172781062Y-97533799D01*
X172784629Y-97534428D01*
X172863989Y-97559450D01*
X172868745Y-97562780D01*
X172871158Y-97563578D01*
X172903326Y-97586994D01*
X172954669Y-97622945D01*
X173018165Y-97713627D01*
X173034374Y-97774122D01*
X173045389Y-97812402D01*
X173045313Y-97814944D01*
X173046816Y-97820554D01*
X173043187Y-97903686D01*
X172954192Y-98408400D01*
X172929170Y-98487760D01*
X172925837Y-98492519D01*
X172925041Y-98494929D01*
X172901649Y-98527062D01*
X172865675Y-98578439D01*
X172774993Y-98641935D01*
X172714454Y-98658156D01*
X172676217Y-98669159D01*
X172673678Y-98669083D01*
X172668066Y-98670587D01*
X172584934Y-98666957D01*
X172154081Y-98590986D01*
X172074721Y-98565964D01*
X172069962Y-98562632D01*
X172067551Y-98561835D01*
X172035392Y-98538426D01*
X171984041Y-98502469D01*
X171920545Y-98411787D01*
X171904345Y-98351327D01*
X171893320Y-98313011D01*
X171893396Y-98310465D01*
X171891894Y-98304860D01*
X171895523Y-98221728D01*
X171897875Y-98208390D01*
X171983888Y-97720584D01*
X171983889Y-97720580D01*
X171984518Y-97717014D01*
X172009540Y-97637654D01*
X172012870Y-97632898D01*
X172013668Y-97630484D01*
X172037104Y-97598288D01*
X172073035Y-97546975D01*
X172163717Y-97483479D01*
X172224190Y-97467274D01*
X172262492Y-97456254D01*
X172265035Y-97456329D01*
X172270644Y-97454827D01*
X172353776Y-97458457D01*
G37*
G36*
X140406962Y-97562384D02*
G01*
X140409021Y-97567355D01*
X140414946Y-97569810D01*
X140434836Y-97569810D01*
X140440760Y-97567355D01*
X140442820Y-97562384D01*
X140449891Y-97559455D01*
X140799891Y-97559455D01*
X140806962Y-97562384D01*
X140809021Y-97567355D01*
X140814946Y-97569810D01*
X140834836Y-97569810D01*
X140840760Y-97567355D01*
X140842820Y-97562384D01*
X140849891Y-97559455D01*
X141199891Y-97559455D01*
X141206962Y-97562384D01*
X141209021Y-97567355D01*
X141214946Y-97569810D01*
X141234836Y-97569810D01*
X141240760Y-97567355D01*
X141242820Y-97562384D01*
X141249891Y-97559455D01*
X141599891Y-97559455D01*
X141606962Y-97562384D01*
X141609021Y-97567355D01*
X141614946Y-97569810D01*
X141634836Y-97569810D01*
X141640760Y-97567355D01*
X141642820Y-97562384D01*
X141649891Y-97559455D01*
X141999891Y-97559455D01*
X142006962Y-97562384D01*
X142009021Y-97567355D01*
X142014946Y-97569810D01*
X142034836Y-97569810D01*
X142040760Y-97567355D01*
X142042820Y-97562384D01*
X142049891Y-97559455D01*
X142399891Y-97559455D01*
X142406962Y-97562384D01*
X142409021Y-97567355D01*
X142414946Y-97569810D01*
X142434836Y-97569810D01*
X142440760Y-97567355D01*
X142442820Y-97562384D01*
X142449891Y-97559455D01*
X142799891Y-97559455D01*
X142806962Y-97562384D01*
X142809021Y-97567355D01*
X142814946Y-97569810D01*
X142834836Y-97569810D01*
X142840760Y-97567355D01*
X142842820Y-97562384D01*
X142849891Y-97559455D01*
X143199891Y-97559455D01*
X143206962Y-97562384D01*
X143209021Y-97567355D01*
X143214946Y-97569810D01*
X143234836Y-97569810D01*
X143240760Y-97567355D01*
X143242820Y-97562384D01*
X143249891Y-97559455D01*
X143599891Y-97559455D01*
X143606962Y-97562384D01*
X143609021Y-97567355D01*
X143614946Y-97569810D01*
X143634836Y-97569810D01*
X143640760Y-97567355D01*
X143642820Y-97562384D01*
X143649891Y-97559455D01*
X143999891Y-97559455D01*
X144006962Y-97562384D01*
X144009021Y-97567355D01*
X144014946Y-97569810D01*
X144034836Y-97569810D01*
X144040760Y-97567355D01*
X144042820Y-97562384D01*
X144049891Y-97559455D01*
X144399891Y-97559455D01*
X144406962Y-97562384D01*
X144409021Y-97567355D01*
X144414946Y-97569810D01*
X144434836Y-97569810D01*
X144440760Y-97567355D01*
X144442820Y-97562384D01*
X144449891Y-97559455D01*
X144799891Y-97559455D01*
X144806962Y-97562384D01*
X144809021Y-97567355D01*
X144814946Y-97569810D01*
X144834836Y-97569810D01*
X144840760Y-97567355D01*
X144842820Y-97562384D01*
X144849891Y-97559455D01*
X145022891Y-97559455D01*
X145029962Y-97562384D01*
X145206962Y-97739384D01*
X145209891Y-97746455D01*
X145209891Y-98419455D01*
X145206962Y-98426526D01*
X145199891Y-98429455D01*
X145189947Y-98429455D01*
X144859838Y-98429455D01*
X144849891Y-98429455D01*
X144842820Y-98426526D01*
X144840759Y-98421552D01*
X144834837Y-98419099D01*
X144814945Y-98419099D01*
X144809022Y-98421552D01*
X144806962Y-98426526D01*
X144799891Y-98429455D01*
X144789944Y-98429455D01*
X144459838Y-98429455D01*
X144449891Y-98429455D01*
X144442820Y-98426526D01*
X144440759Y-98421552D01*
X144434837Y-98419099D01*
X144414945Y-98419099D01*
X144409022Y-98421552D01*
X144406962Y-98426526D01*
X144399891Y-98429455D01*
X144389944Y-98429455D01*
X144059838Y-98429455D01*
X144049891Y-98429455D01*
X144042820Y-98426526D01*
X144040759Y-98421552D01*
X144034837Y-98419099D01*
X144014945Y-98419099D01*
X144009022Y-98421552D01*
X144006962Y-98426526D01*
X143999891Y-98429455D01*
X143989944Y-98429455D01*
X143659838Y-98429455D01*
X143649891Y-98429455D01*
X143642820Y-98426526D01*
X143640759Y-98421552D01*
X143634837Y-98419099D01*
X143614945Y-98419099D01*
X143609022Y-98421552D01*
X143606962Y-98426526D01*
X143599891Y-98429455D01*
X143589944Y-98429455D01*
X143259838Y-98429455D01*
X143249891Y-98429455D01*
X143242820Y-98426526D01*
X143240759Y-98421552D01*
X143234837Y-98419099D01*
X143214945Y-98419099D01*
X143209022Y-98421552D01*
X143206962Y-98426526D01*
X143199891Y-98429455D01*
X143189944Y-98429455D01*
X142859838Y-98429455D01*
X142849891Y-98429455D01*
X142842820Y-98426526D01*
X142840759Y-98421552D01*
X142834837Y-98419099D01*
X142814945Y-98419099D01*
X142809022Y-98421552D01*
X142806962Y-98426526D01*
X142799891Y-98429455D01*
X142789944Y-98429455D01*
X142459838Y-98429455D01*
X142449891Y-98429455D01*
X142442820Y-98426526D01*
X142440759Y-98421552D01*
X142434837Y-98419099D01*
X142414945Y-98419099D01*
X142409022Y-98421552D01*
X142406962Y-98426526D01*
X142399891Y-98429455D01*
X142389944Y-98429455D01*
X142059838Y-98429455D01*
X142049891Y-98429455D01*
X142042820Y-98426526D01*
X142040759Y-98421552D01*
X142034837Y-98419099D01*
X142014945Y-98419099D01*
X142009022Y-98421552D01*
X142006962Y-98426526D01*
X141999891Y-98429455D01*
X141989944Y-98429455D01*
X141659838Y-98429455D01*
X141649891Y-98429455D01*
X141642820Y-98426526D01*
X141640759Y-98421552D01*
X141634837Y-98419099D01*
X141614945Y-98419099D01*
X141609022Y-98421552D01*
X141606962Y-98426526D01*
X141599891Y-98429455D01*
X141589944Y-98429455D01*
X141259838Y-98429455D01*
X141249891Y-98429455D01*
X141242820Y-98426526D01*
X141240759Y-98421552D01*
X141234837Y-98419099D01*
X141214945Y-98419099D01*
X141209022Y-98421552D01*
X141206962Y-98426526D01*
X141199891Y-98429455D01*
X141189944Y-98429455D01*
X140859838Y-98429455D01*
X140849891Y-98429455D01*
X140842820Y-98426526D01*
X140840759Y-98421552D01*
X140834837Y-98419099D01*
X140814945Y-98419099D01*
X140809022Y-98421552D01*
X140806962Y-98426526D01*
X140799891Y-98429455D01*
X140789944Y-98429455D01*
X140459838Y-98429455D01*
X140449891Y-98429455D01*
X140442820Y-98426526D01*
X140440759Y-98421552D01*
X140434837Y-98419099D01*
X140414945Y-98419099D01*
X140409022Y-98421552D01*
X140406962Y-98426526D01*
X140399891Y-98429455D01*
X140389944Y-98429455D01*
X140059835Y-98429455D01*
X140049891Y-98429455D01*
X140042820Y-98426526D01*
X140039891Y-98419455D01*
X140039891Y-97746455D01*
X140042820Y-97739384D01*
X140049850Y-97732353D01*
X140049851Y-97732352D01*
X140212788Y-97569415D01*
X140212789Y-97569414D01*
X140219820Y-97562384D01*
X140226891Y-97559455D01*
X140399891Y-97559455D01*
X140406962Y-97562384D01*
G37*
G36*
X156158800Y-96974258D02*
G01*
X156196442Y-96987181D01*
X156198479Y-96988700D01*
X156203935Y-96990686D01*
X156269951Y-97041342D01*
X156579310Y-97350701D01*
X156629966Y-97416717D01*
X156631952Y-97422174D01*
X156633471Y-97424211D01*
X156646389Y-97461840D01*
X156667827Y-97520741D01*
X156667827Y-97631442D01*
X156646379Y-97690368D01*
X156633470Y-97727973D01*
X156631952Y-97730008D01*
X156629966Y-97735466D01*
X156579310Y-97801482D01*
X156216918Y-98163874D01*
X156150902Y-98214530D01*
X156145442Y-98216516D01*
X156143407Y-98218035D01*
X156105788Y-98230949D01*
X156046878Y-98252391D01*
X155936177Y-98252391D01*
X155877267Y-98230950D01*
X155839645Y-98218034D01*
X155837608Y-98216515D01*
X155832153Y-98214530D01*
X155766137Y-98163874D01*
X155456778Y-97854515D01*
X155406122Y-97788499D01*
X155404136Y-97783042D01*
X155402616Y-97781004D01*
X155389693Y-97743361D01*
X155368261Y-97684475D01*
X155368261Y-97573774D01*
X155389691Y-97514894D01*
X155402617Y-97477242D01*
X155404137Y-97475203D01*
X155406122Y-97469750D01*
X155456778Y-97403734D01*
X155819170Y-97041342D01*
X155885186Y-96990686D01*
X155890640Y-96988700D01*
X155892680Y-96987180D01*
X155930339Y-96974251D01*
X155989210Y-96952825D01*
X156099911Y-96952825D01*
X156158800Y-96974258D01*
G37*
G36*
X139954962Y-92487384D02*
G01*
X140131962Y-92664384D01*
X140134891Y-92671455D01*
X140134891Y-92844455D01*
X140131962Y-92851526D01*
X140126988Y-92853586D01*
X140124535Y-92859509D01*
X140124535Y-92879401D01*
X140126988Y-92885323D01*
X140131962Y-92887384D01*
X140134891Y-92894455D01*
X140134891Y-93244455D01*
X140131962Y-93251526D01*
X140126988Y-93253586D01*
X140124535Y-93259509D01*
X140124535Y-93279401D01*
X140126988Y-93285323D01*
X140131962Y-93287384D01*
X140134891Y-93294455D01*
X140134891Y-93644455D01*
X140131962Y-93651526D01*
X140126988Y-93653586D01*
X140124535Y-93659509D01*
X140124535Y-93679401D01*
X140126988Y-93685323D01*
X140131962Y-93687384D01*
X140134891Y-93694455D01*
X140134891Y-94044455D01*
X140131962Y-94051526D01*
X140126988Y-94053586D01*
X140124535Y-94059509D01*
X140124535Y-94079401D01*
X140126988Y-94085323D01*
X140131962Y-94087384D01*
X140134891Y-94094455D01*
X140134891Y-94444455D01*
X140131962Y-94451526D01*
X140126988Y-94453586D01*
X140124535Y-94459509D01*
X140124535Y-94479401D01*
X140126988Y-94485323D01*
X140131962Y-94487384D01*
X140134891Y-94494455D01*
X140134891Y-94844455D01*
X140131962Y-94851526D01*
X140126988Y-94853586D01*
X140124535Y-94859509D01*
X140124535Y-94879401D01*
X140126988Y-94885323D01*
X140131962Y-94887384D01*
X140134891Y-94894455D01*
X140134891Y-95244455D01*
X140131962Y-95251526D01*
X140126988Y-95253586D01*
X140124535Y-95259509D01*
X140124535Y-95279401D01*
X140126988Y-95285323D01*
X140131962Y-95287384D01*
X140134891Y-95294455D01*
X140134891Y-95644455D01*
X140131962Y-95651526D01*
X140126988Y-95653586D01*
X140124535Y-95659509D01*
X140124535Y-95679401D01*
X140126988Y-95685323D01*
X140131962Y-95687384D01*
X140134891Y-95694455D01*
X140134891Y-96044455D01*
X140131962Y-96051526D01*
X140126988Y-96053586D01*
X140124535Y-96059509D01*
X140124535Y-96079401D01*
X140126988Y-96085323D01*
X140131962Y-96087384D01*
X140134891Y-96094455D01*
X140134891Y-96444455D01*
X140131962Y-96451526D01*
X140126988Y-96453586D01*
X140124535Y-96459509D01*
X140124535Y-96479401D01*
X140126988Y-96485323D01*
X140131962Y-96487384D01*
X140134891Y-96494455D01*
X140134891Y-96844455D01*
X140131962Y-96851526D01*
X140126988Y-96853586D01*
X140124535Y-96859509D01*
X140124535Y-96879401D01*
X140126988Y-96885323D01*
X140131962Y-96887384D01*
X140134891Y-96894455D01*
X140134891Y-97244455D01*
X140131962Y-97251526D01*
X140126988Y-97253586D01*
X140124535Y-97259509D01*
X140124535Y-97279401D01*
X140126988Y-97285323D01*
X140131962Y-97287384D01*
X140134891Y-97294455D01*
X140134891Y-97467455D01*
X140131962Y-97474526D01*
X139954962Y-97651526D01*
X139947891Y-97654455D01*
X139937947Y-97654455D01*
X139284835Y-97654455D01*
X139274891Y-97654455D01*
X139267820Y-97651526D01*
X139264891Y-97644455D01*
X139264891Y-97294455D01*
X139267820Y-97287384D01*
X139272791Y-97285324D01*
X139275246Y-97279400D01*
X139275246Y-97259510D01*
X139272792Y-97253585D01*
X139267820Y-97251526D01*
X139264891Y-97244455D01*
X139264891Y-96894455D01*
X139267820Y-96887384D01*
X139272791Y-96885324D01*
X139275246Y-96879400D01*
X139275246Y-96859510D01*
X139272792Y-96853585D01*
X139267820Y-96851526D01*
X139264891Y-96844455D01*
X139264891Y-96494455D01*
X139267820Y-96487384D01*
X139272791Y-96485324D01*
X139275246Y-96479400D01*
X139275246Y-96459510D01*
X139272792Y-96453585D01*
X139267820Y-96451526D01*
X139264891Y-96444455D01*
X139264891Y-96094455D01*
X139267820Y-96087384D01*
X139272791Y-96085324D01*
X139275246Y-96079400D01*
X139275246Y-96059510D01*
X139272792Y-96053585D01*
X139267820Y-96051526D01*
X139264891Y-96044455D01*
X139264891Y-95694455D01*
X139267820Y-95687384D01*
X139272791Y-95685324D01*
X139275246Y-95679400D01*
X139275246Y-95659510D01*
X139272792Y-95653585D01*
X139267820Y-95651526D01*
X139264891Y-95644455D01*
X139264891Y-95294455D01*
X139267820Y-95287384D01*
X139272791Y-95285324D01*
X139275246Y-95279400D01*
X139275246Y-95259510D01*
X139272792Y-95253585D01*
X139267820Y-95251526D01*
X139264891Y-95244455D01*
X139264891Y-94894455D01*
X139267820Y-94887384D01*
X139272791Y-94885324D01*
X139275246Y-94879400D01*
X139275246Y-94859510D01*
X139272792Y-94853585D01*
X139267820Y-94851526D01*
X139264891Y-94844455D01*
X139264891Y-94494455D01*
X139267820Y-94487384D01*
X139272791Y-94485324D01*
X139275246Y-94479400D01*
X139275246Y-94459510D01*
X139272792Y-94453585D01*
X139267820Y-94451526D01*
X139264891Y-94444455D01*
X139264891Y-94094455D01*
X139267820Y-94087384D01*
X139272791Y-94085324D01*
X139275246Y-94079400D01*
X139275246Y-94059510D01*
X139272792Y-94053585D01*
X139267820Y-94051526D01*
X139264891Y-94044455D01*
X139264891Y-93694455D01*
X139267820Y-93687384D01*
X139272791Y-93685324D01*
X139275246Y-93679400D01*
X139275246Y-93659510D01*
X139272792Y-93653585D01*
X139267820Y-93651526D01*
X139264891Y-93644455D01*
X139264891Y-93294455D01*
X139267820Y-93287384D01*
X139272791Y-93285324D01*
X139275246Y-93279400D01*
X139275246Y-93259510D01*
X139272792Y-93253585D01*
X139267820Y-93251526D01*
X139264891Y-93244455D01*
X139264891Y-92894455D01*
X139267820Y-92887384D01*
X139272791Y-92885324D01*
X139275246Y-92879400D01*
X139275246Y-92859510D01*
X139272792Y-92853585D01*
X139267820Y-92851526D01*
X139264891Y-92844455D01*
X139264891Y-92494455D01*
X139267820Y-92487384D01*
X139274891Y-92484455D01*
X139947891Y-92484455D01*
X139954962Y-92487384D01*
G37*
G36*
X145981962Y-92487384D02*
G01*
X145984891Y-92494455D01*
X145984891Y-92844455D01*
X145981962Y-92851526D01*
X145976988Y-92853586D01*
X145974535Y-92859509D01*
X145974535Y-92879401D01*
X145976988Y-92885323D01*
X145981962Y-92887384D01*
X145984891Y-92894455D01*
X145984891Y-93244455D01*
X145981962Y-93251526D01*
X145976988Y-93253586D01*
X145974535Y-93259509D01*
X145974535Y-93279401D01*
X145976988Y-93285323D01*
X145981962Y-93287384D01*
X145984891Y-93294455D01*
X145984891Y-93644455D01*
X145981962Y-93651526D01*
X145976988Y-93653586D01*
X145974535Y-93659509D01*
X145974535Y-93679401D01*
X145976988Y-93685323D01*
X145981962Y-93687384D01*
X145984891Y-93694455D01*
X145984891Y-94044455D01*
X145981962Y-94051526D01*
X145976988Y-94053586D01*
X145974535Y-94059509D01*
X145974535Y-94079401D01*
X145976988Y-94085323D01*
X145981962Y-94087384D01*
X145984891Y-94094455D01*
X145984891Y-94444455D01*
X145981962Y-94451526D01*
X145976988Y-94453586D01*
X145974535Y-94459509D01*
X145974535Y-94479401D01*
X145976988Y-94485323D01*
X145981962Y-94487384D01*
X145984891Y-94494455D01*
X145984891Y-94844455D01*
X145981962Y-94851526D01*
X145976988Y-94853586D01*
X145974535Y-94859509D01*
X145974535Y-94879401D01*
X145976988Y-94885323D01*
X145981962Y-94887384D01*
X145984891Y-94894455D01*
X145984891Y-95244455D01*
X145981962Y-95251526D01*
X145976988Y-95253586D01*
X145974535Y-95259509D01*
X145974535Y-95279401D01*
X145976988Y-95285323D01*
X145981962Y-95287384D01*
X145984891Y-95294455D01*
X145984891Y-95644455D01*
X145981962Y-95651526D01*
X145976988Y-95653586D01*
X145974535Y-95659509D01*
X145974535Y-95679401D01*
X145976988Y-95685323D01*
X145981962Y-95687384D01*
X145984891Y-95694455D01*
X145984891Y-96044455D01*
X145981962Y-96051526D01*
X145976988Y-96053586D01*
X145974535Y-96059509D01*
X145974535Y-96079401D01*
X145976988Y-96085323D01*
X145981962Y-96087384D01*
X145984891Y-96094455D01*
X145984891Y-96444455D01*
X145981962Y-96451526D01*
X145976988Y-96453586D01*
X145974535Y-96459509D01*
X145974535Y-96479401D01*
X145976988Y-96485323D01*
X145981962Y-96487384D01*
X145984891Y-96494455D01*
X145984891Y-96844455D01*
X145981962Y-96851526D01*
X145976988Y-96853586D01*
X145974535Y-96859509D01*
X145974535Y-96879401D01*
X145976988Y-96885323D01*
X145981962Y-96887384D01*
X145984891Y-96894455D01*
X145984891Y-97244455D01*
X145981962Y-97251526D01*
X145976988Y-97253586D01*
X145974535Y-97259509D01*
X145974535Y-97279401D01*
X145976988Y-97285323D01*
X145981962Y-97287384D01*
X145984891Y-97294455D01*
X145984891Y-97644455D01*
X145981962Y-97651526D01*
X145974891Y-97654455D01*
X145964947Y-97654455D01*
X145311835Y-97654455D01*
X145301891Y-97654455D01*
X145294820Y-97651526D01*
X145117820Y-97474526D01*
X145114891Y-97467455D01*
X145114891Y-97294455D01*
X145117820Y-97287384D01*
X145122791Y-97285324D01*
X145125246Y-97279400D01*
X145125246Y-97259510D01*
X145122792Y-97253585D01*
X145117820Y-97251526D01*
X145114891Y-97244455D01*
X145114891Y-96894455D01*
X145117820Y-96887384D01*
X145122791Y-96885324D01*
X145125246Y-96879400D01*
X145125246Y-96859510D01*
X145122792Y-96853585D01*
X145117820Y-96851526D01*
X145114891Y-96844455D01*
X145114891Y-96494455D01*
X145117820Y-96487384D01*
X145122791Y-96485324D01*
X145125246Y-96479400D01*
X145125246Y-96459510D01*
X145122792Y-96453585D01*
X145117820Y-96451526D01*
X145114891Y-96444455D01*
X145114891Y-96094455D01*
X145117820Y-96087384D01*
X145122791Y-96085324D01*
X145125246Y-96079400D01*
X145125246Y-96059510D01*
X145122792Y-96053585D01*
X145117820Y-96051526D01*
X145114891Y-96044455D01*
X145114891Y-95694455D01*
X145117820Y-95687384D01*
X145122791Y-95685324D01*
X145125246Y-95679400D01*
X145125246Y-95659510D01*
X145122792Y-95653585D01*
X145117820Y-95651526D01*
X145114891Y-95644455D01*
X145114891Y-95294455D01*
X145117820Y-95287384D01*
X145122791Y-95285324D01*
X145125246Y-95279400D01*
X145125246Y-95259510D01*
X145122792Y-95253585D01*
X145117820Y-95251526D01*
X145114891Y-95244455D01*
X145114891Y-94894455D01*
X145117820Y-94887384D01*
X145122791Y-94885324D01*
X145125246Y-94879400D01*
X145125246Y-94859510D01*
X145122792Y-94853585D01*
X145117820Y-94851526D01*
X145114891Y-94844455D01*
X145114891Y-94494455D01*
X145117820Y-94487384D01*
X145122791Y-94485324D01*
X145125246Y-94479400D01*
X145125246Y-94459510D01*
X145122792Y-94453585D01*
X145117820Y-94451526D01*
X145114891Y-94444455D01*
X145114891Y-94094455D01*
X145117820Y-94087384D01*
X145122791Y-94085324D01*
X145125246Y-94079400D01*
X145125246Y-94059510D01*
X145122792Y-94053585D01*
X145117820Y-94051526D01*
X145114891Y-94044455D01*
X145114891Y-93694455D01*
X145117820Y-93687384D01*
X145122791Y-93685324D01*
X145125246Y-93679400D01*
X145125246Y-93659510D01*
X145122792Y-93653585D01*
X145117820Y-93651526D01*
X145114891Y-93644455D01*
X145114891Y-93294455D01*
X145117820Y-93287384D01*
X145122791Y-93285324D01*
X145125246Y-93279400D01*
X145125246Y-93259510D01*
X145122792Y-93253585D01*
X145117820Y-93251526D01*
X145114891Y-93244455D01*
X145114891Y-92894455D01*
X145117820Y-92887384D01*
X145122791Y-92885324D01*
X145125246Y-92879400D01*
X145125246Y-92859510D01*
X145122792Y-92853585D01*
X145117820Y-92851526D01*
X145114891Y-92844455D01*
X145114891Y-92671455D01*
X145117820Y-92664384D01*
X145124850Y-92657353D01*
X145124851Y-92657352D01*
X145287788Y-92494415D01*
X145287789Y-92494414D01*
X145294820Y-92487384D01*
X145301891Y-92484455D01*
X145974891Y-92484455D01*
X145981962Y-92487384D01*
G37*
G36*
X144913925Y-92725219D02*
G01*
X144947016Y-92747330D01*
X144969127Y-92780421D01*
X144976891Y-92819455D01*
X144976891Y-97319455D01*
X144969127Y-97358489D01*
X144947016Y-97391580D01*
X144913925Y-97413691D01*
X144874891Y-97421455D01*
X140374891Y-97421455D01*
X140335857Y-97413691D01*
X140302766Y-97391580D01*
X140280655Y-97358489D01*
X140272891Y-97319455D01*
X140272891Y-92819455D01*
X140280655Y-92780421D01*
X140302766Y-92747330D01*
X140335857Y-92725219D01*
X140374891Y-92717455D01*
X144874891Y-92717455D01*
X144913925Y-92725219D01*
G37*
G36*
X164521311Y-96201213D02*
G01*
X164951062Y-96283192D01*
X165030064Y-96309320D01*
X165034771Y-96312715D01*
X165037178Y-96313548D01*
X165069055Y-96337441D01*
X165119849Y-96374075D01*
X165182072Y-96465634D01*
X165197454Y-96526424D01*
X165207914Y-96564782D01*
X165207802Y-96567318D01*
X165209228Y-96572951D01*
X165204438Y-96656024D01*
X165108405Y-97159447D01*
X165082278Y-97238449D01*
X165078878Y-97243161D01*
X165078048Y-97245563D01*
X165054197Y-97277383D01*
X165017523Y-97328234D01*
X164925963Y-97390457D01*
X164865158Y-97405843D01*
X164826814Y-97416299D01*
X164824278Y-97416187D01*
X164818646Y-97417613D01*
X164735573Y-97412823D01*
X164305822Y-97330844D01*
X164226820Y-97304716D01*
X164222110Y-97301319D01*
X164219705Y-97300487D01*
X164187836Y-97276600D01*
X164137035Y-97239961D01*
X164074812Y-97148402D01*
X164059438Y-97087648D01*
X164048969Y-97049253D01*
X164049080Y-97046713D01*
X164047656Y-97041085D01*
X164052446Y-96958012D01*
X164148479Y-96454589D01*
X164174606Y-96375587D01*
X164178002Y-96370877D01*
X164178835Y-96368472D01*
X164202731Y-96336590D01*
X164239361Y-96285802D01*
X164330921Y-96223579D01*
X164391660Y-96208209D01*
X164430069Y-96197736D01*
X164432609Y-96197847D01*
X164438238Y-96196423D01*
X164521311Y-96201213D01*
G37*
G36*
X162974209Y-95906087D02*
G01*
X163403960Y-95988066D01*
X163482962Y-96014194D01*
X163487669Y-96017589D01*
X163490076Y-96018422D01*
X163521953Y-96042315D01*
X163572747Y-96078949D01*
X163634970Y-96170508D01*
X163650352Y-96231298D01*
X163660812Y-96269656D01*
X163660700Y-96272192D01*
X163662126Y-96277825D01*
X163657336Y-96360898D01*
X163561303Y-96864321D01*
X163535176Y-96943323D01*
X163531776Y-96948035D01*
X163530946Y-96950437D01*
X163507095Y-96982257D01*
X163470421Y-97033108D01*
X163378861Y-97095331D01*
X163318056Y-97110717D01*
X163279712Y-97121173D01*
X163277176Y-97121061D01*
X163271544Y-97122487D01*
X163188471Y-97117697D01*
X162758720Y-97035718D01*
X162679718Y-97009590D01*
X162675008Y-97006193D01*
X162672603Y-97005361D01*
X162640734Y-96981474D01*
X162589933Y-96944835D01*
X162527710Y-96853276D01*
X162512336Y-96792522D01*
X162501867Y-96754127D01*
X162501978Y-96751587D01*
X162500554Y-96745959D01*
X162505344Y-96662886D01*
X162601377Y-96159463D01*
X162627504Y-96080461D01*
X162630900Y-96075751D01*
X162631733Y-96073346D01*
X162655629Y-96041464D01*
X162692259Y-95990676D01*
X162783819Y-95928453D01*
X162844558Y-95913083D01*
X162882967Y-95902610D01*
X162885507Y-95902721D01*
X162891136Y-95901297D01*
X162974209Y-95906087D01*
G37*
G36*
X157258640Y-94715316D02*
G01*
X157263901Y-94717769D01*
X157266418Y-94718136D01*
X157302193Y-94735625D01*
X157358968Y-94762100D01*
X157437246Y-94840378D01*
X157463731Y-94897175D01*
X157481209Y-94932927D01*
X157481575Y-94935442D01*
X157484030Y-94940706D01*
X157494891Y-95023205D01*
X157494891Y-95535705D01*
X157484030Y-95618204D01*
X157481575Y-95623468D01*
X157481209Y-95625982D01*
X157463741Y-95661713D01*
X157437246Y-95718532D01*
X157358968Y-95796810D01*
X157302149Y-95823305D01*
X157266418Y-95840773D01*
X157263904Y-95841139D01*
X157258640Y-95843594D01*
X157176141Y-95854455D01*
X156738641Y-95854455D01*
X156656142Y-95843594D01*
X156650878Y-95841139D01*
X156648363Y-95840773D01*
X156612611Y-95823295D01*
X156555814Y-95796810D01*
X156477536Y-95718532D01*
X156451061Y-95661757D01*
X156433572Y-95625982D01*
X156433205Y-95623465D01*
X156430752Y-95618204D01*
X156419891Y-95535705D01*
X156419891Y-95023205D01*
X156430752Y-94940706D01*
X156433205Y-94935445D01*
X156433572Y-94932927D01*
X156451071Y-94897130D01*
X156477536Y-94840378D01*
X156555814Y-94762100D01*
X156612566Y-94735635D01*
X156648363Y-94718136D01*
X156650881Y-94717769D01*
X156656142Y-94715316D01*
X156738641Y-94704455D01*
X157176141Y-94704455D01*
X157258640Y-94715316D01*
G37*
G36*
X158833640Y-94715316D02*
G01*
X158838901Y-94717769D01*
X158841418Y-94718136D01*
X158877193Y-94735625D01*
X158933968Y-94762100D01*
X159012246Y-94840378D01*
X159038731Y-94897175D01*
X159056209Y-94932927D01*
X159056575Y-94935442D01*
X159059030Y-94940706D01*
X159069891Y-95023205D01*
X159069891Y-95535705D01*
X159059030Y-95618204D01*
X159056575Y-95623468D01*
X159056209Y-95625982D01*
X159038741Y-95661713D01*
X159012246Y-95718532D01*
X158933968Y-95796810D01*
X158877149Y-95823305D01*
X158841418Y-95840773D01*
X158838904Y-95841139D01*
X158833640Y-95843594D01*
X158751141Y-95854455D01*
X158313641Y-95854455D01*
X158231142Y-95843594D01*
X158225878Y-95841139D01*
X158223363Y-95840773D01*
X158187611Y-95823295D01*
X158130814Y-95796810D01*
X158052536Y-95718532D01*
X158026061Y-95661757D01*
X158008572Y-95625982D01*
X158008205Y-95623465D01*
X158005752Y-95618204D01*
X157994891Y-95535705D01*
X157994891Y-95023205D01*
X158005752Y-94940706D01*
X158008205Y-94935445D01*
X158008572Y-94932927D01*
X158026071Y-94897130D01*
X158052536Y-94840378D01*
X158130814Y-94762100D01*
X158187566Y-94735635D01*
X158223363Y-94718136D01*
X158225881Y-94717769D01*
X158231142Y-94715316D01*
X158313641Y-94704455D01*
X158751141Y-94704455D01*
X158833640Y-94715316D01*
G37*
G36*
X172978640Y-94205316D02*
G01*
X172983901Y-94207769D01*
X172986418Y-94208136D01*
X173022193Y-94225625D01*
X173078968Y-94252100D01*
X173157246Y-94330378D01*
X173183731Y-94387175D01*
X173201209Y-94422927D01*
X173201575Y-94425442D01*
X173204030Y-94430706D01*
X173214891Y-94513205D01*
X173214891Y-95025705D01*
X173204030Y-95108204D01*
X173201575Y-95113468D01*
X173201209Y-95115982D01*
X173183741Y-95151713D01*
X173157246Y-95208532D01*
X173078968Y-95286810D01*
X173022149Y-95313305D01*
X172986418Y-95330773D01*
X172983904Y-95331139D01*
X172978640Y-95333594D01*
X172896141Y-95344455D01*
X172458641Y-95344455D01*
X172376142Y-95333594D01*
X172370878Y-95331139D01*
X172368363Y-95330773D01*
X172332611Y-95313295D01*
X172275814Y-95286810D01*
X172197536Y-95208532D01*
X172171061Y-95151757D01*
X172153572Y-95115982D01*
X172153205Y-95113465D01*
X172150752Y-95108204D01*
X172139891Y-95025705D01*
X172139891Y-94513205D01*
X172150752Y-94430706D01*
X172153205Y-94425445D01*
X172153572Y-94422927D01*
X172171071Y-94387130D01*
X172197536Y-94330378D01*
X172275814Y-94252100D01*
X172332566Y-94225635D01*
X172368363Y-94208136D01*
X172370881Y-94207769D01*
X172376142Y-94205316D01*
X172458641Y-94194455D01*
X172896141Y-94194455D01*
X172978640Y-94205316D01*
G37*
G36*
X174553640Y-94205316D02*
G01*
X174558901Y-94207769D01*
X174561418Y-94208136D01*
X174597193Y-94225625D01*
X174653968Y-94252100D01*
X174732246Y-94330378D01*
X174758731Y-94387175D01*
X174776209Y-94422927D01*
X174776575Y-94425442D01*
X174779030Y-94430706D01*
X174789891Y-94513205D01*
X174789891Y-95025705D01*
X174779030Y-95108204D01*
X174776575Y-95113468D01*
X174776209Y-95115982D01*
X174758741Y-95151713D01*
X174732246Y-95208532D01*
X174653968Y-95286810D01*
X174597149Y-95313305D01*
X174561418Y-95330773D01*
X174558904Y-95331139D01*
X174553640Y-95333594D01*
X174471141Y-95344455D01*
X174033641Y-95344455D01*
X173951142Y-95333594D01*
X173945878Y-95331139D01*
X173943363Y-95330773D01*
X173907611Y-95313295D01*
X173850814Y-95286810D01*
X173772536Y-95208532D01*
X173746061Y-95151757D01*
X173728572Y-95115982D01*
X173728205Y-95113465D01*
X173725752Y-95108204D01*
X173714891Y-95025705D01*
X173714891Y-94513205D01*
X173725752Y-94430706D01*
X173728205Y-94425445D01*
X173728572Y-94422927D01*
X173746071Y-94387130D01*
X173772536Y-94330378D01*
X173850814Y-94252100D01*
X173907566Y-94225635D01*
X173943363Y-94208136D01*
X173945881Y-94207769D01*
X173951142Y-94205316D01*
X174033641Y-94194455D01*
X174471141Y-94194455D01*
X174553640Y-94205316D01*
G37*
G36*
X163302335Y-93299233D02*
G01*
X163307821Y-93301122D01*
X163310365Y-93301224D01*
X163347778Y-93314880D01*
X163407004Y-93335274D01*
X163493035Y-93404941D01*
X163525285Y-93458613D01*
X163546432Y-93492387D01*
X163547060Y-93494852D01*
X163550050Y-93499829D01*
X163569475Y-93580741D01*
X163623046Y-94090433D01*
X163620868Y-94173616D01*
X163618977Y-94179106D01*
X163618876Y-94181645D01*
X163605240Y-94219001D01*
X163584827Y-94278284D01*
X163515160Y-94364316D01*
X163461445Y-94396590D01*
X163427713Y-94417712D01*
X163425248Y-94418339D01*
X163420272Y-94421330D01*
X163339361Y-94440755D01*
X162904257Y-94486487D01*
X162821075Y-94484309D01*
X162815584Y-94482418D01*
X162813044Y-94482317D01*
X162775661Y-94468671D01*
X162716406Y-94448268D01*
X162630375Y-94378601D01*
X162598133Y-94324942D01*
X162576977Y-94291154D01*
X162576348Y-94288686D01*
X162573360Y-94283713D01*
X162553935Y-94202801D01*
X162524442Y-93922197D01*
X162500742Y-93696712D01*
X162500742Y-93696707D01*
X162500364Y-93693109D01*
X162502542Y-93609926D01*
X162504431Y-93604439D01*
X162504533Y-93601896D01*
X162518192Y-93564474D01*
X162538583Y-93505258D01*
X162608250Y-93419226D01*
X162661900Y-93386989D01*
X162695696Y-93365829D01*
X162698164Y-93365200D01*
X162703138Y-93362212D01*
X162784049Y-93342787D01*
X162787653Y-93342408D01*
X162787654Y-93342408D01*
X163215548Y-93297433D01*
X163215554Y-93297433D01*
X163219153Y-93297055D01*
X163302335Y-93299233D01*
G37*
G36*
X164868707Y-93134601D02*
G01*
X164874193Y-93136490D01*
X164876737Y-93136592D01*
X164914150Y-93150248D01*
X164973376Y-93170642D01*
X165059407Y-93240309D01*
X165091657Y-93293981D01*
X165112804Y-93327755D01*
X165113432Y-93330220D01*
X165116422Y-93335197D01*
X165135847Y-93416109D01*
X165189418Y-93925801D01*
X165187240Y-94008984D01*
X165185349Y-94014474D01*
X165185248Y-94017013D01*
X165171612Y-94054369D01*
X165151199Y-94113652D01*
X165081532Y-94199684D01*
X165027817Y-94231958D01*
X164994085Y-94253080D01*
X164991620Y-94253707D01*
X164986644Y-94256698D01*
X164905733Y-94276123D01*
X164470629Y-94321855D01*
X164387447Y-94319677D01*
X164381956Y-94317786D01*
X164379416Y-94317685D01*
X164342033Y-94304039D01*
X164282778Y-94283636D01*
X164196747Y-94213969D01*
X164164505Y-94160310D01*
X164143349Y-94126522D01*
X164142720Y-94124054D01*
X164139732Y-94119081D01*
X164120307Y-94038169D01*
X164084181Y-93694455D01*
X164067114Y-93532080D01*
X164067114Y-93532075D01*
X164066736Y-93528477D01*
X164068914Y-93445294D01*
X164070803Y-93439807D01*
X164070905Y-93437264D01*
X164084564Y-93399842D01*
X164104955Y-93340626D01*
X164174622Y-93254594D01*
X164228272Y-93222357D01*
X164262068Y-93201197D01*
X164264536Y-93200568D01*
X164269510Y-93197580D01*
X164350421Y-93178155D01*
X164354025Y-93177776D01*
X164354026Y-93177776D01*
X164781920Y-93132801D01*
X164781926Y-93132801D01*
X164785525Y-93132423D01*
X164868707Y-93134601D01*
G37*
G36*
X155895767Y-92157952D02*
G01*
X155933409Y-92170875D01*
X155935446Y-92172394D01*
X155940902Y-92174380D01*
X156006918Y-92225036D01*
X156369310Y-92587428D01*
X156419966Y-92653444D01*
X156421952Y-92658901D01*
X156423471Y-92660938D01*
X156436389Y-92698567D01*
X156457827Y-92757468D01*
X156457827Y-92868169D01*
X156436379Y-92927095D01*
X156423470Y-92964700D01*
X156421952Y-92966735D01*
X156419966Y-92972193D01*
X156369310Y-93038209D01*
X156059951Y-93347568D01*
X155993935Y-93398224D01*
X155988475Y-93400210D01*
X155986440Y-93401729D01*
X155948821Y-93414643D01*
X155889911Y-93436085D01*
X155779210Y-93436085D01*
X155720300Y-93414644D01*
X155682678Y-93401728D01*
X155680641Y-93400209D01*
X155675186Y-93398224D01*
X155609170Y-93347568D01*
X155246778Y-92985176D01*
X155196122Y-92919160D01*
X155194136Y-92913703D01*
X155192616Y-92911665D01*
X155179693Y-92874022D01*
X155158261Y-92815136D01*
X155158261Y-92704435D01*
X155179691Y-92645555D01*
X155192617Y-92607903D01*
X155194137Y-92605864D01*
X155196122Y-92600411D01*
X155246778Y-92534395D01*
X155556137Y-92225036D01*
X155622153Y-92174380D01*
X155627607Y-92172394D01*
X155629647Y-92170874D01*
X155667306Y-92157945D01*
X155726177Y-92136519D01*
X155836878Y-92136519D01*
X155895767Y-92157952D01*
G37*
G36*
X140406962Y-91712384D02*
G01*
X140409021Y-91717355D01*
X140414946Y-91719810D01*
X140434836Y-91719810D01*
X140440760Y-91717355D01*
X140442820Y-91712384D01*
X140449891Y-91709455D01*
X140799891Y-91709455D01*
X140806962Y-91712384D01*
X140809021Y-91717355D01*
X140814946Y-91719810D01*
X140834836Y-91719810D01*
X140840760Y-91717355D01*
X140842820Y-91712384D01*
X140849891Y-91709455D01*
X141199891Y-91709455D01*
X141206962Y-91712384D01*
X141209021Y-91717355D01*
X141214946Y-91719810D01*
X141234836Y-91719810D01*
X141240760Y-91717355D01*
X141242820Y-91712384D01*
X141249891Y-91709455D01*
X141599891Y-91709455D01*
X141606962Y-91712384D01*
X141609021Y-91717355D01*
X141614946Y-91719810D01*
X141634836Y-91719810D01*
X141640760Y-91717355D01*
X141642820Y-91712384D01*
X141649891Y-91709455D01*
X141999891Y-91709455D01*
X142006962Y-91712384D01*
X142009021Y-91717355D01*
X142014946Y-91719810D01*
X142034836Y-91719810D01*
X142040760Y-91717355D01*
X142042820Y-91712384D01*
X142049891Y-91709455D01*
X142399891Y-91709455D01*
X142406962Y-91712384D01*
X142409021Y-91717355D01*
X142414946Y-91719810D01*
X142434836Y-91719810D01*
X142440760Y-91717355D01*
X142442820Y-91712384D01*
X142449891Y-91709455D01*
X142799891Y-91709455D01*
X142806962Y-91712384D01*
X142809021Y-91717355D01*
X142814946Y-91719810D01*
X142834836Y-91719810D01*
X142840760Y-91717355D01*
X142842820Y-91712384D01*
X142849891Y-91709455D01*
X143199891Y-91709455D01*
X143206962Y-91712384D01*
X143209021Y-91717355D01*
X143214946Y-91719810D01*
X143234836Y-91719810D01*
X143240760Y-91717355D01*
X143242820Y-91712384D01*
X143249891Y-91709455D01*
X143599891Y-91709455D01*
X143606962Y-91712384D01*
X143609021Y-91717355D01*
X143614946Y-91719810D01*
X143634836Y-91719810D01*
X143640760Y-91717355D01*
X143642820Y-91712384D01*
X143649891Y-91709455D01*
X143999891Y-91709455D01*
X144006962Y-91712384D01*
X144009021Y-91717355D01*
X144014946Y-91719810D01*
X144034836Y-91719810D01*
X144040760Y-91717355D01*
X144042820Y-91712384D01*
X144049891Y-91709455D01*
X144399891Y-91709455D01*
X144406962Y-91712384D01*
X144409021Y-91717355D01*
X144414946Y-91719810D01*
X144434836Y-91719810D01*
X144440760Y-91717355D01*
X144442820Y-91712384D01*
X144449891Y-91709455D01*
X144799891Y-91709455D01*
X144806962Y-91712384D01*
X144809021Y-91717355D01*
X144814946Y-91719810D01*
X144834836Y-91719810D01*
X144840760Y-91717355D01*
X144842820Y-91712384D01*
X144849891Y-91709455D01*
X145199891Y-91709455D01*
X145206962Y-91712384D01*
X145209891Y-91719455D01*
X145209891Y-92392455D01*
X145206962Y-92399526D01*
X145029962Y-92576526D01*
X145022891Y-92579455D01*
X145012947Y-92579455D01*
X144859838Y-92579455D01*
X144849891Y-92579455D01*
X144842820Y-92576526D01*
X144840759Y-92571552D01*
X144834837Y-92569099D01*
X144814945Y-92569099D01*
X144809022Y-92571552D01*
X144806962Y-92576526D01*
X144799891Y-92579455D01*
X144789944Y-92579455D01*
X144459838Y-92579455D01*
X144449891Y-92579455D01*
X144442820Y-92576526D01*
X144440759Y-92571552D01*
X144434837Y-92569099D01*
X144414945Y-92569099D01*
X144409022Y-92571552D01*
X144406962Y-92576526D01*
X144399891Y-92579455D01*
X144389944Y-92579455D01*
X144059838Y-92579455D01*
X144049891Y-92579455D01*
X144042820Y-92576526D01*
X144040759Y-92571552D01*
X144034837Y-92569099D01*
X144014945Y-92569099D01*
X144009022Y-92571552D01*
X144006962Y-92576526D01*
X143999891Y-92579455D01*
X143989944Y-92579455D01*
X143659838Y-92579455D01*
X143649891Y-92579455D01*
X143642820Y-92576526D01*
X143640759Y-92571552D01*
X143634837Y-92569099D01*
X143614945Y-92569099D01*
X143609022Y-92571552D01*
X143606962Y-92576526D01*
X143599891Y-92579455D01*
X143589944Y-92579455D01*
X143259838Y-92579455D01*
X143249891Y-92579455D01*
X143242820Y-92576526D01*
X143240759Y-92571552D01*
X143234837Y-92569099D01*
X143214945Y-92569099D01*
X143209022Y-92571552D01*
X143206962Y-92576526D01*
X143199891Y-92579455D01*
X143189944Y-92579455D01*
X142859838Y-92579455D01*
X142849891Y-92579455D01*
X142842820Y-92576526D01*
X142840759Y-92571552D01*
X142834837Y-92569099D01*
X142814945Y-92569099D01*
X142809022Y-92571552D01*
X142806962Y-92576526D01*
X142799891Y-92579455D01*
X142789944Y-92579455D01*
X142459838Y-92579455D01*
X142449891Y-92579455D01*
X142442820Y-92576526D01*
X142440759Y-92571552D01*
X142434837Y-92569099D01*
X142414945Y-92569099D01*
X142409022Y-92571552D01*
X142406962Y-92576526D01*
X142399891Y-92579455D01*
X142389944Y-92579455D01*
X142059838Y-92579455D01*
X142049891Y-92579455D01*
X142042820Y-92576526D01*
X142040759Y-92571552D01*
X142034837Y-92569099D01*
X142014945Y-92569099D01*
X142009022Y-92571552D01*
X142006962Y-92576526D01*
X141999891Y-92579455D01*
X141989944Y-92579455D01*
X141659838Y-92579455D01*
X141649891Y-92579455D01*
X141642820Y-92576526D01*
X141640759Y-92571552D01*
X141634837Y-92569099D01*
X141614945Y-92569099D01*
X141609022Y-92571552D01*
X141606962Y-92576526D01*
X141599891Y-92579455D01*
X141589944Y-92579455D01*
X141259838Y-92579455D01*
X141249891Y-92579455D01*
X141242820Y-92576526D01*
X141240759Y-92571552D01*
X141234837Y-92569099D01*
X141214945Y-92569099D01*
X141209022Y-92571552D01*
X141206962Y-92576526D01*
X141199891Y-92579455D01*
X141189944Y-92579455D01*
X140859838Y-92579455D01*
X140849891Y-92579455D01*
X140842820Y-92576526D01*
X140840759Y-92571552D01*
X140834837Y-92569099D01*
X140814945Y-92569099D01*
X140809022Y-92571552D01*
X140806962Y-92576526D01*
X140799891Y-92579455D01*
X140789944Y-92579455D01*
X140459838Y-92579455D01*
X140449891Y-92579455D01*
X140442820Y-92576526D01*
X140440759Y-92571552D01*
X140434837Y-92569099D01*
X140414945Y-92569099D01*
X140409022Y-92571552D01*
X140406962Y-92576526D01*
X140399891Y-92579455D01*
X140389944Y-92579455D01*
X140236835Y-92579455D01*
X140226891Y-92579455D01*
X140219820Y-92576526D01*
X140042820Y-92399526D01*
X140039891Y-92392455D01*
X140039891Y-91719455D01*
X140042820Y-91712384D01*
X140049891Y-91709455D01*
X140399891Y-91709455D01*
X140406962Y-91712384D01*
G37*
G36*
X154153640Y-91470316D02*
G01*
X154158901Y-91472769D01*
X154161418Y-91473136D01*
X154197193Y-91490625D01*
X154253968Y-91517100D01*
X154332246Y-91595378D01*
X154358731Y-91652175D01*
X154376209Y-91687927D01*
X154376575Y-91690442D01*
X154379030Y-91695706D01*
X154389891Y-91778205D01*
X154389891Y-92215705D01*
X154379030Y-92298204D01*
X154376575Y-92303468D01*
X154376209Y-92305982D01*
X154358741Y-92341713D01*
X154332246Y-92398532D01*
X154253968Y-92476810D01*
X154197149Y-92503305D01*
X154161418Y-92520773D01*
X154158904Y-92521139D01*
X154153640Y-92523594D01*
X154071141Y-92534455D01*
X153558641Y-92534455D01*
X153476142Y-92523594D01*
X153470878Y-92521139D01*
X153468363Y-92520773D01*
X153432611Y-92503295D01*
X153375814Y-92476810D01*
X153297536Y-92398532D01*
X153271061Y-92341757D01*
X153253572Y-92305982D01*
X153253205Y-92303465D01*
X153250752Y-92298204D01*
X153239891Y-92215705D01*
X153239891Y-91778205D01*
X153250752Y-91695706D01*
X153253205Y-91690445D01*
X153253572Y-91687927D01*
X153271071Y-91652130D01*
X153297536Y-91595378D01*
X153375814Y-91517100D01*
X153432566Y-91490635D01*
X153468363Y-91473136D01*
X153470881Y-91472769D01*
X153476142Y-91470316D01*
X153558641Y-91459455D01*
X154071141Y-91459455D01*
X154153640Y-91470316D01*
G37*
G36*
X157009461Y-91044258D02*
G01*
X157047103Y-91057181D01*
X157049140Y-91058700D01*
X157054596Y-91060686D01*
X157120612Y-91111342D01*
X157483004Y-91473734D01*
X157533660Y-91539750D01*
X157535646Y-91545207D01*
X157537165Y-91547244D01*
X157550083Y-91584873D01*
X157571521Y-91643774D01*
X157571521Y-91754475D01*
X157550073Y-91813401D01*
X157537164Y-91851006D01*
X157535646Y-91853041D01*
X157533660Y-91858499D01*
X157483004Y-91924515D01*
X157173645Y-92233874D01*
X157107629Y-92284530D01*
X157102169Y-92286516D01*
X157100134Y-92288035D01*
X157062515Y-92300949D01*
X157003605Y-92322391D01*
X156892904Y-92322391D01*
X156833994Y-92300950D01*
X156796372Y-92288034D01*
X156794335Y-92286515D01*
X156788880Y-92284530D01*
X156722864Y-92233874D01*
X156360472Y-91871482D01*
X156309816Y-91805466D01*
X156307830Y-91800009D01*
X156306310Y-91797971D01*
X156293387Y-91760328D01*
X156271955Y-91701442D01*
X156271955Y-91590741D01*
X156293385Y-91531861D01*
X156306311Y-91494209D01*
X156307831Y-91492170D01*
X156309816Y-91486717D01*
X156360472Y-91420701D01*
X156669831Y-91111342D01*
X156735847Y-91060686D01*
X156741301Y-91058700D01*
X156743341Y-91057180D01*
X156781000Y-91044251D01*
X156839871Y-91022825D01*
X156950572Y-91022825D01*
X157009461Y-91044258D01*
G37*
G36*
X172513674Y-90879825D02*
G01*
X172516216Y-90879750D01*
X172554496Y-90890764D01*
X172614993Y-90906975D01*
X172705675Y-90970471D01*
X172741626Y-91021814D01*
X172765042Y-91053981D01*
X172765839Y-91056393D01*
X172769170Y-91061150D01*
X172794192Y-91140510D01*
X172883187Y-91645224D01*
X172886816Y-91728356D01*
X172885313Y-91733964D01*
X172885389Y-91736506D01*
X172874380Y-91774764D01*
X172858165Y-91835283D01*
X172794669Y-91925965D01*
X172743290Y-91961940D01*
X172711158Y-91985331D01*
X172708748Y-91986127D01*
X172703989Y-91989460D01*
X172624629Y-92014482D01*
X172193776Y-92090453D01*
X172110644Y-92094083D01*
X172105031Y-92092579D01*
X172102493Y-92092655D01*
X172064249Y-92081651D01*
X172003717Y-92065431D01*
X171913035Y-92001935D01*
X171877090Y-91950601D01*
X171853667Y-91918424D01*
X171852869Y-91916010D01*
X171849540Y-91911256D01*
X171824518Y-91831896D01*
X171735523Y-91327182D01*
X171731894Y-91244050D01*
X171733396Y-91238444D01*
X171733320Y-91235899D01*
X171744346Y-91197576D01*
X171760545Y-91137123D01*
X171824041Y-91046441D01*
X171875356Y-91010509D01*
X171907551Y-90987074D01*
X171909965Y-90986276D01*
X171914721Y-90982946D01*
X171994081Y-90957924D01*
X171997649Y-90957294D01*
X171997652Y-90957294D01*
X172421361Y-90882583D01*
X172421361Y-90882582D01*
X172424934Y-90881953D01*
X172508066Y-90878323D01*
X172513674Y-90879825D01*
G37*
G36*
X162406062Y-90739671D02*
G01*
X162468640Y-90742076D01*
X162571135Y-90783904D01*
X162617514Y-90825958D01*
X162647526Y-90852182D01*
X162648840Y-90854361D01*
X162653143Y-90858263D01*
X162695125Y-90930107D01*
X162842083Y-91279709D01*
X162892323Y-91399223D01*
X162892323Y-91399226D01*
X162893726Y-91402562D01*
X162915684Y-91482823D01*
X162915461Y-91488625D01*
X162916098Y-91491086D01*
X162913840Y-91530809D01*
X162911434Y-91593442D01*
X162869606Y-91695937D01*
X162827479Y-91742396D01*
X162801322Y-91772331D01*
X162799147Y-91773641D01*
X162795247Y-91777944D01*
X162723403Y-91819926D01*
X162320088Y-91989464D01*
X162239826Y-92011422D01*
X162234023Y-92011199D01*
X162231562Y-92011836D01*
X162191836Y-92009578D01*
X162129208Y-92007172D01*
X162026713Y-91965344D01*
X161980329Y-91923286D01*
X161950321Y-91897065D01*
X161949006Y-91894885D01*
X161944705Y-91890985D01*
X161902723Y-91819141D01*
X161785278Y-91539750D01*
X161705524Y-91350024D01*
X161705522Y-91350016D01*
X161704122Y-91346686D01*
X161682164Y-91266425D01*
X161682386Y-91260625D01*
X161681749Y-91258161D01*
X161684009Y-91218381D01*
X161686414Y-91155806D01*
X161728242Y-91053311D01*
X161770317Y-91006908D01*
X161796525Y-90976916D01*
X161798703Y-90975602D01*
X161802601Y-90971304D01*
X161874445Y-90929322D01*
X162043488Y-90858263D01*
X162274420Y-90761187D01*
X162274426Y-90761185D01*
X162277760Y-90759784D01*
X162358022Y-90737826D01*
X162363820Y-90738048D01*
X162366285Y-90737411D01*
X162406062Y-90739671D01*
G37*
G36*
X174064746Y-90606329D02*
G01*
X174067288Y-90606254D01*
X174105568Y-90617268D01*
X174166065Y-90633479D01*
X174256747Y-90696975D01*
X174292698Y-90748318D01*
X174316114Y-90780485D01*
X174316911Y-90782897D01*
X174320242Y-90787654D01*
X174345264Y-90867014D01*
X174434259Y-91371728D01*
X174437888Y-91454860D01*
X174436385Y-91460468D01*
X174436461Y-91463010D01*
X174425452Y-91501268D01*
X174409237Y-91561787D01*
X174345741Y-91652469D01*
X174294362Y-91688444D01*
X174262230Y-91711835D01*
X174259820Y-91712631D01*
X174255061Y-91715964D01*
X174175701Y-91740986D01*
X173744848Y-91816957D01*
X173661716Y-91820587D01*
X173656103Y-91819083D01*
X173653565Y-91819159D01*
X173615321Y-91808155D01*
X173554789Y-91791935D01*
X173464107Y-91728439D01*
X173428162Y-91677105D01*
X173404739Y-91644928D01*
X173403941Y-91642514D01*
X173400612Y-91637760D01*
X173375590Y-91558400D01*
X173286595Y-91053686D01*
X173282966Y-90970554D01*
X173284468Y-90964948D01*
X173284392Y-90962403D01*
X173295418Y-90924080D01*
X173311617Y-90863627D01*
X173375113Y-90772945D01*
X173426428Y-90737013D01*
X173458623Y-90713578D01*
X173461037Y-90712780D01*
X173465793Y-90709450D01*
X173545153Y-90684428D01*
X173548721Y-90683798D01*
X173548724Y-90683798D01*
X173972433Y-90609087D01*
X173972433Y-90609086D01*
X173976006Y-90608457D01*
X174059138Y-90604827D01*
X174064746Y-90606329D01*
G37*
G36*
X163857996Y-90129333D02*
G01*
X163920574Y-90131738D01*
X164023069Y-90173566D01*
X164069448Y-90215620D01*
X164099460Y-90241844D01*
X164100774Y-90244023D01*
X164105077Y-90247925D01*
X164147059Y-90319769D01*
X164294017Y-90669371D01*
X164344257Y-90788885D01*
X164344257Y-90788888D01*
X164345660Y-90792224D01*
X164367618Y-90872485D01*
X164367395Y-90878287D01*
X164368032Y-90880748D01*
X164365774Y-90920471D01*
X164363368Y-90983104D01*
X164321540Y-91085599D01*
X164279413Y-91132058D01*
X164253256Y-91161993D01*
X164251081Y-91163303D01*
X164247181Y-91167606D01*
X164175337Y-91209588D01*
X163772022Y-91379126D01*
X163691760Y-91401084D01*
X163685957Y-91400861D01*
X163683496Y-91401498D01*
X163643770Y-91399240D01*
X163581142Y-91396834D01*
X163478647Y-91355006D01*
X163432263Y-91312948D01*
X163402255Y-91286727D01*
X163400940Y-91284547D01*
X163396639Y-91280647D01*
X163354657Y-91208803D01*
X163237174Y-90929322D01*
X163157458Y-90739686D01*
X163157456Y-90739678D01*
X163156056Y-90736348D01*
X163134098Y-90656087D01*
X163134320Y-90650287D01*
X163133683Y-90647823D01*
X163135943Y-90608043D01*
X163138348Y-90545468D01*
X163180176Y-90442973D01*
X163222251Y-90396570D01*
X163248459Y-90366578D01*
X163250637Y-90365264D01*
X163254535Y-90360966D01*
X163326379Y-90318984D01*
X163495422Y-90247925D01*
X163726354Y-90150849D01*
X163726360Y-90150847D01*
X163729694Y-90149446D01*
X163809956Y-90127488D01*
X163815754Y-90127710D01*
X163818219Y-90127073D01*
X163857996Y-90129333D01*
G37*
G36*
X154153640Y-89895316D02*
G01*
X154158901Y-89897769D01*
X154161418Y-89898136D01*
X154197193Y-89915625D01*
X154253968Y-89942100D01*
X154332246Y-90020378D01*
X154358731Y-90077175D01*
X154376209Y-90112927D01*
X154376575Y-90115442D01*
X154379030Y-90120706D01*
X154389891Y-90203205D01*
X154389891Y-90640705D01*
X154379030Y-90723204D01*
X154376575Y-90728468D01*
X154376209Y-90730982D01*
X154358741Y-90766713D01*
X154332246Y-90823532D01*
X154253968Y-90901810D01*
X154197149Y-90928305D01*
X154161418Y-90945773D01*
X154158904Y-90946139D01*
X154153640Y-90948594D01*
X154071141Y-90959455D01*
X153558641Y-90959455D01*
X153476142Y-90948594D01*
X153470878Y-90946139D01*
X153468363Y-90945773D01*
X153432611Y-90928295D01*
X153375814Y-90901810D01*
X153297536Y-90823532D01*
X153271061Y-90766757D01*
X153253572Y-90730982D01*
X153253205Y-90728465D01*
X153250752Y-90723204D01*
X153239891Y-90640705D01*
X153239891Y-90203205D01*
X153250752Y-90120706D01*
X153253205Y-90115445D01*
X153253572Y-90112927D01*
X153271071Y-90077130D01*
X153297536Y-90020378D01*
X153375814Y-89942100D01*
X153432566Y-89915635D01*
X153468363Y-89898136D01*
X153470881Y-89897769D01*
X153476142Y-89895316D01*
X153558641Y-89884455D01*
X154071141Y-89884455D01*
X154153640Y-89895316D01*
G37*
G36*
X160957968Y-88467240D02*
G01*
X161014548Y-88494106D01*
X161050834Y-88510526D01*
X161052720Y-88512231D01*
X161057968Y-88514723D01*
X161118923Y-88571367D01*
X161445603Y-88966255D01*
X161489821Y-89036744D01*
X161491284Y-89042361D01*
X161492605Y-89044533D01*
X161501925Y-89083213D01*
X161517725Y-89143870D01*
X161507307Y-89254080D01*
X161480436Y-89310668D01*
X161464020Y-89346948D01*
X161462313Y-89348835D01*
X161459824Y-89354079D01*
X161403181Y-89415035D01*
X161066081Y-89693908D01*
X160995591Y-89738126D01*
X160989969Y-89739590D01*
X160987800Y-89740910D01*
X160949151Y-89750222D01*
X160888466Y-89766030D01*
X160778256Y-89755612D01*
X160721650Y-89728734D01*
X160685389Y-89712325D01*
X160683503Y-89710620D01*
X160678256Y-89708129D01*
X160617301Y-89651485D01*
X160290621Y-89256597D01*
X160246403Y-89186108D01*
X160244940Y-89180491D01*
X160243618Y-89178318D01*
X160234288Y-89139599D01*
X160218499Y-89078982D01*
X160228917Y-88968772D01*
X160255756Y-88912248D01*
X160272203Y-88875903D01*
X160273912Y-88874011D01*
X160276400Y-88868773D01*
X160333043Y-88807817D01*
X160623811Y-88567273D01*
X160667350Y-88531254D01*
X160667352Y-88531252D01*
X160670143Y-88528944D01*
X160740633Y-88484726D01*
X160746249Y-88483262D01*
X160748423Y-88481941D01*
X160787135Y-88472612D01*
X160847758Y-88456822D01*
X160957968Y-88467240D01*
G37*
G36*
X171488708Y-87689840D02*
G01*
X171551047Y-87695294D01*
X171651377Y-87742079D01*
X171695686Y-87786387D01*
X171724342Y-87814009D01*
X171725547Y-87816248D01*
X171729654Y-87820355D01*
X171768076Y-87894164D01*
X171943361Y-88375756D01*
X171961372Y-88456995D01*
X171960865Y-88462778D01*
X171961382Y-88465268D01*
X171957184Y-88504851D01*
X171951723Y-88567273D01*
X171904939Y-88667603D01*
X171860583Y-88711958D01*
X171833006Y-88740568D01*
X171830771Y-88741770D01*
X171826662Y-88745880D01*
X171752853Y-88784302D01*
X171341738Y-88933936D01*
X171260499Y-88951946D01*
X171254718Y-88951440D01*
X171252226Y-88951957D01*
X171212607Y-88947756D01*
X171150221Y-88942298D01*
X171049891Y-88895513D01*
X171005580Y-88851203D01*
X170976925Y-88823582D01*
X170975719Y-88821342D01*
X170971614Y-88817237D01*
X170933192Y-88743428D01*
X170757907Y-88261836D01*
X170739896Y-88180597D01*
X170740401Y-88174816D01*
X170739885Y-88172323D01*
X170744088Y-88132680D01*
X170749545Y-88070319D01*
X170796329Y-87969989D01*
X170840630Y-87925687D01*
X170868261Y-87897023D01*
X170870500Y-87895817D01*
X170874606Y-87891712D01*
X170948415Y-87853290D01*
X171256983Y-87740980D01*
X171356130Y-87704893D01*
X171356133Y-87704892D01*
X171359530Y-87703656D01*
X171440769Y-87685646D01*
X171446545Y-87686151D01*
X171449041Y-87685634D01*
X171488708Y-87689840D01*
G37*
G36*
X162171526Y-87463298D02*
G01*
X162228106Y-87490164D01*
X162264392Y-87506584D01*
X162266278Y-87508289D01*
X162271526Y-87510781D01*
X162332481Y-87567425D01*
X162659161Y-87962313D01*
X162703379Y-88032802D01*
X162704842Y-88038419D01*
X162706163Y-88040591D01*
X162715483Y-88079271D01*
X162731283Y-88139928D01*
X162720865Y-88250138D01*
X162693994Y-88306726D01*
X162677578Y-88343006D01*
X162675871Y-88344893D01*
X162673382Y-88350137D01*
X162616739Y-88411093D01*
X162279639Y-88689966D01*
X162209149Y-88734184D01*
X162203527Y-88735648D01*
X162201358Y-88736968D01*
X162162709Y-88746280D01*
X162102024Y-88762088D01*
X161991814Y-88751670D01*
X161935208Y-88724792D01*
X161898947Y-88708383D01*
X161897061Y-88706678D01*
X161891814Y-88704187D01*
X161830859Y-88647543D01*
X161504179Y-88252655D01*
X161459961Y-88182166D01*
X161458498Y-88176549D01*
X161457176Y-88174376D01*
X161447846Y-88135657D01*
X161432057Y-88075040D01*
X161442475Y-87964830D01*
X161469314Y-87908306D01*
X161485761Y-87871961D01*
X161487470Y-87870069D01*
X161489958Y-87864831D01*
X161546601Y-87803875D01*
X161777874Y-87612549D01*
X161880908Y-87527312D01*
X161880910Y-87527310D01*
X161883701Y-87525002D01*
X161954191Y-87480784D01*
X161959807Y-87479320D01*
X161961981Y-87477999D01*
X162000693Y-87468670D01*
X162061316Y-87452880D01*
X162171526Y-87463298D01*
G37*
G36*
X137398576Y-87472424D02*
G01*
X137407249Y-87476253D01*
X137414816Y-87477356D01*
X137462114Y-87500478D01*
X137499432Y-87516956D01*
X137502887Y-87520411D01*
X137503811Y-87520863D01*
X137573482Y-87590534D01*
X137573933Y-87591457D01*
X137577390Y-87594914D01*
X137593869Y-87632237D01*
X137616989Y-87679528D01*
X137618091Y-87687094D01*
X137621922Y-87695770D01*
X137629891Y-87764455D01*
X137629891Y-88314455D01*
X137621922Y-88383140D01*
X137618090Y-88391816D01*
X137616989Y-88399380D01*
X137593876Y-88446657D01*
X137577390Y-88483996D01*
X137573932Y-88487453D01*
X137573482Y-88488375D01*
X137503811Y-88558046D01*
X137502889Y-88558496D01*
X137499432Y-88561954D01*
X137462098Y-88578438D01*
X137414817Y-88601553D01*
X137407252Y-88602655D01*
X137398576Y-88606486D01*
X137329891Y-88614455D01*
X136929891Y-88614455D01*
X136861206Y-88606486D01*
X136852529Y-88602655D01*
X136844965Y-88601553D01*
X136797678Y-88578436D01*
X136760350Y-88561954D01*
X136756893Y-88558497D01*
X136755970Y-88558046D01*
X136686299Y-88488375D01*
X136685847Y-88487451D01*
X136682392Y-88483996D01*
X136665916Y-88446683D01*
X136642792Y-88399381D01*
X136641689Y-88391812D01*
X136637860Y-88383140D01*
X136629891Y-88314455D01*
X136629891Y-87764455D01*
X136637860Y-87695770D01*
X136641689Y-87687097D01*
X136642792Y-87679529D01*
X136665919Y-87632221D01*
X136682392Y-87594914D01*
X136685846Y-87591459D01*
X136686299Y-87590534D01*
X136755970Y-87520863D01*
X136756895Y-87520410D01*
X136760350Y-87516956D01*
X136797652Y-87500485D01*
X136844964Y-87477356D01*
X136852533Y-87476253D01*
X136861206Y-87472424D01*
X136929891Y-87464455D01*
X137329891Y-87464455D01*
X137398576Y-87472424D01*
G37*
G36*
X139048576Y-87472424D02*
G01*
X139057249Y-87476253D01*
X139064816Y-87477356D01*
X139112114Y-87500478D01*
X139149432Y-87516956D01*
X139152887Y-87520411D01*
X139153811Y-87520863D01*
X139223482Y-87590534D01*
X139223933Y-87591457D01*
X139227390Y-87594914D01*
X139243869Y-87632237D01*
X139266989Y-87679528D01*
X139268091Y-87687094D01*
X139271922Y-87695770D01*
X139279891Y-87764455D01*
X139279891Y-88314455D01*
X139271922Y-88383140D01*
X139268090Y-88391816D01*
X139266989Y-88399380D01*
X139243876Y-88446657D01*
X139227390Y-88483996D01*
X139223932Y-88487453D01*
X139223482Y-88488375D01*
X139153811Y-88558046D01*
X139152889Y-88558496D01*
X139149432Y-88561954D01*
X139112098Y-88578438D01*
X139064817Y-88601553D01*
X139057252Y-88602655D01*
X139048576Y-88606486D01*
X138979891Y-88614455D01*
X138579891Y-88614455D01*
X138511206Y-88606486D01*
X138502529Y-88602655D01*
X138494965Y-88601553D01*
X138447678Y-88578436D01*
X138410350Y-88561954D01*
X138406893Y-88558497D01*
X138405970Y-88558046D01*
X138336299Y-88488375D01*
X138335847Y-88487451D01*
X138332392Y-88483996D01*
X138315916Y-88446683D01*
X138292792Y-88399381D01*
X138291689Y-88391812D01*
X138287860Y-88383140D01*
X138279891Y-88314455D01*
X138279891Y-87764455D01*
X138287860Y-87695770D01*
X138291689Y-87687097D01*
X138292792Y-87679529D01*
X138315919Y-87632221D01*
X138332392Y-87594914D01*
X138335846Y-87591459D01*
X138336299Y-87590534D01*
X138405970Y-87520863D01*
X138406895Y-87520410D01*
X138410350Y-87516956D01*
X138447652Y-87500485D01*
X138494964Y-87477356D01*
X138502533Y-87476253D01*
X138511206Y-87472424D01*
X138579891Y-87464455D01*
X138979891Y-87464455D01*
X139048576Y-87472424D01*
G37*
G36*
X172968724Y-87151158D02*
G01*
X173031063Y-87156612D01*
X173131393Y-87203397D01*
X173175702Y-87247705D01*
X173204358Y-87275327D01*
X173205563Y-87277566D01*
X173209670Y-87281673D01*
X173248092Y-87355482D01*
X173423377Y-87837074D01*
X173441388Y-87918313D01*
X173440881Y-87924096D01*
X173441398Y-87926586D01*
X173437200Y-87966169D01*
X173431739Y-88028591D01*
X173384955Y-88128921D01*
X173340599Y-88173276D01*
X173313022Y-88201886D01*
X173310787Y-88203088D01*
X173306678Y-88207198D01*
X173232869Y-88245620D01*
X172821754Y-88395254D01*
X172740515Y-88413264D01*
X172734734Y-88412758D01*
X172732242Y-88413275D01*
X172692623Y-88409074D01*
X172630237Y-88403616D01*
X172529907Y-88356831D01*
X172485596Y-88312521D01*
X172456941Y-88284900D01*
X172455735Y-88282660D01*
X172451630Y-88278555D01*
X172413208Y-88204746D01*
X172237923Y-87723154D01*
X172219912Y-87641915D01*
X172220417Y-87636134D01*
X172219901Y-87633641D01*
X172224104Y-87593998D01*
X172229561Y-87531637D01*
X172276345Y-87431307D01*
X172320646Y-87387005D01*
X172348277Y-87358341D01*
X172350516Y-87357135D01*
X172354622Y-87353030D01*
X172428431Y-87314608D01*
X172738763Y-87201656D01*
X172836146Y-87166211D01*
X172836149Y-87166210D01*
X172839546Y-87164974D01*
X172920785Y-87146964D01*
X172926561Y-87147469D01*
X172929057Y-87146952D01*
X172968724Y-87151158D01*
G37*
G36*
X158820876Y-86722085D02*
G01*
X158860343Y-86727315D01*
X158862641Y-86728401D01*
X158868381Y-86729270D01*
X158943107Y-86765878D01*
X159369979Y-87049491D01*
X159432684Y-87104192D01*
X159435709Y-87109148D01*
X159437600Y-87110844D01*
X159457692Y-87145162D01*
X159490359Y-87198680D01*
X159512240Y-87307198D01*
X159502868Y-87369168D01*
X159497642Y-87408615D01*
X159496555Y-87410913D01*
X159495687Y-87416653D01*
X159459079Y-87491379D01*
X159216970Y-87855782D01*
X159162270Y-87918486D01*
X159157313Y-87921511D01*
X159155617Y-87923403D01*
X159121300Y-87943494D01*
X159067782Y-87976162D01*
X158959264Y-87998043D01*
X158897267Y-87988667D01*
X158857846Y-87983444D01*
X158855550Y-87982358D01*
X158849809Y-87981490D01*
X158775083Y-87944882D01*
X158348211Y-87661269D01*
X158285506Y-87606568D01*
X158282480Y-87601611D01*
X158280589Y-87599915D01*
X158260487Y-87565580D01*
X158227831Y-87512080D01*
X158205950Y-87403562D01*
X158215312Y-87341651D01*
X158220547Y-87302144D01*
X158221635Y-87299842D01*
X158222503Y-87294107D01*
X158259111Y-87219381D01*
X158335867Y-87103853D01*
X158499213Y-86857996D01*
X158499220Y-86857988D01*
X158501220Y-86854978D01*
X158555920Y-86792274D01*
X158560872Y-86789251D01*
X158562572Y-86787356D01*
X158596953Y-86767227D01*
X158650408Y-86734598D01*
X158758926Y-86712717D01*
X158820876Y-86722085D01*
G37*
G36*
X137378576Y-85702424D02*
G01*
X137387249Y-85706253D01*
X137394816Y-85707356D01*
X137442114Y-85730478D01*
X137479432Y-85746956D01*
X137482887Y-85750411D01*
X137483811Y-85750863D01*
X137553482Y-85820534D01*
X137553933Y-85821457D01*
X137557390Y-85824914D01*
X137573869Y-85862237D01*
X137596989Y-85909528D01*
X137598091Y-85917094D01*
X137601922Y-85925770D01*
X137609891Y-85994455D01*
X137609891Y-86544455D01*
X137601922Y-86613140D01*
X137598090Y-86621816D01*
X137596989Y-86629380D01*
X137573876Y-86676657D01*
X137557390Y-86713996D01*
X137553932Y-86717453D01*
X137553482Y-86718375D01*
X137483811Y-86788046D01*
X137482889Y-86788496D01*
X137479432Y-86791954D01*
X137442098Y-86808438D01*
X137394817Y-86831553D01*
X137387252Y-86832655D01*
X137378576Y-86836486D01*
X137309891Y-86844455D01*
X136909891Y-86844455D01*
X136841206Y-86836486D01*
X136832529Y-86832655D01*
X136824965Y-86831553D01*
X136777678Y-86808436D01*
X136740350Y-86791954D01*
X136736893Y-86788497D01*
X136735970Y-86788046D01*
X136666299Y-86718375D01*
X136665847Y-86717451D01*
X136662392Y-86713996D01*
X136645916Y-86676683D01*
X136622792Y-86629381D01*
X136621689Y-86621812D01*
X136617860Y-86613140D01*
X136609891Y-86544455D01*
X136609891Y-85994455D01*
X136617860Y-85925770D01*
X136621689Y-85917097D01*
X136622792Y-85909529D01*
X136645919Y-85862221D01*
X136662392Y-85824914D01*
X136665846Y-85821459D01*
X136666299Y-85820534D01*
X136735970Y-85750863D01*
X136736895Y-85750410D01*
X136740350Y-85746956D01*
X136777652Y-85730485D01*
X136824964Y-85707356D01*
X136832533Y-85706253D01*
X136841206Y-85702424D01*
X136909891Y-85694455D01*
X137309891Y-85694455D01*
X137378576Y-85702424D01*
G37*
G36*
X139028576Y-85702424D02*
G01*
X139037249Y-85706253D01*
X139044816Y-85707356D01*
X139092114Y-85730478D01*
X139129432Y-85746956D01*
X139132887Y-85750411D01*
X139133811Y-85750863D01*
X139203482Y-85820534D01*
X139203933Y-85821457D01*
X139207390Y-85824914D01*
X139223869Y-85862237D01*
X139246989Y-85909528D01*
X139248091Y-85917094D01*
X139251922Y-85925770D01*
X139259891Y-85994455D01*
X139259891Y-86544455D01*
X139251922Y-86613140D01*
X139248090Y-86621816D01*
X139246989Y-86629380D01*
X139223876Y-86676657D01*
X139207390Y-86713996D01*
X139203932Y-86717453D01*
X139203482Y-86718375D01*
X139133811Y-86788046D01*
X139132889Y-86788496D01*
X139129432Y-86791954D01*
X139092098Y-86808438D01*
X139044817Y-86831553D01*
X139037252Y-86832655D01*
X139028576Y-86836486D01*
X138959891Y-86844455D01*
X138559891Y-86844455D01*
X138491206Y-86836486D01*
X138482529Y-86832655D01*
X138474965Y-86831553D01*
X138427678Y-86808436D01*
X138390350Y-86791954D01*
X138386893Y-86788497D01*
X138385970Y-86788046D01*
X138316299Y-86718375D01*
X138315847Y-86717451D01*
X138312392Y-86713996D01*
X138295916Y-86676683D01*
X138272792Y-86629381D01*
X138271689Y-86621812D01*
X138267860Y-86613140D01*
X138259891Y-86544455D01*
X138259891Y-85994455D01*
X138267860Y-85925770D01*
X138271689Y-85917097D01*
X138272792Y-85909529D01*
X138295919Y-85862221D01*
X138312392Y-85824914D01*
X138315846Y-85821459D01*
X138316299Y-85820534D01*
X138385970Y-85750863D01*
X138386895Y-85750410D01*
X138390350Y-85746956D01*
X138427652Y-85730485D01*
X138474964Y-85707356D01*
X138482533Y-85706253D01*
X138491206Y-85702424D01*
X138559891Y-85694455D01*
X138959891Y-85694455D01*
X139028576Y-85702424D01*
G37*
G36*
X156327319Y-85624720D02*
G01*
X156694687Y-85735635D01*
X156814479Y-85771802D01*
X156814480Y-85771802D01*
X156817946Y-85772849D01*
X156893784Y-85807091D01*
X156898110Y-85810959D01*
X156900412Y-85812037D01*
X156929587Y-85839103D01*
X156976308Y-85880877D01*
X157028621Y-85978439D01*
X157037560Y-86040472D01*
X157043958Y-86079745D01*
X157043581Y-86082259D01*
X157044410Y-86088007D01*
X157030962Y-86170124D01*
X156904511Y-86588951D01*
X156870269Y-86664790D01*
X156866398Y-86669119D01*
X156865322Y-86671418D01*
X156838294Y-86700551D01*
X156796484Y-86747314D01*
X156698922Y-86799626D01*
X156636876Y-86808566D01*
X156597615Y-86814963D01*
X156595101Y-86814586D01*
X156589354Y-86815415D01*
X156507237Y-86801968D01*
X156016610Y-86653839D01*
X155940772Y-86619597D01*
X155936444Y-86615727D01*
X155934143Y-86614650D01*
X155904970Y-86587586D01*
X155858248Y-86545811D01*
X155805935Y-86448249D01*
X155797002Y-86386260D01*
X155790597Y-86346942D01*
X155790973Y-86344424D01*
X155790146Y-86338681D01*
X155803594Y-86256564D01*
X155852489Y-86094614D01*
X155928998Y-85841203D01*
X155928999Y-85841199D01*
X155930045Y-85837737D01*
X155964287Y-85761898D01*
X155968154Y-85757572D01*
X155969233Y-85755269D01*
X155996312Y-85726078D01*
X156038072Y-85679374D01*
X156135634Y-85627062D01*
X156197617Y-85618130D01*
X156236940Y-85611724D01*
X156239457Y-85612100D01*
X156245202Y-85611273D01*
X156327319Y-85624720D01*
G37*
G36*
X159692468Y-85410235D02*
G01*
X159731935Y-85415465D01*
X159734233Y-85416551D01*
X159739973Y-85417420D01*
X159814699Y-85454028D01*
X160075136Y-85627062D01*
X160206265Y-85714184D01*
X160241571Y-85737641D01*
X160304276Y-85792342D01*
X160307301Y-85797298D01*
X160309192Y-85798994D01*
X160329284Y-85833312D01*
X160361951Y-85886830D01*
X160383832Y-85995348D01*
X160374460Y-86057318D01*
X160369234Y-86096765D01*
X160368147Y-86099063D01*
X160367279Y-86104803D01*
X160330671Y-86179529D01*
X160088562Y-86543932D01*
X160033862Y-86606636D01*
X160028905Y-86609661D01*
X160027209Y-86611553D01*
X159992892Y-86631644D01*
X159939374Y-86664312D01*
X159830856Y-86686193D01*
X159768859Y-86676817D01*
X159729438Y-86671594D01*
X159727142Y-86670508D01*
X159721401Y-86669640D01*
X159646675Y-86633032D01*
X159219803Y-86349419D01*
X159157098Y-86294718D01*
X159154072Y-86289761D01*
X159152181Y-86288065D01*
X159132079Y-86253730D01*
X159099423Y-86200230D01*
X159077542Y-86091712D01*
X159086904Y-86029801D01*
X159092139Y-85990294D01*
X159093227Y-85987992D01*
X159094095Y-85982257D01*
X159130703Y-85907531D01*
X159207459Y-85792003D01*
X159370805Y-85546146D01*
X159370812Y-85546138D01*
X159372812Y-85543128D01*
X159427512Y-85480424D01*
X159432464Y-85477401D01*
X159434164Y-85475506D01*
X159468545Y-85455377D01*
X159522000Y-85422748D01*
X159630518Y-85400867D01*
X159692468Y-85410235D01*
G37*
G36*
X154013640Y-85280316D02*
G01*
X154018901Y-85282769D01*
X154021418Y-85283136D01*
X154057193Y-85300625D01*
X154113968Y-85327100D01*
X154192246Y-85405378D01*
X154218731Y-85462175D01*
X154236209Y-85497927D01*
X154236575Y-85500442D01*
X154239030Y-85505706D01*
X154249891Y-85588205D01*
X154249891Y-86025705D01*
X154239030Y-86108204D01*
X154236575Y-86113468D01*
X154236209Y-86115982D01*
X154218741Y-86151713D01*
X154192246Y-86208532D01*
X154113968Y-86286810D01*
X154057149Y-86313305D01*
X154021418Y-86330773D01*
X154018904Y-86331139D01*
X154013640Y-86333594D01*
X153931141Y-86344455D01*
X153418641Y-86344455D01*
X153336142Y-86333594D01*
X153330878Y-86331139D01*
X153328363Y-86330773D01*
X153292611Y-86313295D01*
X153235814Y-86286810D01*
X153157536Y-86208532D01*
X153131061Y-86151757D01*
X153113572Y-86115982D01*
X153113205Y-86113465D01*
X153110752Y-86108204D01*
X153099891Y-86025705D01*
X153099891Y-85588205D01*
X153110752Y-85505706D01*
X153113205Y-85500445D01*
X153113572Y-85497927D01*
X153131071Y-85462130D01*
X153157536Y-85405378D01*
X153235814Y-85327100D01*
X153292566Y-85300635D01*
X153328363Y-85283136D01*
X153330881Y-85282769D01*
X153336142Y-85280316D01*
X153418641Y-85269455D01*
X153931141Y-85269455D01*
X154013640Y-85280316D01*
G37*
G36*
X170084011Y-84756071D02*
G01*
X170135344Y-84792014D01*
X170168359Y-84814239D01*
X170169934Y-84816234D01*
X170174691Y-84819565D01*
X170225347Y-84885581D01*
X170481597Y-85329419D01*
X170513440Y-85406296D01*
X170513946Y-85412080D01*
X170514886Y-85414441D01*
X170517625Y-85454135D01*
X170523088Y-85516574D01*
X170494436Y-85623504D01*
X170458466Y-85674874D01*
X170436267Y-85707852D01*
X170434273Y-85709425D01*
X170430942Y-85714184D01*
X170364926Y-85764840D01*
X169986040Y-85983590D01*
X169909163Y-86015433D01*
X169903377Y-86015939D01*
X169901017Y-86016879D01*
X169861326Y-86019618D01*
X169798885Y-86025081D01*
X169691955Y-85996429D01*
X169640609Y-85960476D01*
X169607606Y-85938260D01*
X169606031Y-85936265D01*
X169601275Y-85932935D01*
X169550619Y-85866919D01*
X169294369Y-85423081D01*
X169262526Y-85346204D01*
X169262020Y-85340421D01*
X169261079Y-85338058D01*
X169258336Y-85298313D01*
X169252878Y-85235926D01*
X169281530Y-85128996D01*
X169317456Y-85077687D01*
X169339698Y-85044647D01*
X169341694Y-85043070D01*
X169345024Y-85038316D01*
X169411040Y-84987660D01*
X169428915Y-84977340D01*
X169786790Y-84770720D01*
X169786793Y-84770718D01*
X169789926Y-84768910D01*
X169866803Y-84737067D01*
X169872583Y-84736561D01*
X169874948Y-84735620D01*
X169914697Y-84732876D01*
X169977081Y-84727419D01*
X170084011Y-84756071D01*
G37*
G36*
X156782545Y-84116942D02*
G01*
X157188840Y-84239609D01*
X157269705Y-84264024D01*
X157269706Y-84264024D01*
X157273172Y-84265071D01*
X157349010Y-84299313D01*
X157353336Y-84303181D01*
X157355638Y-84304259D01*
X157384813Y-84331325D01*
X157431534Y-84373099D01*
X157483847Y-84470661D01*
X157492786Y-84532694D01*
X157499184Y-84571967D01*
X157498807Y-84574481D01*
X157499636Y-84580229D01*
X157486188Y-84662346D01*
X157359737Y-85081173D01*
X157325495Y-85157012D01*
X157321624Y-85161341D01*
X157320548Y-85163640D01*
X157293520Y-85192773D01*
X157251710Y-85239536D01*
X157154148Y-85291848D01*
X157092102Y-85300788D01*
X157052841Y-85307185D01*
X157050327Y-85306808D01*
X157044580Y-85307637D01*
X156962463Y-85294190D01*
X156471836Y-85146061D01*
X156395998Y-85111819D01*
X156391670Y-85107949D01*
X156389369Y-85106872D01*
X156360196Y-85079808D01*
X156313474Y-85038033D01*
X156261161Y-84940471D01*
X156252228Y-84878482D01*
X156245823Y-84839164D01*
X156246199Y-84836646D01*
X156245372Y-84830903D01*
X156258820Y-84748786D01*
X156292052Y-84638716D01*
X156384224Y-84333425D01*
X156384225Y-84333421D01*
X156385271Y-84329959D01*
X156419513Y-84254120D01*
X156423380Y-84249794D01*
X156424459Y-84247491D01*
X156451538Y-84218300D01*
X156493298Y-84171596D01*
X156590860Y-84119284D01*
X156652843Y-84110352D01*
X156692166Y-84103946D01*
X156694683Y-84104322D01*
X156700428Y-84103495D01*
X156782545Y-84116942D01*
G37*
G36*
X171448001Y-83968571D02*
G01*
X171499334Y-84004514D01*
X171532349Y-84026739D01*
X171533924Y-84028734D01*
X171538681Y-84032065D01*
X171589337Y-84098081D01*
X171845587Y-84541919D01*
X171877430Y-84618796D01*
X171877936Y-84624580D01*
X171878876Y-84626941D01*
X171881615Y-84666635D01*
X171887078Y-84729074D01*
X171858426Y-84836004D01*
X171822456Y-84887374D01*
X171800257Y-84920352D01*
X171798263Y-84921925D01*
X171794932Y-84926684D01*
X171728916Y-84977340D01*
X171350030Y-85196090D01*
X171273153Y-85227933D01*
X171267367Y-85228439D01*
X171265007Y-85229379D01*
X171225316Y-85232118D01*
X171162875Y-85237581D01*
X171055945Y-85208929D01*
X171004599Y-85172976D01*
X170971596Y-85150760D01*
X170970021Y-85148765D01*
X170965265Y-85145435D01*
X170914609Y-85079419D01*
X170658359Y-84635581D01*
X170626516Y-84558704D01*
X170626010Y-84552921D01*
X170625069Y-84550558D01*
X170622326Y-84510813D01*
X170616868Y-84448426D01*
X170645520Y-84341496D01*
X170681446Y-84290187D01*
X170703688Y-84257147D01*
X170705684Y-84255570D01*
X170709014Y-84250816D01*
X170775030Y-84200160D01*
X170826676Y-84170342D01*
X171150780Y-83983220D01*
X171150783Y-83983218D01*
X171153916Y-83981410D01*
X171230793Y-83949567D01*
X171236573Y-83949061D01*
X171238938Y-83948120D01*
X171278687Y-83945376D01*
X171341071Y-83939919D01*
X171448001Y-83968571D01*
G37*
G36*
X137368576Y-83932424D02*
G01*
X137377249Y-83936253D01*
X137384816Y-83937356D01*
X137432114Y-83960478D01*
X137469432Y-83976956D01*
X137472887Y-83980411D01*
X137473811Y-83980863D01*
X137543482Y-84050534D01*
X137543933Y-84051457D01*
X137547390Y-84054914D01*
X137563869Y-84092237D01*
X137586989Y-84139528D01*
X137588091Y-84147094D01*
X137591922Y-84155770D01*
X137599891Y-84224455D01*
X137599891Y-84774455D01*
X137591922Y-84843140D01*
X137588090Y-84851816D01*
X137586989Y-84859380D01*
X137563876Y-84906657D01*
X137547390Y-84943996D01*
X137543932Y-84947453D01*
X137543482Y-84948375D01*
X137473811Y-85018046D01*
X137472889Y-85018496D01*
X137469432Y-85021954D01*
X137432098Y-85038438D01*
X137384817Y-85061553D01*
X137377252Y-85062655D01*
X137368576Y-85066486D01*
X137299891Y-85074455D01*
X136899891Y-85074455D01*
X136831206Y-85066486D01*
X136822529Y-85062655D01*
X136814965Y-85061553D01*
X136767678Y-85038436D01*
X136730350Y-85021954D01*
X136726893Y-85018497D01*
X136725970Y-85018046D01*
X136656299Y-84948375D01*
X136655847Y-84947451D01*
X136652392Y-84943996D01*
X136635916Y-84906683D01*
X136612792Y-84859381D01*
X136611689Y-84851812D01*
X136607860Y-84843140D01*
X136599891Y-84774455D01*
X136599891Y-84224455D01*
X136607860Y-84155770D01*
X136611689Y-84147097D01*
X136612792Y-84139529D01*
X136635919Y-84092221D01*
X136652392Y-84054914D01*
X136655846Y-84051459D01*
X136656299Y-84050534D01*
X136725970Y-83980863D01*
X136726895Y-83980410D01*
X136730350Y-83976956D01*
X136767652Y-83960485D01*
X136814964Y-83937356D01*
X136822533Y-83936253D01*
X136831206Y-83932424D01*
X136899891Y-83924455D01*
X137299891Y-83924455D01*
X137368576Y-83932424D01*
G37*
G36*
X139018576Y-83932424D02*
G01*
X139027249Y-83936253D01*
X139034816Y-83937356D01*
X139082114Y-83960478D01*
X139119432Y-83976956D01*
X139122887Y-83980411D01*
X139123811Y-83980863D01*
X139193482Y-84050534D01*
X139193933Y-84051457D01*
X139197390Y-84054914D01*
X139213869Y-84092237D01*
X139236989Y-84139528D01*
X139238091Y-84147094D01*
X139241922Y-84155770D01*
X139249891Y-84224455D01*
X139249891Y-84774455D01*
X139241922Y-84843140D01*
X139238090Y-84851816D01*
X139236989Y-84859380D01*
X139213876Y-84906657D01*
X139197390Y-84943996D01*
X139193932Y-84947453D01*
X139193482Y-84948375D01*
X139123811Y-85018046D01*
X139122889Y-85018496D01*
X139119432Y-85021954D01*
X139082098Y-85038438D01*
X139034817Y-85061553D01*
X139027252Y-85062655D01*
X139018576Y-85066486D01*
X138949891Y-85074455D01*
X138549891Y-85074455D01*
X138481206Y-85066486D01*
X138472529Y-85062655D01*
X138464965Y-85061553D01*
X138417678Y-85038436D01*
X138380350Y-85021954D01*
X138376893Y-85018497D01*
X138375970Y-85018046D01*
X138306299Y-84948375D01*
X138305847Y-84947451D01*
X138302392Y-84943996D01*
X138285916Y-84906683D01*
X138262792Y-84859381D01*
X138261689Y-84851812D01*
X138257860Y-84843140D01*
X138249891Y-84774455D01*
X138249891Y-84224455D01*
X138257860Y-84155770D01*
X138261689Y-84147097D01*
X138262792Y-84139529D01*
X138285919Y-84092221D01*
X138302392Y-84054914D01*
X138305846Y-84051459D01*
X138306299Y-84050534D01*
X138375970Y-83980863D01*
X138376895Y-83980410D01*
X138380350Y-83976956D01*
X138417652Y-83960485D01*
X138464964Y-83937356D01*
X138472533Y-83936253D01*
X138481206Y-83932424D01*
X138549891Y-83924455D01*
X138949891Y-83924455D01*
X139018576Y-83932424D01*
G37*
G36*
X154013640Y-83705316D02*
G01*
X154018901Y-83707769D01*
X154021418Y-83708136D01*
X154057193Y-83725625D01*
X154113968Y-83752100D01*
X154192246Y-83830378D01*
X154218731Y-83887175D01*
X154236209Y-83922927D01*
X154236575Y-83925442D01*
X154239030Y-83930706D01*
X154249891Y-84013205D01*
X154249891Y-84450705D01*
X154239030Y-84533204D01*
X154236575Y-84538468D01*
X154236209Y-84540982D01*
X154218741Y-84576713D01*
X154192246Y-84633532D01*
X154113968Y-84711810D01*
X154057149Y-84738305D01*
X154021418Y-84755773D01*
X154018904Y-84756139D01*
X154013640Y-84758594D01*
X153931141Y-84769455D01*
X153418641Y-84769455D01*
X153336142Y-84758594D01*
X153330878Y-84756139D01*
X153328363Y-84755773D01*
X153292611Y-84738295D01*
X153235814Y-84711810D01*
X153157536Y-84633532D01*
X153131061Y-84576757D01*
X153113572Y-84540982D01*
X153113205Y-84538465D01*
X153110752Y-84533204D01*
X153099891Y-84450705D01*
X153099891Y-84013205D01*
X153110752Y-83930706D01*
X153113205Y-83925445D01*
X153113572Y-83922927D01*
X153131071Y-83887130D01*
X153157536Y-83830378D01*
X153235814Y-83752100D01*
X153292566Y-83725635D01*
X153328363Y-83708136D01*
X153330881Y-83707769D01*
X153336142Y-83705316D01*
X153418641Y-83694455D01*
X153931141Y-83694455D01*
X154013640Y-83705316D01*
G37*
G36*
X168006988Y-82070853D02*
G01*
X168063761Y-82097326D01*
X168100155Y-82113490D01*
X168102053Y-82115182D01*
X168107316Y-82117636D01*
X168168666Y-82173853D01*
X168170996Y-82176630D01*
X168495766Y-82563675D01*
X168495769Y-82563681D01*
X168498094Y-82566451D01*
X168542804Y-82636630D01*
X168544307Y-82642240D01*
X168545641Y-82644399D01*
X168555218Y-82682961D01*
X168571455Y-82743558D01*
X168561806Y-82853838D01*
X168535331Y-82910613D01*
X168519169Y-82947005D01*
X168517477Y-82948903D01*
X168515023Y-82954166D01*
X168458806Y-83015516D01*
X168123662Y-83296735D01*
X168053482Y-83341445D01*
X168047873Y-83342947D01*
X168045711Y-83344284D01*
X168007108Y-83353870D01*
X167946555Y-83370096D01*
X167836274Y-83360447D01*
X167779475Y-83333961D01*
X167743106Y-83317809D01*
X167741208Y-83316118D01*
X167735946Y-83313664D01*
X167674596Y-83257447D01*
X167669497Y-83251371D01*
X167347495Y-82867624D01*
X167347490Y-82867617D01*
X167345168Y-82864849D01*
X167300458Y-82794670D01*
X167298955Y-82789060D01*
X167297620Y-82786900D01*
X167288033Y-82748299D01*
X167271807Y-82687742D01*
X167281456Y-82577462D01*
X167307899Y-82520752D01*
X167324092Y-82484294D01*
X167325787Y-82482392D01*
X167328239Y-82477134D01*
X167384456Y-82415784D01*
X167543876Y-82282015D01*
X167716823Y-82136894D01*
X167716828Y-82136890D01*
X167719600Y-82134565D01*
X167789780Y-82089855D01*
X167795383Y-82088353D01*
X167797550Y-82087015D01*
X167836217Y-82077412D01*
X167896707Y-82061204D01*
X168006988Y-82070853D01*
G37*
G36*
X169213508Y-81058463D02*
G01*
X169270281Y-81084936D01*
X169306675Y-81101100D01*
X169308573Y-81102792D01*
X169313836Y-81105246D01*
X169375186Y-81161463D01*
X169377516Y-81164240D01*
X169702286Y-81551285D01*
X169702289Y-81551291D01*
X169704614Y-81554061D01*
X169749324Y-81624240D01*
X169750827Y-81629850D01*
X169752161Y-81632009D01*
X169761738Y-81670571D01*
X169777975Y-81731168D01*
X169768326Y-81841448D01*
X169741851Y-81898223D01*
X169725689Y-81934615D01*
X169723997Y-81936513D01*
X169721543Y-81941776D01*
X169665326Y-82003126D01*
X169330182Y-82284345D01*
X169260002Y-82329055D01*
X169254393Y-82330557D01*
X169252231Y-82331894D01*
X169213628Y-82341480D01*
X169153075Y-82357706D01*
X169042794Y-82348057D01*
X168985995Y-82321571D01*
X168949626Y-82305419D01*
X168947728Y-82303728D01*
X168942466Y-82301274D01*
X168881116Y-82245057D01*
X168821369Y-82173853D01*
X168554015Y-81855234D01*
X168554010Y-81855227D01*
X168551688Y-81852459D01*
X168506978Y-81782280D01*
X168505475Y-81776670D01*
X168504140Y-81774510D01*
X168494553Y-81735909D01*
X168478327Y-81675352D01*
X168487976Y-81565072D01*
X168514419Y-81508362D01*
X168530612Y-81471904D01*
X168532307Y-81470002D01*
X168534759Y-81464744D01*
X168590976Y-81403394D01*
X168746468Y-81272920D01*
X168923343Y-81124504D01*
X168923348Y-81124500D01*
X168926120Y-81122175D01*
X168996300Y-81077465D01*
X169001903Y-81075963D01*
X169004070Y-81074625D01*
X169042737Y-81065022D01*
X169103227Y-81048814D01*
X169213508Y-81058463D01*
G37*
G36*
X165591329Y-79819112D02*
G01*
X165629944Y-79828703D01*
X165632105Y-79830038D01*
X165637716Y-79831542D01*
X165707895Y-79876252D01*
X166100493Y-80205680D01*
X166156710Y-80267030D01*
X166159163Y-80272290D01*
X166160855Y-80274189D01*
X166177013Y-80310572D01*
X166203493Y-80367358D01*
X166213142Y-80477639D01*
X166196918Y-80538184D01*
X166187330Y-80576796D01*
X166185993Y-80578959D01*
X166184491Y-80584566D01*
X166139781Y-80654746D01*
X165858562Y-80989890D01*
X165797212Y-81046107D01*
X165791947Y-81048562D01*
X165790051Y-81050252D01*
X165753687Y-81066402D01*
X165696884Y-81092890D01*
X165586604Y-81102539D01*
X165526023Y-81086306D01*
X165487447Y-81076726D01*
X165485287Y-81075391D01*
X165479676Y-81073888D01*
X165409497Y-81029178D01*
X165016899Y-80699750D01*
X164960682Y-80638400D01*
X164958229Y-80633139D01*
X164956536Y-80631240D01*
X164940366Y-80594832D01*
X164913899Y-80538072D01*
X164904250Y-80427791D01*
X164920456Y-80367309D01*
X164930061Y-80328633D01*
X164931399Y-80326466D01*
X164932901Y-80320864D01*
X164977611Y-80250684D01*
X165258830Y-79915540D01*
X165320180Y-79859323D01*
X165325440Y-79856870D01*
X165327340Y-79855177D01*
X165363770Y-79838996D01*
X165420508Y-79812540D01*
X165530788Y-79802891D01*
X165591329Y-79819112D01*
G37*
G36*
X166603719Y-78612592D02*
G01*
X166642334Y-78622183D01*
X166644495Y-78623518D01*
X166650106Y-78625022D01*
X166720285Y-78669732D01*
X167112883Y-78999160D01*
X167169100Y-79060510D01*
X167171553Y-79065770D01*
X167173245Y-79067669D01*
X167189403Y-79104052D01*
X167215883Y-79160838D01*
X167225532Y-79271119D01*
X167209308Y-79331664D01*
X167199720Y-79370276D01*
X167198383Y-79372439D01*
X167196881Y-79378046D01*
X167152171Y-79448226D01*
X166870952Y-79783370D01*
X166809602Y-79839587D01*
X166804337Y-79842042D01*
X166802441Y-79843732D01*
X166766077Y-79859882D01*
X166709274Y-79886370D01*
X166598994Y-79896019D01*
X166538413Y-79879786D01*
X166499837Y-79870206D01*
X166497677Y-79868871D01*
X166492066Y-79867368D01*
X166421887Y-79822658D01*
X166029289Y-79493230D01*
X165973072Y-79431880D01*
X165970619Y-79426619D01*
X165968926Y-79424720D01*
X165952756Y-79388312D01*
X165926289Y-79331552D01*
X165916640Y-79221271D01*
X165932846Y-79160789D01*
X165942451Y-79122113D01*
X165943789Y-79119946D01*
X165945291Y-79114344D01*
X165990001Y-79044164D01*
X166271220Y-78709020D01*
X166332570Y-78652803D01*
X166337830Y-78650350D01*
X166339730Y-78648657D01*
X166376160Y-78632476D01*
X166432898Y-78606020D01*
X166543178Y-78596371D01*
X166603719Y-78612592D01*
G37*
G36*
X162743206Y-78001803D02*
G01*
X162782948Y-78004546D01*
X162785311Y-78005487D01*
X162791095Y-78005993D01*
X162867972Y-78037836D01*
X162955709Y-78088491D01*
X163308673Y-78292274D01*
X163308677Y-78292277D01*
X163311810Y-78294086D01*
X163377826Y-78344742D01*
X163381155Y-78349497D01*
X163383149Y-78351071D01*
X163405357Y-78384061D01*
X163441320Y-78435422D01*
X163469972Y-78542352D01*
X163464508Y-78604796D01*
X163461770Y-78644483D01*
X163460830Y-78646843D01*
X163460324Y-78652630D01*
X163428481Y-78729507D01*
X163209731Y-79108393D01*
X163159075Y-79174409D01*
X163154317Y-79177740D01*
X163152745Y-79179732D01*
X163119780Y-79201922D01*
X163068395Y-79237903D01*
X162961465Y-79266555D01*
X162899024Y-79261092D01*
X162859333Y-79258353D01*
X162856972Y-79257413D01*
X162851187Y-79256907D01*
X162774310Y-79225064D01*
X162456181Y-79041392D01*
X162333608Y-78970625D01*
X162333605Y-78970623D01*
X162330472Y-78968814D01*
X162264456Y-78918158D01*
X162261126Y-78913402D01*
X162259132Y-78911828D01*
X162236916Y-78878826D01*
X162200962Y-78827478D01*
X162172310Y-78720548D01*
X162177768Y-78658161D01*
X162180511Y-78618416D01*
X162181452Y-78616052D01*
X162181958Y-78610270D01*
X162213801Y-78533393D01*
X162268663Y-78438369D01*
X162430739Y-78157643D01*
X162430744Y-78157636D01*
X162432551Y-78154507D01*
X162483207Y-78088491D01*
X162487960Y-78085162D01*
X162489536Y-78083167D01*
X162522563Y-78060933D01*
X162573887Y-78024997D01*
X162680817Y-77996345D01*
X162743206Y-78001803D01*
G37*
G36*
X163530706Y-76637813D02*
G01*
X163570448Y-76640556D01*
X163572811Y-76641497D01*
X163578595Y-76642003D01*
X163655472Y-76673846D01*
X163799170Y-76756810D01*
X164096173Y-76928284D01*
X164096177Y-76928287D01*
X164099310Y-76930096D01*
X164165326Y-76980752D01*
X164168655Y-76985507D01*
X164170649Y-76987081D01*
X164192857Y-77020071D01*
X164228820Y-77071432D01*
X164257472Y-77178362D01*
X164252008Y-77240806D01*
X164249270Y-77280493D01*
X164248330Y-77282853D01*
X164247824Y-77288640D01*
X164215981Y-77365517D01*
X163997231Y-77744403D01*
X163946575Y-77810419D01*
X163941817Y-77813750D01*
X163940245Y-77815742D01*
X163907280Y-77837932D01*
X163855895Y-77873913D01*
X163748965Y-77902565D01*
X163686524Y-77897102D01*
X163646833Y-77894363D01*
X163644472Y-77893423D01*
X163638687Y-77892917D01*
X163561810Y-77861074D01*
X163255833Y-77684418D01*
X163121108Y-77606635D01*
X163121105Y-77606633D01*
X163117972Y-77604824D01*
X163051956Y-77554168D01*
X163048626Y-77549412D01*
X163046632Y-77547838D01*
X163024416Y-77514836D01*
X162988462Y-77463488D01*
X162959810Y-77356558D01*
X162965268Y-77294171D01*
X162968011Y-77254426D01*
X162968952Y-77252062D01*
X162969458Y-77246280D01*
X163001301Y-77169403D01*
X163053597Y-77078823D01*
X163218239Y-76793653D01*
X163218244Y-76793646D01*
X163220051Y-76790517D01*
X163270707Y-76724501D01*
X163275460Y-76721172D01*
X163277036Y-76719177D01*
X163310063Y-76696943D01*
X163361387Y-76661007D01*
X163468317Y-76632355D01*
X163530706Y-76637813D01*
G37*
G36*
X159671570Y-76679230D02*
G01*
X159677351Y-76678725D01*
X159758590Y-76696736D01*
X160240182Y-76872021D01*
X160313991Y-76910443D01*
X160318095Y-76914547D01*
X160320335Y-76915753D01*
X160347956Y-76944408D01*
X160392267Y-76988720D01*
X160439052Y-77089050D01*
X160444509Y-77151433D01*
X160448711Y-77191054D01*
X160448194Y-77193546D01*
X160448700Y-77199328D01*
X160430690Y-77280567D01*
X160281056Y-77691682D01*
X160242634Y-77765491D01*
X160238526Y-77769598D01*
X160237324Y-77771833D01*
X160208714Y-77799410D01*
X160164357Y-77843768D01*
X160064027Y-77890552D01*
X160001605Y-77896013D01*
X159962022Y-77900211D01*
X159959532Y-77899694D01*
X159953749Y-77900201D01*
X159872510Y-77882190D01*
X159390918Y-77706905D01*
X159317109Y-77668483D01*
X159313003Y-77664377D01*
X159310764Y-77663172D01*
X159283142Y-77634516D01*
X159238833Y-77590206D01*
X159192048Y-77489876D01*
X159186594Y-77427541D01*
X159182388Y-77387871D01*
X159182905Y-77385374D01*
X159182400Y-77379598D01*
X159200410Y-77298359D01*
X159206886Y-77280567D01*
X159348806Y-76890644D01*
X159348807Y-76890641D01*
X159350044Y-76887244D01*
X159388466Y-76813435D01*
X159392569Y-76809331D01*
X159393775Y-76807092D01*
X159422440Y-76779460D01*
X159466743Y-76735158D01*
X159567073Y-76688374D01*
X159629434Y-76682917D01*
X159669077Y-76678714D01*
X159671570Y-76679230D01*
G37*
G36*
X156459122Y-75931159D02*
G01*
X156462694Y-75931788D01*
X156462695Y-75931789D01*
X156960265Y-76019524D01*
X156960267Y-76019524D01*
X156963836Y-76020154D01*
X157043196Y-76045176D01*
X157047952Y-76048506D01*
X157050365Y-76049304D01*
X157082534Y-76072721D01*
X157133875Y-76108671D01*
X157197371Y-76199353D01*
X157213588Y-76259876D01*
X157224595Y-76298128D01*
X157224519Y-76300667D01*
X157226023Y-76306280D01*
X157222393Y-76389412D01*
X157146422Y-76820265D01*
X157121400Y-76899625D01*
X157118067Y-76904384D01*
X157117271Y-76906794D01*
X157093880Y-76938926D01*
X157057905Y-76990305D01*
X156967223Y-77053801D01*
X156906713Y-77070014D01*
X156868447Y-77081025D01*
X156865904Y-77080949D01*
X156860296Y-77082452D01*
X156777164Y-77078823D01*
X156272450Y-76989828D01*
X156193090Y-76964806D01*
X156188331Y-76961474D01*
X156185920Y-76960677D01*
X156153760Y-76937267D01*
X156102411Y-76901311D01*
X156038915Y-76810629D01*
X156022706Y-76750141D01*
X156011690Y-76711853D01*
X156011765Y-76709310D01*
X156010263Y-76703702D01*
X156013893Y-76620570D01*
X156035910Y-76495705D01*
X156089234Y-76193286D01*
X156089235Y-76193281D01*
X156089864Y-76189717D01*
X156114886Y-76110357D01*
X156118216Y-76105601D01*
X156119014Y-76103187D01*
X156142449Y-76070992D01*
X156178381Y-76019677D01*
X156269063Y-75956181D01*
X156329507Y-75939984D01*
X156367838Y-75928956D01*
X156370384Y-75929032D01*
X156375990Y-75927530D01*
X156459122Y-75931159D01*
G37*
G36*
X153783640Y-75750316D02*
G01*
X153788901Y-75752769D01*
X153791418Y-75753136D01*
X153827193Y-75770625D01*
X153883968Y-75797100D01*
X153962246Y-75875378D01*
X153988731Y-75932175D01*
X154006209Y-75967927D01*
X154006575Y-75970442D01*
X154009030Y-75975706D01*
X154019891Y-76058205D01*
X154019891Y-76495705D01*
X154009030Y-76578204D01*
X154006575Y-76583468D01*
X154006209Y-76585982D01*
X153988741Y-76621713D01*
X153962246Y-76678532D01*
X153883968Y-76756810D01*
X153827149Y-76783305D01*
X153791418Y-76800773D01*
X153788904Y-76801139D01*
X153783640Y-76803594D01*
X153701141Y-76814455D01*
X153188641Y-76814455D01*
X153106142Y-76803594D01*
X153100878Y-76801139D01*
X153098363Y-76800773D01*
X153062611Y-76783295D01*
X153005814Y-76756810D01*
X152927536Y-76678532D01*
X152901061Y-76621757D01*
X152883572Y-76585982D01*
X152883205Y-76583465D01*
X152880752Y-76578204D01*
X152869891Y-76495705D01*
X152869891Y-76058205D01*
X152880752Y-75975706D01*
X152883205Y-75970445D01*
X152883572Y-75967927D01*
X152901071Y-75932130D01*
X152927536Y-75875378D01*
X153005814Y-75797100D01*
X153062566Y-75770635D01*
X153098363Y-75753136D01*
X153100881Y-75752769D01*
X153106142Y-75750316D01*
X153188641Y-75739455D01*
X153701141Y-75739455D01*
X153783640Y-75750316D01*
G37*
G36*
X160210252Y-75199214D02*
G01*
X160216033Y-75198709D01*
X160297272Y-75216720D01*
X160778864Y-75392005D01*
X160852673Y-75430427D01*
X160856777Y-75434531D01*
X160859017Y-75435737D01*
X160886638Y-75464392D01*
X160930949Y-75508704D01*
X160977734Y-75609034D01*
X160983191Y-75671417D01*
X160987393Y-75711038D01*
X160986876Y-75713530D01*
X160987382Y-75719312D01*
X160969372Y-75800551D01*
X160819738Y-76211666D01*
X160781316Y-76285475D01*
X160777208Y-76289582D01*
X160776006Y-76291817D01*
X160747396Y-76319394D01*
X160703039Y-76363752D01*
X160602709Y-76410536D01*
X160540287Y-76415997D01*
X160500704Y-76420195D01*
X160498214Y-76419678D01*
X160492431Y-76420185D01*
X160411192Y-76402174D01*
X159929600Y-76226889D01*
X159855791Y-76188467D01*
X159851685Y-76184361D01*
X159849446Y-76183156D01*
X159821824Y-76154500D01*
X159777515Y-76110190D01*
X159730730Y-76009860D01*
X159725276Y-75947525D01*
X159721070Y-75907855D01*
X159721587Y-75905358D01*
X159721082Y-75899582D01*
X159739092Y-75818343D01*
X159843538Y-75531380D01*
X159887488Y-75410628D01*
X159887489Y-75410625D01*
X159888726Y-75407228D01*
X159927148Y-75333419D01*
X159931251Y-75329315D01*
X159932457Y-75327076D01*
X159961122Y-75299444D01*
X160005425Y-75255142D01*
X160105755Y-75208358D01*
X160168116Y-75202901D01*
X160207759Y-75198698D01*
X160210252Y-75199214D01*
G37*
G36*
X156732618Y-74380087D02*
G01*
X156736190Y-74380716D01*
X156736191Y-74380717D01*
X157233761Y-74468452D01*
X157233763Y-74468452D01*
X157237332Y-74469082D01*
X157316692Y-74494104D01*
X157321448Y-74497434D01*
X157323861Y-74498232D01*
X157356030Y-74521649D01*
X157407371Y-74557599D01*
X157470867Y-74648281D01*
X157487084Y-74708804D01*
X157498091Y-74747056D01*
X157498015Y-74749595D01*
X157499519Y-74755208D01*
X157495889Y-74838340D01*
X157419918Y-75269193D01*
X157394896Y-75348553D01*
X157391563Y-75353312D01*
X157390767Y-75355722D01*
X157367376Y-75387854D01*
X157331401Y-75439233D01*
X157240719Y-75502729D01*
X157180209Y-75518942D01*
X157141943Y-75529953D01*
X157139400Y-75529877D01*
X157133792Y-75531380D01*
X157050660Y-75527751D01*
X156545946Y-75438756D01*
X156466586Y-75413734D01*
X156461827Y-75410402D01*
X156459416Y-75409605D01*
X156427256Y-75386195D01*
X156375907Y-75350239D01*
X156312411Y-75259557D01*
X156296202Y-75199069D01*
X156285186Y-75160781D01*
X156285261Y-75158238D01*
X156283759Y-75152630D01*
X156287389Y-75069498D01*
X156313625Y-74920705D01*
X156362730Y-74642214D01*
X156362731Y-74642209D01*
X156363360Y-74638645D01*
X156388382Y-74559285D01*
X156391712Y-74554529D01*
X156392510Y-74552115D01*
X156415945Y-74519920D01*
X156451877Y-74468605D01*
X156542559Y-74405109D01*
X156603003Y-74388912D01*
X156641334Y-74377884D01*
X156643880Y-74377960D01*
X156649486Y-74376458D01*
X156732618Y-74380087D01*
G37*
G36*
X153783640Y-74175316D02*
G01*
X153788901Y-74177769D01*
X153791418Y-74178136D01*
X153827193Y-74195625D01*
X153883968Y-74222100D01*
X153962246Y-74300378D01*
X153988731Y-74357175D01*
X154006209Y-74392927D01*
X154006575Y-74395442D01*
X154009030Y-74400706D01*
X154019891Y-74483205D01*
X154019891Y-74920705D01*
X154009030Y-75003204D01*
X154006575Y-75008468D01*
X154006209Y-75010982D01*
X153988741Y-75046713D01*
X153962246Y-75103532D01*
X153883968Y-75181810D01*
X153827149Y-75208305D01*
X153791418Y-75225773D01*
X153788904Y-75226139D01*
X153783640Y-75228594D01*
X153701141Y-75239455D01*
X153188641Y-75239455D01*
X153106142Y-75228594D01*
X153100878Y-75226139D01*
X153098363Y-75225773D01*
X153062611Y-75208295D01*
X153005814Y-75181810D01*
X152927536Y-75103532D01*
X152901061Y-75046757D01*
X152883572Y-75010982D01*
X152883205Y-75008465D01*
X152880752Y-75003204D01*
X152869891Y-74920705D01*
X152869891Y-74483205D01*
X152880752Y-74400706D01*
X152883205Y-74395445D01*
X152883572Y-74392927D01*
X152901071Y-74357130D01*
X152927536Y-74300378D01*
X153005814Y-74222100D01*
X153062566Y-74195635D01*
X153098363Y-74178136D01*
X153100881Y-74177769D01*
X153106142Y-74175316D01*
X153188641Y-74164455D01*
X153701141Y-74164455D01*
X153783640Y-74175316D01*
G37*
M02*
