M48
; DRILL file KiCad 10.0.1 date 2026-05-25T18:21:50
; FORMAT={-:-/ absolute / metric / decimal}
; #@! TF.CreationDate,2026-05-25T18:21:50+01:00
; #@! TF.GenerationSoftware,Kicad,Pcbnew,10.0.1
; #@! TF.FileFunction,Plated,1,2,PTH
FMAT,2
METRIC
; #@! TA.AperFunction,Plated,PTH,ViaDrill
T1C0.300
%
G90
G05
T1
X134.135Y-93.869
X135.095Y-97.859
X135.545Y-92.379
X135.885Y-86.259
X136.255Y-93.169
X137.095Y-96.369
X137.285Y-97.369
X137.625Y-98.269
X138.275Y-89.379
X138.595Y-95.659
X138.765Y-82.909
X155.175Y-74.849
X155.305Y-84.469
X155.365Y-106.139
X155.445Y-90.889
X155.565Y-99.699
X155.875Y-115.669
X158.025Y-93.329
X158.085Y-97.139
X158.425Y-85.419
X158.425Y-105.189
X158.655Y-75.429
X159.465Y-114.949
X160.885Y-87.099
X160.995Y-103.479
X161.975Y-76.569
X162.765Y-113.689
X162.935Y-89.429
X163.045Y-100.989
X164.205Y-92.249
X164.205Y-98.299
X164.625Y-95.229
X165.105Y-78.279
X165.825Y-111.819
X167.865Y-80.549
X168.515Y-109.419
X170.225Y-83.229
X170.715Y-106.719
X172.055Y-86.229
X172.485Y-103.399
X173.335Y-89.509
X173.605Y-100.059
X174.045Y-92.899
X174.125Y-96.569
M30
