%TF.GenerationSoftware,KiCad,Pcbnew,10.0.1*%
%TF.CreationDate,2026-05-25T18:21:19+01:00*%
%TF.ProjectId,petal,70657461-6c2e-46b6-9963-61645f706362,rev?*%
%TF.SameCoordinates,Original*%
%TF.FileFunction,Paste,Top*%
%TF.FilePolarity,Positive*%
%FSLAX46Y46*%
G04 Gerber Fmt 4.6, Leading zero omitted, Abs format (unit mm)*
G04 Created by KiCad (PCBNEW 10.0.1) date 2026-05-25 18:21:19*
%MOMM*%
%LPD*%
G01*
G04 APERTURE LIST*
G04 Aperture macros list*
%AMRoundRect*
0 Rectangle with rounded corners*
0 $1 Rounding radius*
0 $2 $3 $4 $5 $6 $7 $8 $9 X,Y pos of 4 corners*
0 Add a 4 corners polygon primitive as box body*
4,1,4,$2,$3,$4,$5,$6,$7,$8,$9,$2,$3,0*
0 Add four circle primitives for the rounded corners*
1,1,$1+$1,$2,$3*
1,1,$1+$1,$4,$5*
1,1,$1+$1,$6,$7*
1,1,$1+$1,$8,$9*
0 Add four rect primitives between the rounded corners*
20,1,$1+$1,$2,$3,$4,$5,0*
20,1,$1+$1,$4,$5,$6,$7,0*
20,1,$1+$1,$6,$7,$8,$9,0*
20,1,$1+$1,$8,$9,$2,$3,0*%
G04 Aperture macros list end*
%ADD10C,0.010000*%
%ADD11RoundRect,0.218750X-0.335580X-0.030032X-0.022998X-0.336135X0.335580X0.030032X0.022998X0.336135X0*%
%ADD12RoundRect,0.218750X-0.061318X-0.331294X0.317568X-0.112544X0.061318X0.331294X-0.317568X0.112544X0*%
%ADD13RoundRect,0.218750X-0.218750X-0.256250X0.218750X-0.256250X0.218750X0.256250X-0.218750X0.256250X0*%
%ADD14RoundRect,0.218750X0.112544X-0.317568X0.331294X0.061318X-0.112544X0.317568X-0.331294X-0.061318X0*%
%ADD15RoundRect,0.218750X-0.002858X-0.336909X0.332287X-0.055689X0.002858X0.336909X-0.332287X0.055689X0*%
%ADD16RoundRect,0.218750X-0.329937X0.068243X-0.119170X-0.315141X0.329937X-0.068243X0.119170X0.315141X0*%
%ADD17RoundRect,0.218750X-0.117915X-0.315613X0.293200X-0.165979X0.117915X0.315613X-0.293200X0.165979X0*%
%ADD18RoundRect,0.218750X0.026517X-0.335876X0.335876X-0.026517X-0.026517X0.335876X-0.335876X0.026517X0*%
%ADD19RoundRect,0.218750X-0.317568X-0.112544X0.061318X-0.331294X0.317568X0.112544X-0.061318X0.331294X0*%
%ADD20RoundRect,0.218750X-0.259924X-0.214371X0.170929X-0.290343X0.259924X0.214371X-0.170929X0.290343X0*%
%ADD21RoundRect,0.218750X-0.315613X0.117915X-0.165979X-0.293200X0.315613X-0.117915X0.165979X0.293200X0*%
%ADD22RoundRect,0.218750X-0.331294X0.061318X-0.112544X-0.317568X0.331294X-0.061318X0.112544X0.317568X0*%
%ADD23RoundRect,0.218750X0.165979X-0.293200X0.315613X0.117915X-0.165979X0.293200X-0.315613X-0.117915X0*%
%ADD24RoundRect,0.218750X-0.293200X-0.165979X0.117915X-0.315613X0.293200X0.165979X-0.117915X0.315613X0*%
%ADD25RoundRect,0.218750X-0.190766X-0.277712X0.244337X-0.231981X0.190766X0.277712X-0.244337X0.231981X0*%
%ADD26RoundRect,0.218750X0.256250X-0.218750X0.256250X0.218750X-0.256250X0.218750X-0.256250X-0.218750X0*%
%ADD27RoundRect,0.218750X-0.262892X-0.210721X0.166859X-0.292701X0.262892X0.210721X-0.166859X0.292701X0*%
%ADD28RoundRect,0.218750X-0.170929X-0.290343X0.259924X-0.214371X0.170929X0.290343X-0.259924X0.214371X0*%
%ADD29RoundRect,0.218750X-0.296131X0.160692X-0.205170X-0.267247X0.296131X-0.160692X0.205170X0.267247X0*%
%ADD30RoundRect,0.200000X0.200000X0.275000X-0.200000X0.275000X-0.200000X-0.275000X0.200000X-0.275000X0*%
%ADD31RoundRect,0.218750X-0.332287X-0.055689X0.002858X-0.336909X0.332287X0.055689X-0.002858X0.336909X0*%
%ADD32RoundRect,0.218750X-0.005210X-0.336881X0.331890X-0.058008X0.005210X0.336881X-0.331890X0.058008X0*%
%ADD33RoundRect,0.218750X0.214371X-0.259924X0.290343X0.170929X-0.214371X0.259924X-0.290343X-0.170929X0*%
%ADD34R,0.250000X0.750000*%
%ADD35R,0.750000X0.250000*%
%ADD36R,4.500000X4.500000*%
%ADD37RoundRect,0.218750X0.055689X-0.332287X0.336909X0.002858X-0.055689X0.332287X-0.336909X-0.002858X0*%
%ADD38RoundRect,0.218750X-0.335876X-0.026517X-0.026517X-0.335876X0.335876X0.026517X0.026517X0.335876X0*%
%ADD39RoundRect,0.218750X-0.256250X0.218750X-0.256250X-0.218750X0.256250X-0.218750X0.256250X0.218750X0*%
%ADD40RoundRect,0.218750X-0.336909X0.002858X-0.055689X-0.332287X0.336909X-0.002858X0.055689X0.332287X0*%
%ADD41RoundRect,0.225000X0.225000X0.250000X-0.225000X0.250000X-0.225000X-0.250000X0.225000X-0.250000X0*%
%ADD42RoundRect,0.218750X-0.102357X-0.320996X0.300958X-0.151458X0.102357X0.320996X-0.300958X0.151458X0*%
%ADD43RoundRect,0.218750X0.182087X-0.283478X0.308539X0.135349X-0.182087X0.283478X-0.308539X-0.135349X0*%
%ADD44RoundRect,0.200000X-0.200000X-0.275000X0.200000X-0.275000X0.200000X0.275000X-0.200000X0.275000X0*%
%ADD45RoundRect,0.218750X-0.290343X0.170929X-0.214371X-0.259924X0.290343X-0.170929X0.214371X0.259924X0*%
%ADD46RoundRect,0.218750X-0.312577X-0.125744X0.075137X-0.328436X0.312577X0.125744X-0.075137X0.328436X0*%
%ADD47RoundRect,0.218750X0.092382X-0.324008X0.334490X0.040395X-0.092382X0.324008X-0.334490X-0.040395X0*%
%ADD48RoundRect,0.218750X-0.237047X0.239425X-0.273656X-0.196540X0.237047X-0.239425X0.273656X0.196540X0*%
G04 APERTURE END LIST*
D10*
%TO.C,U1*%
X140074891Y-92696455D02*
X140074891Y-92794455D01*
X139324891Y-92794455D01*
X139324891Y-92544455D01*
X139922891Y-92544455D01*
X140074891Y-92696455D01*
G36*
X140074891Y-92696455D02*
G01*
X140074891Y-92794455D01*
X139324891Y-92794455D01*
X139324891Y-92544455D01*
X139922891Y-92544455D01*
X140074891Y-92696455D01*
G37*
X140074891Y-97442455D02*
X139922891Y-97594455D01*
X139324891Y-97594455D01*
X139324891Y-97344455D01*
X140074891Y-97344455D01*
X140074891Y-97442455D01*
G36*
X140074891Y-97442455D02*
G01*
X139922891Y-97594455D01*
X139324891Y-97594455D01*
X139324891Y-97344455D01*
X140074891Y-97344455D01*
X140074891Y-97442455D01*
G37*
X140349891Y-92519455D02*
X140251891Y-92519455D01*
X140099891Y-92367455D01*
X140099891Y-91769455D01*
X140349891Y-91769455D01*
X140349891Y-92519455D01*
G36*
X140349891Y-92519455D02*
G01*
X140251891Y-92519455D01*
X140099891Y-92367455D01*
X140099891Y-91769455D01*
X140349891Y-91769455D01*
X140349891Y-92519455D01*
G37*
X140349891Y-98369455D02*
X140099891Y-98369455D01*
X140099891Y-97771455D01*
X140251891Y-97619455D01*
X140349891Y-97619455D01*
X140349891Y-98369455D01*
G36*
X140349891Y-98369455D02*
G01*
X140099891Y-98369455D01*
X140099891Y-97771455D01*
X140251891Y-97619455D01*
X140349891Y-97619455D01*
X140349891Y-98369455D01*
G37*
X145149891Y-92367455D02*
X144997891Y-92519455D01*
X144899891Y-92519455D01*
X144899891Y-91769455D01*
X145149891Y-91769455D01*
X145149891Y-92367455D01*
G36*
X145149891Y-92367455D02*
G01*
X144997891Y-92519455D01*
X144899891Y-92519455D01*
X144899891Y-91769455D01*
X145149891Y-91769455D01*
X145149891Y-92367455D01*
G37*
X145149891Y-97771455D02*
X145149891Y-98369455D01*
X144899891Y-98369455D01*
X144899891Y-97619455D01*
X144997891Y-97619455D01*
X145149891Y-97771455D01*
G36*
X145149891Y-97771455D02*
G01*
X145149891Y-98369455D01*
X144899891Y-98369455D01*
X144899891Y-97619455D01*
X144997891Y-97619455D01*
X145149891Y-97771455D01*
G37*
X145924891Y-92794455D02*
X145174891Y-92794455D01*
X145174891Y-92696455D01*
X145326891Y-92544455D01*
X145924891Y-92544455D01*
X145924891Y-92794455D01*
G36*
X145924891Y-92794455D02*
G01*
X145174891Y-92794455D01*
X145174891Y-92696455D01*
X145326891Y-92544455D01*
X145924891Y-92544455D01*
X145924891Y-92794455D01*
G37*
X145924891Y-97594455D02*
X145326891Y-97594455D01*
X145174891Y-97442455D01*
X145174891Y-97344455D01*
X145924891Y-97344455D01*
X145924891Y-97594455D01*
G36*
X145924891Y-97594455D02*
G01*
X145326891Y-97594455D01*
X145174891Y-97442455D01*
X145174891Y-97344455D01*
X145924891Y-97344455D01*
X145924891Y-97594455D01*
G37*
%TD*%
D11*
%TO.C,D28*%
X161022244Y-101278470D03*
X162147538Y-102380440D03*
%TD*%
D12*
%TO.C,D7*%
X169887983Y-85376250D03*
X171251973Y-84588750D03*
%TD*%
D13*
%TO.C,D34*%
X156957391Y-95279455D03*
X158532391Y-95279455D03*
%TD*%
D14*
%TO.C,D4*%
X162821141Y-78631450D03*
X163608641Y-77267460D03*
%TD*%
D15*
%TO.C,D6*%
X167921631Y-82715650D03*
X169128151Y-81703260D03*
%TD*%
D16*
%TO.C,D29*%
X159055510Y-103099363D03*
X159814272Y-104479547D03*
%TD*%
D17*
%TO.C,D8*%
X171350634Y-88318796D03*
X172830650Y-87780114D03*
%TD*%
D18*
%TO.C,D33*%
X155808044Y-92786302D03*
X156921738Y-91672608D03*
%TD*%
D19*
%TO.C,D13*%
X170402896Y-104335705D03*
X171766886Y-105123205D03*
%TD*%
D20*
%TO.C,D11*%
X172469355Y-98062707D03*
X174020427Y-98336203D03*
%TD*%
D13*
%TO.C,D10*%
X172677391Y-94769455D03*
X174252391Y-94769455D03*
%TD*%
D21*
%TO.C,D17*%
X160605550Y-113019447D03*
X161144232Y-114499463D03*
%TD*%
D22*
%TO.C,D16*%
X163601141Y-111517460D03*
X164388641Y-112881450D03*
%TD*%
D23*
%TO.C,D3*%
X159815550Y-77289463D03*
X160354232Y-75809447D03*
%TD*%
D24*
%TO.C,D12*%
X171694883Y-101310114D03*
X173174899Y-101848796D03*
%TD*%
D25*
%TO.C,D25*%
X163061705Y-93891771D03*
X164628077Y-93727139D03*
%TD*%
D26*
%TO.C,D20*%
X153674891Y-85806955D03*
X153674891Y-84231955D03*
%TD*%
D27*
%TO.C,D26*%
X163081340Y-96511892D03*
X164628442Y-96807018D03*
%TD*%
D28*
%TO.C,D9*%
X172309355Y-91486203D03*
X173860427Y-91212707D03*
%TD*%
D29*
%TO.C,D30*%
X156651161Y-104299164D03*
X156978621Y-105839746D03*
%TD*%
D30*
%TO.C,R1*%
X138749891Y-84499455D03*
X137099891Y-84499455D03*
%TD*%
D31*
%TO.C,D14*%
X168581631Y-107123260D03*
X169788151Y-108135650D03*
%TD*%
D32*
%TO.C,D23*%
X160868112Y-89111426D03*
X162081670Y-88107484D03*
%TD*%
D33*
%TO.C,D2*%
X156618143Y-76504991D03*
X156891639Y-74953919D03*
%TD*%
D34*
%TO.C,U1*%
X140624891Y-97994455D03*
X141024891Y-97994455D03*
X141424891Y-97994455D03*
X141824891Y-97994455D03*
X142224891Y-97994455D03*
X142624891Y-97994455D03*
X143024891Y-97994455D03*
X143424891Y-97994455D03*
X143824891Y-97994455D03*
X144224891Y-97994455D03*
X144624891Y-97994455D03*
D35*
X145549891Y-97069455D03*
X145549891Y-96669455D03*
X145549891Y-96269455D03*
X145549891Y-95869455D03*
X145549891Y-95469455D03*
X145549891Y-95069455D03*
X145549891Y-94669455D03*
X145549891Y-94269455D03*
X145549891Y-93869455D03*
X145549891Y-93469455D03*
X145549891Y-93069455D03*
D34*
X144624891Y-92144455D03*
X144224891Y-92144455D03*
X143824891Y-92144455D03*
X143424891Y-92144455D03*
X143024891Y-92144455D03*
X142624891Y-92144455D03*
X142224891Y-92144455D03*
X141824891Y-92144455D03*
X141424891Y-92144455D03*
X141024891Y-92144455D03*
X140624891Y-92144455D03*
D35*
X139699891Y-93069455D03*
X139699891Y-93469455D03*
X139699891Y-93869455D03*
X139699891Y-94269455D03*
X139699891Y-94669455D03*
X139699891Y-95069455D03*
X139699891Y-95469455D03*
X139699891Y-95869455D03*
X139699891Y-96269455D03*
X139699891Y-96669455D03*
X139699891Y-97069455D03*
D36*
X142624891Y-95069455D03*
%TD*%
D37*
%TO.C,D5*%
X165558696Y-80452715D03*
X166571086Y-79246195D03*
%TD*%
D38*
%TO.C,D35*%
X156018044Y-97602608D03*
X157131738Y-98716302D03*
%TD*%
D39*
%TO.C,D19*%
X154074891Y-114321955D03*
X154074891Y-115896955D03*
%TD*%
D40*
%TO.C,D15*%
X166258696Y-109556195D03*
X167271086Y-110762715D03*
%TD*%
D26*
%TO.C,D32*%
X153814891Y-91996955D03*
X153814891Y-90421955D03*
%TD*%
D41*
%TO.C,C1*%
X138414891Y-102284455D03*
X136864891Y-102284455D03*
%TD*%
D26*
%TO.C,D1*%
X153444891Y-76276955D03*
X153444891Y-74701955D03*
%TD*%
D42*
%TO.C,D24*%
X162298924Y-91374624D03*
X163750858Y-90764286D03*
%TD*%
D43*
%TO.C,D21*%
X156417278Y-86213344D03*
X156872504Y-84705566D03*
%TD*%
D44*
%TO.C,R2*%
X137109891Y-86269455D03*
X138759891Y-86269455D03*
%TD*%
%TO.C,R3*%
X137129891Y-88039455D03*
X138779891Y-88039455D03*
%TD*%
D39*
%TO.C,D36*%
X153794891Y-98611955D03*
X153794891Y-100186955D03*
%TD*%
D45*
%TO.C,D18*%
X157398143Y-113963919D03*
X157671639Y-115514991D03*
%TD*%
D46*
%TO.C,D27*%
X162377006Y-99054609D03*
X163772776Y-99784301D03*
%TD*%
D47*
%TO.C,D22*%
X158859095Y-87355380D03*
X159730687Y-86043530D03*
%TD*%
D48*
%TO.C,D31*%
X153960787Y-104814717D03*
X153828995Y-106384193D03*
%TD*%
M02*
